<svg width="381" height="150" viewBox="0 0 381 150" fill="none" xmlns="http://www.w3.org/2000/svg">
<rect y="14" width="24.4167" height="110" rx="6" fill="#D9F7E5"/>
<rect x="32.417" y="36" width="24.4167" height="88" rx="6" fill="#D9F7E5"/>
<rect x="64.833" y="61" width="24.4167" height="63" rx="6" fill="#D9F7E5"/>
<rect x="97.25" y="61" width="24.4167" height="63" rx="6" fill="#D9F7E5"/>
<rect x="129.667" y="61" width="24.4167" height="63" rx="6" fill="#D9F7E5"/>
<rect x="162.083" y="86" width="24.4167" height="38" rx="6" fill="#D9F7E5"/>
<rect x="194.5" y="31" width="24.4167" height="93" rx="6" fill="#2C8C53"/>
<rect x="226.917" y="75" width="24.4167" height="49" rx="6" fill="#D9F7E5"/>
<rect x="259.333" y="31" width="24.4167" height="93" rx="6" fill="#D9F7E5"/>
<rect x="291.75" y="20" width="24.4167" height="104" rx="6" fill="#D9F7E5"/>
<rect x="324.167" y="92" width="24.4167" height="32" rx="6" fill="#D9F7E5"/>
<rect x="356.583" y="50" width="24.4167" height="74" rx="6" fill="#D9F7E5"/>
<path d="M198 8C198 3.58173 201.582 0 206 0H236C240.418 0 244 3.58172 244 8V19.36C244 23.7783 240.418 27.36 236 27.36H225.312C224.438 27.36 223.646 27.875 223.292 28.674L221 33.84C220.708 34.7183 219.533 34.8754 219.02 34.1049L218.932 33.9724C218.873 33.8845 218.827 33.7892 218.794 33.6891L217.368 29.406C216.962 28.1843 215.819 27.36 214.531 27.36H206C201.582 27.36 198 23.7783 198 19.36V8Z" fill="#454545"/>
<path d="M213.201 17V16.231L216.473 13.2036C217.181 12.5505 217.889 11.7144 217.889 10.7073C217.889 9.93823 217.474 9.47437 216.748 9.47437C215.808 9.47437 215.277 10.2434 215.087 11.0308L213.537 10.3655C213.879 8.69922 215.155 7.92407 216.76 7.92407C218.487 7.92407 219.885 8.81519 219.885 10.6401C219.885 11.9585 219.152 13.0266 218.188 13.8567L216.326 15.4497H219.952V17H213.201ZM220.971 14.9126L222.509 14.2351C222.723 15.0652 223.364 15.6511 224.243 15.6511C225.067 15.6511 225.854 15.2971 225.854 14.3633C225.854 13.1365 224.957 13.0754 224.035 13.0754H223.718V11.7266H224.053C224.945 11.7266 225.732 11.635 225.732 10.5364C225.732 9.78564 225.042 9.41333 224.334 9.41333C223.516 9.41333 223.028 9.90771 222.772 10.689L221.295 10.0481C221.716 8.57104 223.083 7.92407 224.517 7.92407C226.031 7.92407 227.642 8.64429 227.642 10.3289C227.642 11.342 227.062 11.9768 226.171 12.3003C227.246 12.5444 227.905 13.283 227.905 14.3999C227.905 16.4019 226.202 17.1404 224.45 17.1404C222.9 17.1404 221.362 16.5605 220.971 14.9126Z" fill="white"/>
<path d="M3.43685 146.232C3.62435 146.311 3.81575 146.377 4.01107 146.432C4.21029 146.482 4.42513 146.508 4.6556 146.508C5.19075 146.508 5.57747 146.355 5.81575 146.051C6.05404 145.746 6.17318 145.326 6.17318 144.791V138.422H6.89388V144.803C6.89388 145.529 6.71419 146.094 6.35482 146.496C5.99544 146.895 5.45052 147.094 4.72005 147.094C4.49349 147.094 4.27083 147.072 4.05208 147.029C3.83724 146.986 3.63216 146.916 3.43685 146.818V146.232ZM12.7591 146.039C12.6419 146.23 12.5013 146.395 12.3372 146.531C12.1771 146.668 12.0033 146.779 11.8158 146.865C11.6283 146.947 11.429 147.008 11.2181 147.047C11.0111 147.086 10.7982 147.105 10.5794 147.105C10.2943 147.105 10.0208 147.072 9.75911 147.006C9.4974 146.939 9.26693 146.834 9.06771 146.689C8.8724 146.541 8.71615 146.354 8.59896 146.127C8.48177 145.896 8.42318 145.621 8.42318 145.301C8.42318 145.004 8.472 144.752 8.56966 144.545C8.66732 144.334 8.80013 144.16 8.9681 144.023C9.13607 143.883 9.33138 143.771 9.55404 143.689C9.77669 143.607 10.0111 143.547 10.2572 143.508C10.5072 143.465 10.7611 143.438 11.0189 143.426C11.2806 143.414 11.5306 143.408 11.7689 143.408H12.3958L12.7415 143.402C12.7415 143.07 12.722 142.766 12.6829 142.488C12.6478 142.211 12.5697 141.973 12.4486 141.773C12.3275 141.57 12.1497 141.414 11.9154 141.305C11.6849 141.191 11.3763 141.135 10.9896 141.135C10.5443 141.135 10.1673 141.248 9.85872 141.475C9.55013 141.697 9.33138 142.023 9.20247 142.453L8.68685 142.236C8.86263 141.686 9.15365 141.277 9.5599 141.012C9.97005 140.746 10.4564 140.613 11.0189 140.613C11.4447 140.613 11.8079 140.672 12.1087 140.789C12.4095 140.902 12.6536 141.068 12.8411 141.287C13.0326 141.506 13.1712 141.773 13.2572 142.09C13.347 142.406 13.3919 142.768 13.3919 143.174V147H12.7591V146.039ZM11.3177 143.865C11.0677 143.865 10.8099 143.881 10.5443 143.912C10.2786 143.939 10.0365 144.002 9.81771 144.1C9.60286 144.197 9.42513 144.34 9.2845 144.527C9.14388 144.715 9.07357 144.969 9.07357 145.289C9.07357 145.535 9.11654 145.742 9.20247 145.91C9.29232 146.078 9.4095 146.215 9.55404 146.32C9.70247 146.422 9.87435 146.494 10.0697 146.537C10.2689 146.58 10.4759 146.602 10.6908 146.602C10.9173 146.602 11.1517 146.57 11.3939 146.508C11.6361 146.441 11.8568 146.344 12.056 146.215C12.2552 146.082 12.4193 145.918 12.5482 145.723C12.6771 145.527 12.7415 145.301 12.7415 145.043V143.865H11.3177ZM15.2786 140.725H15.929V142.02C16.0228 141.789 16.1517 141.586 16.3158 141.41C16.4798 141.234 16.6654 141.088 16.8724 140.971C17.0794 140.854 17.3001 140.766 17.5345 140.707C17.7689 140.645 18.0052 140.613 18.2435 140.613C18.6302 140.613 18.9642 140.674 19.2454 140.795C19.5306 140.916 19.7669 141.086 19.9544 141.305C20.1419 141.52 20.2806 141.779 20.3704 142.084C20.4642 142.385 20.5111 142.719 20.5111 143.086V147H19.8607V143.174C19.8607 142.873 19.8255 142.602 19.7552 142.359C19.6849 142.113 19.5755 141.906 19.4271 141.738C19.2786 141.566 19.0892 141.436 18.8587 141.346C18.6322 141.252 18.3607 141.205 18.0443 141.205C17.7474 141.205 17.4701 141.256 17.2122 141.357C16.9544 141.459 16.7298 141.602 16.5384 141.785C16.3509 141.965 16.2025 142.182 16.0931 142.436C15.9837 142.689 15.929 142.967 15.929 143.268V147H15.2786V140.725Z" fill="#626F86"/>
<path d="M35.5726 138.422H40.6527V138.996H36.2933V142.395H39.7738V142.969H36.2933V147.012H35.5726V138.422ZM46.682 145.465C46.5687 145.75 46.4222 145.996 46.2425 146.203C46.0667 146.41 45.8636 146.582 45.6331 146.719C45.4066 146.852 45.1605 146.949 44.8949 147.012C44.6292 147.074 44.3519 147.105 44.0628 147.105C43.5824 147.105 43.1546 147.025 42.7796 146.865C42.4046 146.701 42.0882 146.477 41.8304 146.191C41.5726 145.906 41.3753 145.57 41.2386 145.184C41.1058 144.797 41.0394 144.379 41.0394 143.93C41.0394 143.488 41.1038 143.068 41.2327 142.67C41.3656 142.268 41.557 141.914 41.807 141.609C42.0609 141.305 42.3734 141.062 42.7445 140.883C43.1156 140.703 43.5413 140.613 44.0218 140.613C44.471 140.613 44.8636 140.693 45.1995 140.854C45.5394 141.01 45.8226 141.229 46.0492 141.51C46.2757 141.787 46.4456 142.113 46.5589 142.488C46.6722 142.863 46.7288 143.268 46.7288 143.701V143.906H41.7132C41.7171 144.281 41.764 144.631 41.8538 144.955C41.9437 145.279 42.0824 145.562 42.2699 145.805C42.4574 146.043 42.6976 146.232 42.9906 146.373C43.2835 146.51 43.6331 146.578 44.0394 146.578C44.2738 146.578 44.5023 146.553 44.7249 146.502C44.9476 146.451 45.1546 146.373 45.346 146.268C45.5374 146.162 45.7054 146.027 45.8499 145.863C45.9984 145.695 46.1156 145.494 46.2015 145.26L46.682 145.465ZM46.0902 143.438C46.0824 143.105 46.0335 142.799 45.9437 142.518C45.8577 142.232 45.7288 141.986 45.557 141.779C45.3851 141.572 45.1702 141.41 44.9124 141.293C44.6546 141.176 44.3538 141.117 44.0101 141.117C43.6585 141.117 43.346 141.178 43.0726 141.299C42.7992 141.42 42.5648 141.586 42.3695 141.797C42.1781 142.004 42.0277 142.248 41.9183 142.529C41.8089 142.811 41.7445 143.113 41.7249 143.438H46.0902ZM48.2113 137.76H48.8558V142.26C48.9613 142.01 49.1038 141.783 49.2835 141.58C49.4671 141.377 49.6722 141.205 49.8988 141.064C50.1292 140.92 50.3773 140.809 50.6429 140.73C50.9085 140.652 51.182 140.613 51.4632 140.613C51.8929 140.613 52.2796 140.703 52.6234 140.883C52.9671 141.062 53.2581 141.301 53.4964 141.598C53.7347 141.895 53.9163 142.236 54.0413 142.623C54.1702 143.006 54.2347 143.402 54.2347 143.812C54.2347 144.242 54.1761 144.656 54.0589 145.055C53.9417 145.449 53.766 145.799 53.5316 146.104C53.2972 146.408 53.0042 146.652 52.6527 146.836C52.305 147.016 51.8988 147.105 51.4339 147.105C51.1566 147.105 50.8851 147.07 50.6195 147C50.3577 146.93 50.1136 146.828 49.887 146.695C49.6605 146.559 49.4574 146.391 49.2777 146.191C49.1019 145.988 48.9613 145.756 48.8558 145.494V147H48.2113V137.76ZM51.2699 146.561C51.6527 146.561 51.9867 146.488 52.2718 146.344C52.5609 146.195 52.8011 145.998 52.9925 145.752C53.1839 145.506 53.3285 145.221 53.4261 144.896C53.5238 144.572 53.5726 144.232 53.5726 143.877C53.5726 143.529 53.5257 143.191 53.432 142.863C53.3382 142.535 53.1956 142.246 53.0042 141.996C52.8167 141.742 52.5804 141.539 52.2952 141.387C52.0101 141.234 51.6742 141.158 51.2874 141.158C50.9085 141.158 50.5687 141.232 50.2679 141.381C49.9671 141.525 49.7113 141.723 49.5003 141.973C49.2933 142.223 49.1331 142.512 49.0199 142.84C48.9105 143.168 48.8558 143.512 48.8558 143.871C48.8558 144.223 48.9085 144.561 49.014 144.885C49.1234 145.205 49.2796 145.49 49.4827 145.74C49.6898 145.99 49.9417 146.189 50.2386 146.338C50.5394 146.486 50.8831 146.561 51.2699 146.561Z" fill="#626F86"/>
<path d="M67.4788 138.422H68.4867L71.6449 146.004L74.8617 138.422H75.846V147H75.1253V139.307L71.8617 147H71.3695L68.141 139.307V147H67.4788V138.422ZM81.9222 146.039C81.805 146.23 81.6644 146.395 81.5003 146.531C81.3402 146.668 81.1663 146.779 80.9788 146.865C80.7913 146.947 80.5921 147.008 80.3812 147.047C80.1742 147.086 79.9613 147.105 79.7425 147.105C79.4574 147.105 79.1839 147.072 78.9222 147.006C78.6605 146.939 78.43 146.834 78.2308 146.689C78.0355 146.541 77.8792 146.354 77.762 146.127C77.6449 145.896 77.5863 145.621 77.5863 145.301C77.5863 145.004 77.6351 144.752 77.7327 144.545C77.8304 144.334 77.9632 144.16 78.1312 144.023C78.2992 143.883 78.4945 143.771 78.7171 143.689C78.9398 143.607 79.1742 143.547 79.4202 143.508C79.6702 143.465 79.9242 143.438 80.182 143.426C80.4437 143.414 80.6937 143.408 80.932 143.408H81.5589L81.9046 143.402C81.9046 143.07 81.8851 142.766 81.846 142.488C81.8109 142.211 81.7327 141.973 81.6117 141.773C81.4906 141.57 81.3128 141.414 81.0785 141.305C80.848 141.191 80.5394 141.135 80.1527 141.135C79.7074 141.135 79.3304 141.248 79.0218 141.475C78.7132 141.697 78.4945 142.023 78.3656 142.453L77.8499 142.236C78.0257 141.686 78.3167 141.277 78.723 141.012C79.1331 140.746 79.6195 140.613 80.182 140.613C80.6077 140.613 80.971 140.672 81.2718 140.789C81.5726 140.902 81.8167 141.068 82.0042 141.287C82.1956 141.506 82.3343 141.773 82.4202 142.09C82.5101 142.406 82.555 142.768 82.555 143.174V147H81.9222V146.039ZM80.4808 143.865C80.2308 143.865 79.973 143.881 79.7074 143.912C79.4417 143.939 79.1995 144.002 78.9808 144.1C78.766 144.197 78.5882 144.34 78.4476 144.527C78.307 144.715 78.2367 144.969 78.2367 145.289C78.2367 145.535 78.2796 145.742 78.3656 145.91C78.4554 146.078 78.5726 146.215 78.7171 146.32C78.8656 146.422 79.0374 146.494 79.2327 146.537C79.432 146.58 79.639 146.602 79.8538 146.602C80.0804 146.602 80.3148 146.57 80.557 146.508C80.7992 146.441 81.0199 146.344 81.2191 146.215C81.4183 146.082 81.5824 145.918 81.7113 145.723C81.8402 145.527 81.9046 145.301 81.9046 145.043V143.865H80.4808ZM84.4417 140.725H85.0863V142.143C85.2777 141.67 85.557 141.309 85.9242 141.059C86.2952 140.805 86.7367 140.674 87.2484 140.666V141.264C86.9046 141.275 86.598 141.34 86.3285 141.457C86.0628 141.57 85.8382 141.727 85.6546 141.926C85.471 142.125 85.3304 142.363 85.2327 142.641C85.1351 142.918 85.0863 143.227 85.0863 143.566V147H84.4417V140.725Z" fill="#626F86"/>
<path d="M103.048 138.422H103.997L107.126 147H106.382L105.533 144.65H101.466L100.611 147H99.9427L103.048 138.422ZM105.351 144.105L103.493 138.996L101.642 144.105H105.351ZM108.562 140.725H109.206V142.225C109.32 141.982 109.466 141.762 109.646 141.562C109.829 141.363 110.035 141.193 110.261 141.053C110.488 140.912 110.732 140.805 110.993 140.73C111.259 140.652 111.531 140.613 111.808 140.613C112.242 140.613 112.628 140.703 112.968 140.883C113.312 141.062 113.603 141.301 113.841 141.598C114.083 141.895 114.267 142.236 114.392 142.623C114.521 143.006 114.585 143.402 114.585 143.812C114.585 144.242 114.527 144.656 114.41 145.055C114.292 145.449 114.117 145.799 113.882 146.104C113.652 146.408 113.361 146.652 113.009 146.836C112.661 147.016 112.255 147.105 111.79 147.105C111.517 147.105 111.247 147.07 110.982 147C110.72 146.934 110.476 146.834 110.249 146.701C110.023 146.568 109.82 146.404 109.64 146.209C109.46 146.014 109.316 145.787 109.206 145.529V149.338H108.562V140.725ZM111.615 146.561C111.997 146.561 112.331 146.488 112.617 146.344C112.906 146.195 113.146 145.998 113.337 145.752C113.533 145.506 113.679 145.221 113.777 144.896C113.874 144.572 113.923 144.232 113.923 143.877C113.923 143.529 113.876 143.191 113.783 142.863C113.689 142.535 113.546 142.246 113.355 141.996C113.167 141.742 112.931 141.539 112.646 141.387C112.361 141.234 112.025 141.158 111.638 141.158C111.259 141.158 110.919 141.232 110.618 141.381C110.318 141.529 110.062 141.729 109.851 141.979C109.644 142.225 109.484 142.512 109.37 142.84C109.261 143.168 109.206 143.514 109.206 143.877C109.206 144.229 109.259 144.566 109.365 144.891C109.47 145.211 109.624 145.496 109.827 145.746C110.031 145.992 110.283 146.189 110.583 146.338C110.884 146.486 111.228 146.561 111.615 146.561ZM116.085 140.725H116.73V142.143C116.921 141.67 117.201 141.309 117.568 141.059C117.939 140.805 118.38 140.674 118.892 140.666V141.264C118.548 141.275 118.242 141.34 117.972 141.457C117.706 141.57 117.482 141.727 117.298 141.926C117.115 142.125 116.974 142.363 116.876 142.641C116.779 142.918 116.73 143.227 116.73 143.566V147H116.085V140.725Z" fill="#626F86"/>
<path d="M131.428 138.422H132.436L135.594 146.004L138.811 138.422H139.795V147H139.075V139.307L135.811 147H135.319L132.09 139.307V147H131.428V138.422ZM145.871 146.039C145.754 146.23 145.614 146.395 145.45 146.531C145.289 146.668 145.116 146.779 144.928 146.865C144.741 146.947 144.541 147.008 144.33 147.047C144.123 147.086 143.91 147.105 143.692 147.105C143.407 147.105 143.133 147.072 142.871 147.006C142.61 146.939 142.379 146.834 142.18 146.689C141.985 146.541 141.828 146.354 141.711 146.127C141.594 145.896 141.535 145.621 141.535 145.301C141.535 145.004 141.584 144.752 141.682 144.545C141.78 144.334 141.912 144.16 142.08 144.023C142.248 143.883 142.444 143.771 142.666 143.689C142.889 143.607 143.123 143.547 143.369 143.508C143.619 143.465 143.873 143.438 144.131 143.426C144.393 143.414 144.643 143.408 144.881 143.408H145.508L145.854 143.402C145.854 143.07 145.834 142.766 145.795 142.488C145.76 142.211 145.682 141.973 145.561 141.773C145.44 141.57 145.262 141.414 145.028 141.305C144.797 141.191 144.489 141.135 144.102 141.135C143.657 141.135 143.28 141.248 142.971 141.475C142.662 141.697 142.444 142.023 142.315 142.453L141.799 142.236C141.975 141.686 142.266 141.277 142.672 141.012C143.082 140.746 143.569 140.613 144.131 140.613C144.557 140.613 144.92 140.672 145.221 140.789C145.522 140.902 145.766 141.068 145.953 141.287C146.145 141.506 146.284 141.773 146.369 142.09C146.459 142.406 146.504 142.768 146.504 143.174V147H145.871V146.039ZM144.43 143.865C144.18 143.865 143.922 143.881 143.657 143.912C143.391 143.939 143.149 144.002 142.93 144.1C142.715 144.197 142.537 144.34 142.397 144.527C142.256 144.715 142.186 144.969 142.186 145.289C142.186 145.535 142.229 145.742 142.315 145.91C142.405 146.078 142.522 146.215 142.666 146.32C142.815 146.422 142.987 146.494 143.182 146.537C143.381 146.58 143.588 146.602 143.803 146.602C144.03 146.602 144.264 146.57 144.506 146.508C144.748 146.441 144.969 146.344 145.168 146.215C145.368 146.082 145.532 145.918 145.66 145.723C145.789 145.527 145.854 145.301 145.854 145.043V143.865H144.43ZM150.049 146.496L147.647 140.725H148.356L150.383 145.775L152.422 140.725H153.084L149.522 149.338H148.871L150.049 146.496Z" fill="#626F86"/>
<path d="M165.209 146.232C165.397 146.311 165.588 146.377 165.784 146.432C165.983 146.482 166.198 146.508 166.428 146.508C166.963 146.508 167.35 146.355 167.588 146.051C167.826 145.746 167.946 145.326 167.946 144.791V138.422H168.666V144.803C168.666 145.529 168.487 146.094 168.127 146.496C167.768 146.895 167.223 147.094 166.493 147.094C166.266 147.094 166.043 147.072 165.825 147.029C165.61 146.986 165.405 146.916 165.209 146.818V146.232ZM175.082 145.787C174.989 146.01 174.862 146.205 174.701 146.373C174.541 146.537 174.36 146.674 174.157 146.783C173.957 146.893 173.743 146.973 173.512 147.023C173.282 147.078 173.051 147.105 172.821 147.105C172.438 147.105 172.104 147.051 171.819 146.941C171.534 146.832 171.297 146.674 171.11 146.467C170.922 146.26 170.782 146.01 170.688 145.717C170.594 145.42 170.547 145.084 170.547 144.709V140.725H171.203V144.639C171.203 145.24 171.35 145.711 171.643 146.051C171.936 146.387 172.391 146.555 173.008 146.555C173.305 146.555 173.578 146.506 173.828 146.408C174.082 146.307 174.301 146.166 174.485 145.986C174.672 145.807 174.819 145.592 174.924 145.342C175.03 145.092 175.082 144.816 175.082 144.516V140.725H175.739V147H175.082V145.787ZM177.672 140.725H178.323V142.02C178.416 141.789 178.545 141.586 178.709 141.41C178.873 141.234 179.059 141.088 179.266 140.971C179.473 140.854 179.694 140.766 179.928 140.707C180.162 140.645 180.399 140.613 180.637 140.613C181.024 140.613 181.358 140.674 181.639 140.795C181.924 140.916 182.16 141.086 182.348 141.305C182.535 141.52 182.674 141.779 182.764 142.084C182.858 142.385 182.905 142.719 182.905 143.086V147H182.254V143.174C182.254 142.873 182.219 142.602 182.149 142.359C182.078 142.113 181.969 141.906 181.821 141.738C181.672 141.566 181.483 141.436 181.252 141.346C181.026 141.252 180.754 141.205 180.438 141.205C180.141 141.205 179.864 141.256 179.606 141.357C179.348 141.459 179.123 141.602 178.932 141.785C178.744 141.965 178.596 142.182 178.487 142.436C178.377 142.689 178.323 142.967 178.323 143.268V147H177.672V140.725Z" fill="#626F86"/>
<path d="M199.314 145.799C199.493 145.865 199.675 145.922 199.859 145.969C200.046 146.016 200.24 146.039 200.439 146.039C200.681 146.039 200.886 146 201.054 145.922C201.222 145.844 201.359 145.736 201.464 145.6C201.57 145.463 201.646 145.299 201.693 145.107C201.74 144.916 201.763 144.707 201.763 144.48V138.422H203.117V144.527C203.117 145.363 202.906 146.004 202.484 146.449C202.062 146.895 201.425 147.117 200.574 147.117C200.359 147.117 200.144 147.1 199.929 147.064C199.718 147.029 199.513 146.963 199.314 146.865V145.799ZM209.163 146.004C208.976 146.387 208.701 146.668 208.337 146.848C207.978 147.027 207.577 147.117 207.136 147.117C206.773 147.117 206.452 147.061 206.175 146.947C205.898 146.834 205.663 146.674 205.472 146.467C205.285 146.256 205.142 146.004 205.044 145.711C204.951 145.414 204.904 145.084 204.904 144.721V140.725H206.134V144.609C206.134 145.094 206.251 145.461 206.486 145.711C206.72 145.961 207.07 146.086 207.535 146.086C207.792 146.086 208.021 146.049 208.22 145.975C208.423 145.896 208.593 145.787 208.73 145.646C208.87 145.506 208.978 145.338 209.052 145.143C209.126 144.947 209.163 144.73 209.163 144.492V140.725H210.394V147H209.163V146.004ZM212.269 138.322L213.517 137.771V147H212.269V138.322Z" fill="#2C8C53"/>
<path d="M231.309 138.422H232.258L235.387 147H234.643L233.793 144.65H229.727L228.871 147H228.203L231.309 138.422ZM233.612 144.105L231.754 138.996L229.903 144.105H233.612ZM241.299 145.787C241.205 146.01 241.078 146.205 240.918 146.373C240.758 146.537 240.576 146.674 240.373 146.783C240.174 146.893 239.959 146.973 239.729 147.023C239.498 147.078 239.268 147.105 239.037 147.105C238.655 147.105 238.321 147.051 238.035 146.941C237.75 146.832 237.514 146.674 237.326 146.467C237.139 146.26 236.998 146.01 236.905 145.717C236.811 145.42 236.764 145.084 236.764 144.709V140.725H237.42V144.639C237.42 145.24 237.567 145.711 237.86 146.051C238.153 146.387 238.608 146.555 239.225 146.555C239.522 146.555 239.795 146.506 240.045 146.408C240.299 146.307 240.518 146.166 240.701 145.986C240.889 145.807 241.035 145.592 241.141 145.342C241.246 145.092 241.299 144.816 241.299 144.516V140.725H241.955V147H241.299V145.787ZM244.118 147.457C244.207 147.707 244.334 147.92 244.498 148.096C244.666 148.271 244.858 148.414 245.073 148.523C245.287 148.633 245.516 148.711 245.758 148.758C246 148.809 246.243 148.834 246.485 148.834C246.848 148.834 247.172 148.781 247.457 148.676C247.743 148.574 247.983 148.424 248.178 148.225C248.377 148.029 248.528 147.789 248.629 147.504C248.731 147.223 248.782 146.902 248.782 146.543V145.236C248.688 145.482 248.551 145.697 248.371 145.881C248.192 146.064 247.987 146.219 247.756 146.344C247.53 146.465 247.285 146.557 247.024 146.619C246.762 146.682 246.5 146.713 246.239 146.713C245.821 146.713 245.438 146.639 245.09 146.49C244.746 146.342 244.45 146.137 244.2 145.875C243.953 145.609 243.762 145.295 243.625 144.932C243.489 144.568 243.42 144.174 243.42 143.748C243.42 143.318 243.489 142.914 243.625 142.535C243.766 142.156 243.963 141.824 244.217 141.539C244.475 141.254 244.785 141.029 245.149 140.865C245.512 140.697 245.916 140.613 246.362 140.613C246.627 140.613 246.881 140.641 247.123 140.695C247.366 140.746 247.59 140.83 247.797 140.947C248.008 141.061 248.196 141.207 248.36 141.387C248.528 141.562 248.668 141.777 248.782 142.031V140.725H249.432V146.578C249.432 147.035 249.362 147.436 249.221 147.779C249.084 148.127 248.889 148.416 248.635 148.646C248.381 148.881 248.073 149.057 247.709 149.174C247.35 149.291 246.948 149.35 246.502 149.35C246.205 149.35 245.905 149.32 245.6 149.262C245.299 149.207 245.018 149.113 244.756 148.98C244.494 148.848 244.26 148.674 244.053 148.459C243.85 148.248 243.696 147.986 243.59 147.674L244.118 147.457ZM246.373 146.197C246.737 146.197 247.069 146.135 247.369 146.01C247.674 145.885 247.934 145.713 248.149 145.494C248.368 145.275 248.535 145.016 248.653 144.715C248.774 144.414 248.834 144.088 248.834 143.736C248.834 143.377 248.784 143.041 248.682 142.729C248.58 142.416 248.43 142.145 248.231 141.914C248.032 141.68 247.787 141.496 247.498 141.363C247.209 141.227 246.877 141.158 246.502 141.158C246.135 141.158 245.803 141.223 245.506 141.352C245.209 141.48 244.955 141.658 244.744 141.885C244.537 142.111 244.377 142.379 244.264 142.688C244.151 142.992 244.094 143.322 244.094 143.678C244.094 144.037 244.143 144.371 244.241 144.68C244.342 144.984 244.489 145.25 244.68 145.477C244.875 145.703 245.114 145.881 245.395 146.01C245.68 146.135 246.006 146.197 246.373 146.197Z" fill="#626F86"/>
<path d="M261.838 144.621C262.049 145.277 262.373 145.76 262.811 146.068C263.248 146.377 263.809 146.531 264.493 146.531C264.77 146.531 265.039 146.494 265.301 146.42C265.567 146.346 265.803 146.232 266.01 146.08C266.217 145.928 266.383 145.734 266.508 145.5C266.637 145.266 266.701 144.99 266.701 144.674C266.701 144.342 266.633 144.07 266.496 143.859C266.36 143.648 266.178 143.475 265.951 143.338C265.725 143.197 265.465 143.086 265.172 143.004C264.883 142.922 264.584 142.844 264.276 142.77C263.948 142.691 263.625 142.605 263.309 142.512C262.993 142.418 262.709 142.291 262.459 142.131C262.209 141.971 262.006 141.766 261.85 141.516C261.698 141.262 261.621 140.936 261.621 140.537C261.621 140.135 261.7 139.793 261.856 139.512C262.016 139.23 262.223 139.002 262.477 138.826C262.735 138.65 263.026 138.523 263.35 138.445C263.678 138.363 264.01 138.322 264.346 138.322C264.678 138.322 264.989 138.359 265.278 138.434C265.571 138.508 265.836 138.623 266.075 138.779C266.313 138.932 266.52 139.125 266.696 139.359C266.871 139.594 267.008 139.871 267.106 140.191L266.567 140.42C266.41 139.881 266.143 139.49 265.764 139.248C265.385 139.006 264.92 138.885 264.369 138.885C264.104 138.885 263.848 138.914 263.602 138.973C263.356 139.027 263.137 139.121 262.946 139.254C262.754 139.383 262.602 139.553 262.489 139.764C262.375 139.971 262.319 140.227 262.319 140.531C262.319 140.82 262.381 141.059 262.506 141.246C262.635 141.434 262.805 141.588 263.016 141.709C263.231 141.826 263.475 141.924 263.748 142.002C264.026 142.076 264.313 142.146 264.61 142.213C264.946 142.287 265.28 142.373 265.612 142.471C265.948 142.564 266.246 142.695 266.508 142.863C266.774 143.031 266.989 143.252 267.153 143.525C267.317 143.795 267.399 144.146 267.399 144.58C267.399 145.002 267.319 145.371 267.159 145.688C266.998 146 266.784 146.262 266.514 146.473C266.248 146.68 265.94 146.836 265.588 146.941C265.241 147.043 264.875 147.094 264.493 147.094C263.7 147.094 263.032 146.916 262.489 146.561C261.946 146.205 261.545 145.645 261.287 144.879L261.838 144.621ZM274.166 145.465C274.053 145.75 273.907 145.996 273.727 146.203C273.551 146.41 273.348 146.582 273.118 146.719C272.891 146.852 272.645 146.949 272.379 147.012C272.114 147.074 271.836 147.105 271.547 147.105C271.067 147.105 270.639 147.025 270.264 146.865C269.889 146.701 269.573 146.477 269.315 146.191C269.057 145.906 268.86 145.57 268.723 145.184C268.59 144.797 268.524 144.379 268.524 143.93C268.524 143.488 268.588 143.068 268.717 142.67C268.85 142.268 269.041 141.914 269.291 141.609C269.545 141.305 269.858 141.062 270.229 140.883C270.6 140.703 271.026 140.613 271.506 140.613C271.955 140.613 272.348 140.693 272.684 140.854C273.024 141.01 273.307 141.229 273.534 141.51C273.76 141.787 273.93 142.113 274.043 142.488C274.157 142.863 274.213 143.268 274.213 143.701V143.906H269.198C269.201 144.281 269.248 144.631 269.338 144.955C269.428 145.279 269.567 145.562 269.754 145.805C269.942 146.043 270.182 146.232 270.475 146.373C270.768 146.51 271.118 146.578 271.524 146.578C271.758 146.578 271.987 146.553 272.209 146.502C272.432 146.451 272.639 146.373 272.83 146.268C273.022 146.162 273.19 146.027 273.334 145.863C273.483 145.695 273.6 145.494 273.686 145.26L274.166 145.465ZM273.575 143.438C273.567 143.105 273.518 142.799 273.428 142.518C273.342 142.232 273.213 141.986 273.041 141.779C272.869 141.572 272.655 141.41 272.397 141.293C272.139 141.176 271.838 141.117 271.494 141.117C271.143 141.117 270.83 141.178 270.557 141.299C270.284 141.42 270.049 141.586 269.854 141.797C269.662 142.004 269.512 142.248 269.403 142.529C269.293 142.811 269.229 143.113 269.209 143.438H273.575ZM275.696 140.725H276.34V142.225C276.453 141.982 276.6 141.762 276.78 141.562C276.963 141.363 277.168 141.193 277.395 141.053C277.621 140.912 277.866 140.805 278.127 140.73C278.393 140.652 278.664 140.613 278.942 140.613C279.375 140.613 279.762 140.703 280.102 140.883C280.446 141.062 280.737 141.301 280.975 141.598C281.217 141.895 281.401 142.236 281.526 142.623C281.655 143.006 281.719 143.402 281.719 143.812C281.719 144.242 281.66 144.656 281.543 145.055C281.426 145.449 281.25 145.799 281.016 146.104C280.785 146.408 280.494 146.652 280.143 146.836C279.795 147.016 279.389 147.105 278.924 147.105C278.651 147.105 278.381 147.07 278.116 147C277.854 146.934 277.61 146.834 277.383 146.701C277.157 146.568 276.953 146.404 276.774 146.209C276.594 146.014 276.45 145.787 276.34 145.529V149.338H275.696V140.725ZM278.748 146.561C279.131 146.561 279.465 146.488 279.75 146.344C280.039 146.195 280.28 145.998 280.471 145.752C280.666 145.506 280.813 145.221 280.91 144.896C281.008 144.572 281.057 144.232 281.057 143.877C281.057 143.529 281.01 143.191 280.916 142.863C280.823 142.535 280.68 142.246 280.489 141.996C280.301 141.742 280.065 141.539 279.78 141.387C279.494 141.234 279.159 141.158 278.772 141.158C278.393 141.158 278.053 141.232 277.752 141.381C277.451 141.529 277.196 141.729 276.985 141.979C276.778 142.225 276.618 142.512 276.504 142.84C276.395 143.168 276.34 143.514 276.34 143.877C276.34 144.229 276.393 144.566 276.498 144.891C276.604 145.211 276.758 145.496 276.961 145.746C277.164 145.992 277.416 146.189 277.717 146.338C278.018 146.486 278.362 146.561 278.748 146.561Z" fill="#626F86"/>
<path d="M298.544 147.094C297.931 147.094 297.365 146.98 296.845 146.754C296.329 146.527 295.882 146.219 295.503 145.828C295.128 145.434 294.835 144.971 294.624 144.439C294.413 143.908 294.308 143.338 294.308 142.729C294.308 142.131 294.41 141.564 294.613 141.029C294.82 140.494 295.109 140.027 295.48 139.629C295.855 139.227 296.3 138.908 296.816 138.674C297.335 138.439 297.908 138.322 298.533 138.322C299.142 138.322 299.704 138.436 300.22 138.662C300.736 138.885 301.179 139.191 301.55 139.582C301.921 139.973 302.21 140.434 302.417 140.965C302.628 141.496 302.734 142.066 302.734 142.676C302.734 143.273 302.632 143.84 302.429 144.375C302.23 144.91 301.947 145.379 301.579 145.781C301.212 146.184 300.771 146.504 300.255 146.742C299.74 146.977 299.169 147.094 298.544 147.094ZM298.533 146.496C299.068 146.496 299.548 146.395 299.974 146.191C300.4 145.984 300.761 145.707 301.058 145.359C301.359 145.012 301.589 144.607 301.749 144.146C301.91 143.686 301.99 143.199 301.99 142.688C301.99 142.18 301.91 141.699 301.749 141.246C301.593 140.789 301.367 140.389 301.07 140.045C300.777 139.701 300.417 139.428 299.992 139.225C299.566 139.021 299.083 138.92 298.544 138.92C298.005 138.92 297.521 139.021 297.091 139.225C296.661 139.424 296.294 139.697 295.99 140.045C295.689 140.389 295.456 140.789 295.292 141.246C295.132 141.699 295.052 142.182 295.052 142.693C295.052 143.201 295.132 143.686 295.292 144.146C295.456 144.607 295.689 145.012 295.99 145.359C296.29 145.707 296.656 145.984 297.085 146.191C297.515 146.395 297.997 146.496 298.533 146.496ZM309.577 145.072C309.484 145.393 309.351 145.68 309.179 145.934C309.011 146.184 308.81 146.396 308.576 146.572C308.345 146.744 308.085 146.877 307.796 146.971C307.507 147.061 307.197 147.105 306.865 147.105C306.408 147.105 305.993 147.021 305.622 146.854C305.251 146.686 304.935 146.455 304.673 146.162C304.415 145.869 304.216 145.527 304.076 145.137C303.935 144.742 303.865 144.32 303.865 143.871C303.865 143.43 303.933 143.012 304.07 142.617C304.206 142.223 304.404 141.877 304.661 141.58C304.919 141.283 305.234 141.049 305.605 140.877C305.98 140.701 306.404 140.613 306.876 140.613C307.505 140.613 308.048 140.771 308.505 141.088C308.962 141.404 309.292 141.863 309.495 142.465L308.951 142.705C308.818 142.193 308.574 141.809 308.218 141.551C307.867 141.289 307.435 141.158 306.923 141.158C306.536 141.158 306.193 141.23 305.892 141.375C305.595 141.52 305.345 141.715 305.142 141.961C304.939 142.207 304.785 142.494 304.679 142.822C304.577 143.146 304.527 143.49 304.527 143.854C304.527 144.205 304.576 144.545 304.673 144.873C304.771 145.197 304.917 145.484 305.113 145.734C305.312 145.984 305.558 146.186 305.851 146.338C306.144 146.486 306.484 146.561 306.87 146.561C307.148 146.561 307.406 146.521 307.644 146.443C307.882 146.361 308.095 146.246 308.283 146.098C308.474 145.949 308.636 145.77 308.769 145.559C308.902 145.344 309.003 145.105 309.074 144.844L309.577 145.072ZM313.685 146.953C313.411 147.047 313.124 147.094 312.824 147.094C312.558 147.094 312.327 147.057 312.132 146.982C311.941 146.904 311.781 146.795 311.652 146.654C311.527 146.51 311.433 146.336 311.37 146.133C311.308 145.926 311.277 145.695 311.277 145.441L311.288 141.229H310.363V140.725H311.288V139.312L311.933 139.031V140.725H313.615V141.229H311.933V145.395C311.933 145.559 311.951 145.711 311.986 145.852C312.021 145.992 312.079 146.113 312.161 146.215C312.243 146.316 312.349 146.396 312.478 146.455C312.607 146.514 312.765 146.543 312.952 146.543C313.183 146.543 313.427 146.5 313.685 146.414V146.953Z" fill="#626F86"/>
<path d="M326.444 138.422H327.369L332.338 145.992V138.422H333.012V147H332.221L327.118 139.236V147H326.444V138.422ZM337.711 147.105C337.254 147.105 336.836 147.021 336.457 146.854C336.082 146.686 335.76 146.455 335.491 146.162C335.221 145.869 335.012 145.527 334.864 145.137C334.715 144.742 334.641 144.32 334.641 143.871C334.641 143.43 334.713 143.014 334.858 142.623C335.006 142.229 335.213 141.885 335.479 141.592C335.748 141.295 336.073 141.061 336.451 140.889C336.83 140.717 337.252 140.631 337.717 140.631C338.17 140.631 338.582 140.715 338.953 140.883C339.328 141.047 339.649 141.273 339.914 141.562C340.18 141.852 340.385 142.191 340.53 142.582C340.674 142.973 340.746 143.393 340.746 143.842C340.746 144.287 340.674 144.707 340.53 145.102C340.389 145.496 340.186 145.842 339.92 146.139C339.659 146.436 339.34 146.672 338.965 146.848C338.594 147.02 338.176 147.105 337.711 147.105ZM337.7 146.566C338.082 146.566 338.42 146.494 338.713 146.35C339.01 146.205 339.258 146.01 339.457 145.764C339.66 145.514 339.815 145.225 339.92 144.896C340.026 144.568 340.078 144.221 340.078 143.854C340.078 143.502 340.028 143.164 339.926 142.84C339.828 142.512 339.682 142.225 339.487 141.979C339.291 141.729 339.045 141.529 338.748 141.381C338.455 141.232 338.112 141.158 337.717 141.158C337.338 141.158 336.998 141.23 336.698 141.375C336.401 141.516 336.149 141.709 335.942 141.955C335.735 142.197 335.576 142.482 335.467 142.811C335.362 143.135 335.309 143.48 335.309 143.848C335.309 144.203 335.36 144.545 335.461 144.873C335.563 145.197 335.713 145.486 335.912 145.74C336.116 145.99 336.366 146.191 336.662 146.344C336.963 146.492 337.309 146.566 337.7 146.566ZM341.491 140.725H342.2L344.326 146.338L346.424 140.725H347.075L344.696 147H343.893L341.491 140.725Z" fill="#626F86"/>
<path d="M358.889 138.422H361.473C362.129 138.422 362.719 138.52 363.243 138.715C363.77 138.906 364.219 139.186 364.59 139.553C364.961 139.916 365.246 140.359 365.446 140.883C365.645 141.406 365.744 141.996 365.744 142.652C365.744 143.328 365.649 143.936 365.457 144.475C365.266 145.01 364.987 145.465 364.619 145.84C364.252 146.215 363.801 146.502 363.266 146.701C362.735 146.9 362.129 147 361.45 147H358.889V138.422ZM361.414 146.414C361.993 146.414 362.504 146.328 362.95 146.156C363.395 145.984 363.77 145.738 364.075 145.418C364.379 145.094 364.61 144.701 364.766 144.24C364.922 143.775 365 143.254 365 142.676C365 142.105 364.924 141.594 364.772 141.141C364.619 140.688 364.391 140.303 364.086 139.986C363.785 139.67 363.41 139.428 362.961 139.26C362.512 139.092 361.991 139.008 361.397 139.008H359.61V146.414H361.414ZM372.506 145.465C372.393 145.75 372.246 145.996 372.067 146.203C371.891 146.41 371.688 146.582 371.457 146.719C371.231 146.852 370.985 146.949 370.719 147.012C370.453 147.074 370.176 147.105 369.887 147.105C369.407 147.105 368.979 147.025 368.604 146.865C368.229 146.701 367.912 146.477 367.655 146.191C367.397 145.906 367.2 145.57 367.063 145.184C366.93 144.797 366.864 144.379 366.864 143.93C366.864 143.488 366.928 143.068 367.057 142.67C367.19 142.268 367.381 141.914 367.631 141.609C367.885 141.305 368.198 141.062 368.569 140.883C368.94 140.703 369.366 140.613 369.846 140.613C370.295 140.613 370.688 140.693 371.024 140.854C371.364 141.01 371.647 141.229 371.873 141.51C372.1 141.787 372.27 142.113 372.383 142.488C372.496 142.863 372.553 143.268 372.553 143.701V143.906H367.537C367.541 144.281 367.588 144.631 367.678 144.955C367.768 145.279 367.907 145.562 368.094 145.805C368.282 146.043 368.522 146.232 368.815 146.373C369.108 146.51 369.457 146.578 369.864 146.578C370.098 146.578 370.326 146.553 370.549 146.502C370.772 146.451 370.979 146.373 371.17 146.268C371.362 146.162 371.53 146.027 371.674 145.863C371.823 145.695 371.94 145.494 372.026 145.26L372.506 145.465ZM371.914 143.438C371.907 143.105 371.858 142.799 371.768 142.518C371.682 142.232 371.553 141.986 371.381 141.779C371.209 141.572 370.994 141.41 370.737 141.293C370.479 141.176 370.178 141.117 369.834 141.117C369.483 141.117 369.17 141.178 368.897 141.299C368.623 141.42 368.389 141.586 368.194 141.797C368.002 142.004 367.852 142.248 367.743 142.529C367.633 142.811 367.569 143.113 367.549 143.438H371.914ZM379.303 145.072C379.209 145.393 379.076 145.68 378.905 145.934C378.737 146.184 378.535 146.396 378.301 146.572C378.071 146.744 377.811 146.877 377.522 146.971C377.233 147.061 376.922 147.105 376.59 147.105C376.133 147.105 375.719 147.021 375.348 146.854C374.977 146.686 374.66 146.455 374.399 146.162C374.141 145.869 373.942 145.527 373.801 145.137C373.66 144.742 373.59 144.32 373.59 143.871C373.59 143.43 373.659 143.012 373.795 142.617C373.932 142.223 374.129 141.877 374.387 141.58C374.645 141.283 374.959 141.049 375.33 140.877C375.705 140.701 376.129 140.613 376.602 140.613C377.231 140.613 377.774 140.771 378.231 141.088C378.688 141.404 379.018 141.863 379.221 142.465L378.676 142.705C378.543 142.193 378.299 141.809 377.944 141.551C377.592 141.289 377.16 141.158 376.649 141.158C376.262 141.158 375.918 141.23 375.618 141.375C375.321 141.52 375.071 141.715 374.868 141.961C374.664 142.207 374.51 142.494 374.405 142.822C374.303 143.146 374.252 143.49 374.252 143.854C374.252 144.205 374.301 144.545 374.399 144.873C374.496 145.197 374.643 145.484 374.838 145.734C375.037 145.984 375.284 146.186 375.576 146.338C375.869 146.486 376.209 146.561 376.596 146.561C376.873 146.561 377.131 146.521 377.369 146.443C377.608 146.361 377.821 146.246 378.008 146.098C378.2 145.949 378.362 145.77 378.494 145.559C378.627 145.344 378.729 145.105 378.799 144.844L379.303 145.072Z" fill="#626F86"/>
</svg>
