<svg width="115" height="117" viewBox="0 0 115 117" fill="none" xmlns="http://www.w3.org/2000/svg">
<g clip-path="url(#clip0_298_7599)">
<g clip-path="url(#clip1_298_7599)">
<path d="M47.1064 56.859H67.9419L115 -30H94.1653L47.1064 56.859Z" fill="url(#paint0_linear_298_7599)"/>
<path d="M69.7866 64.1441H72.1179V58.3152C72.1179 55.6309 70.7057 54.3789 67.6736 54.3789H57.5479V56.714H67.6736C69.7871 56.714 69.7871 57.2846 69.7871 58.3152V64.1441H69.7866Z" fill="url(#paint1_linear_298_7599)"/>
<path opacity="0.8" d="M67.6736 54.3789H57.5479V56.714H67.6736C69.7871 56.714 69.7871 57.2846 69.7871 58.3152V64.1441H72.1184V58.3152C72.1179 55.6309 70.7057 54.3789 67.6736 54.3789ZM71.6798 59.8705C71.6798 60.8187 70.3931 60.8408 70.3931 60.0173C70.3931 59.7742 70.3931 59.2396 70.3931 57.7827C70.3931 56.3257 69.0102 56.1815 68.5232 56.081C68.0382 55.9847 67.8672 55.9847 67.5048 55.2812C67.1392 54.5756 67.4806 54.6102 68.5232 54.6725C70.9518 54.8172 71.6067 56.4204 71.6566 57.2965C71.7029 58.1566 71.6798 58.9224 71.6798 59.8705Z" fill="url(#paint2_radial_298_7599)"/>
<path opacity="0.7" d="M67.6738 54.8168C67.6738 54.8168 69.084 54.7926 69.9567 55.1083C70.8304 55.4235 71.3659 56.1533 71.4864 57.4913C71.5966 58.699 71.5116 60.4774 71.5116 60.4774C71.5116 60.4774 71.4133 58.5322 71.318 57.805C71.2197 57.0757 70.8788 55.5703 69.7389 55.2309C68.5959 54.891 67.6738 54.8168 67.6738 54.8168Z" fill="url(#paint3_radial_298_7599)"/>
<path opacity="0.8" d="M67.8252 56.4209C67.8252 56.4209 67.9544 56.4209 68.1794 56.4348C68.2927 56.4451 68.4296 56.4569 68.5872 56.475C68.7437 56.4971 68.9198 56.5234 69.1123 56.5857C69.1618 56.6017 69.2086 56.6176 69.2601 56.6377C69.3065 56.6578 69.3512 56.6841 69.3976 56.7083C69.4897 56.7624 69.5896 56.835 69.6689 56.921C69.8326 57.0878 69.9655 57.3108 70.0206 57.5596C70.0576 57.6781 70.0679 57.8068 70.0921 57.9356C70.0983 58.0602 70.105 58.1926 70.1132 58.3213C70.1163 58.5747 70.1174 58.8337 70.1205 59.0892C70.1174 59.3462 70.1163 59.6073 70.1132 59.8566C70.1102 59.9853 70.1102 60.11 70.1091 60.2346C70.0983 60.3695 70.123 60.4555 70.1704 60.54C70.2729 60.7249 70.4597 60.8572 70.6564 60.8856L70.7301 60.8959C70.7409 60.9 70.7579 60.9021 70.7609 60.9021L71.2681 60.9C71.3211 60.8959 71.3783 60.9 71.4174 60.882C71.4617 60.8742 71.5039 60.8701 71.541 60.8418C71.5791 60.8217 71.6172 60.8016 71.6414 60.7656C71.7659 60.6451 71.8092 60.4684 71.853 60.3237C71.8833 60.1733 71.9101 60.0404 71.9194 59.9276C71.9405 59.7026 71.9523 59.5738 71.9523 59.5738C71.9523 59.5738 71.9544 59.7046 71.9616 59.9318C71.9616 60.0425 71.9503 60.181 71.9333 60.3376C71.9024 60.4926 71.8797 60.6873 71.7315 60.85C71.7011 60.8964 71.6553 60.9263 71.6048 60.9566C71.5574 60.9927 71.5003 61.0071 71.4421 61.0251C71.3819 61.0432 71.3324 61.0432 71.2784 61.0493L71.2392 61.0535C71.214 61.0555 70.7398 61.0493 70.7228 61.0493L70.6327 61.0432C70.3887 61.019 70.1426 60.8784 70.0051 60.6353C69.9279 60.5127 69.9027 60.3479 69.913 60.2351C69.913 60.1105 69.9099 59.9858 69.9088 59.8571C69.9047 59.6078 69.9027 59.3467 69.9016 59.0897C69.9027 58.8348 69.9068 58.5752 69.9088 58.3218C69.9047 58.1972 69.9006 58.0746 69.897 57.9541C69.8749 57.8377 69.8707 57.7172 69.8378 57.6085C69.7863 57.3814 69.688 57.1826 69.5556 57.0276C69.4861 56.9452 69.4099 56.8891 69.3307 56.8309C69.2843 56.8046 69.2411 56.7768 69.1968 56.7546C69.1546 56.7366 69.1124 56.7165 69.0712 56.7006C68.7175 56.5739 68.3952 56.5177 68.1743 56.4791C67.9534 56.443 67.8252 56.4209 67.8252 56.4209Z" fill="url(#paint4_linear_298_7599)"/>
<path d="M45.8943 64.1441H43.5625V58.3152C43.5625 55.6309 44.9748 54.3789 48.0058 54.3789H58.1315V56.714H48.0058C45.8943 56.714 45.8943 57.2846 45.8943 58.3152V64.1441Z" fill="url(#paint5_linear_298_7599)"/>
<path opacity="0.8" d="M43.5625 58.3152V64.1441H45.8943V58.3152C45.8943 57.2846 45.8943 56.714 48.0058 56.714H58.1315V54.3789H48.0058C44.9742 54.3789 43.5625 55.6309 43.5625 58.3152ZM44.0233 57.2965C44.0727 56.4204 44.7281 54.8172 47.1547 54.6725C48.1983 54.6102 48.5407 54.5762 48.1751 55.2812C47.8106 55.9847 47.6407 55.9847 47.1547 56.081C46.6697 56.1815 45.2857 56.3262 45.2857 57.7827C45.2857 59.2391 45.2857 59.7742 45.2857 60.0173C45.2857 60.8408 44.0001 60.8192 44.0001 59.8705C44.0001 58.9224 43.977 58.1566 44.0233 57.2965Z" fill="url(#paint6_radial_298_7599)"/>
<path opacity="0.7" d="M48.0061 54.8168C48.0061 54.8168 46.5969 54.7926 45.7222 55.1083C44.851 55.4235 44.315 56.1533 44.1935 57.4913C44.0818 58.699 44.1693 60.4774 44.1693 60.4774C44.1693 60.4774 44.2656 58.5322 44.3629 57.805C44.4602 57.0757 44.8011 55.5703 45.942 55.2309C47.0819 54.891 48.0061 54.8168 48.0061 54.8168Z" fill="url(#paint7_radial_298_7599)"/>
<path opacity="0.8" d="M47.8553 56.4209C47.8553 56.4209 47.7256 56.4209 47.4985 56.4348C47.3858 56.4451 47.2493 56.4569 47.0928 56.475C46.9373 56.4971 46.7581 56.5234 46.5676 56.5857C46.5203 56.6017 46.4693 56.6176 46.4188 56.6377C46.3735 56.6578 46.3277 56.6841 46.2824 56.7083C46.1902 56.7624 46.0909 56.835 46.01 56.921C45.8453 57.0878 45.7145 57.3108 45.6594 57.5596C45.6193 57.6781 45.6131 57.8068 45.5868 57.9356C45.5796 58.0602 45.5729 58.1926 45.5667 58.3213C45.5637 58.5747 45.5606 58.8337 45.5575 59.0892C45.5606 59.3462 45.5637 59.6073 45.5667 59.8566C45.5678 59.9853 45.5678 60.11 45.5688 60.2346C45.5796 60.3695 45.557 60.4555 45.5075 60.54C45.4061 60.7249 45.2182 60.8572 45.0225 60.8856L44.9494 60.8959C44.9391 60.9 44.9211 60.9021 44.9191 60.9021L44.4099 60.9C44.3589 60.8959 44.2986 60.9 44.26 60.882C44.2178 60.8742 44.1746 60.8701 44.1385 60.8418C44.0994 60.8217 44.0613 60.8016 44.0381 60.7656C43.9125 60.6451 43.8672 60.4684 43.825 60.3237C43.7946 60.1733 43.7689 60.0404 43.7596 59.9276C43.7374 59.7026 43.7256 59.5738 43.7256 59.5738C43.7256 59.5738 43.7225 59.7046 43.7158 59.9318C43.7158 60.0425 43.7277 60.181 43.7447 60.3376C43.7761 60.4926 43.7987 60.6873 43.9475 60.85C43.9774 60.8964 44.0237 60.9263 44.0731 60.9566C44.1195 60.9927 44.1756 61.0071 44.2348 61.0251C44.2971 61.0432 44.3455 61.0432 44.3985 61.0493L44.4397 61.0535C44.4629 61.0555 44.9391 61.0493 44.9541 61.0493L45.0452 61.0432C45.2892 61.019 45.5364 60.8784 45.6708 60.6353C45.7511 60.5127 45.7742 60.3479 45.766 60.2351C45.766 60.1105 45.7691 59.9858 45.7691 59.8571C45.7722 59.6078 45.7742 59.3467 45.7773 59.0897C45.7742 58.8348 45.7722 58.5752 45.7691 58.3218C45.7732 58.1972 45.7773 58.0746 45.7814 57.9541C45.8026 57.8377 45.8082 57.7172 45.8417 57.6085C45.8937 57.3814 45.99 57.1826 46.1218 57.0276C46.1923 56.9452 46.2685 56.8891 46.3488 56.8309C46.3941 56.8046 46.4394 56.7768 46.4817 56.7546C46.5249 56.7366 46.5671 56.7165 46.6083 56.7006C46.961 56.5739 47.2833 56.5177 47.5042 56.4791C47.7266 56.443 47.8553 56.4209 47.8553 56.4209Z" fill="url(#paint8_linear_298_7599)"/>
<path opacity="0.8" d="M48.0057 54.3789C46.4148 54.3789 45.2769 54.7307 44.5469 55.4481C44.9979 55.9363 45.3846 56.5111 45.8073 57.0034C45.8876 57.0977 45.9638 57.1924 46.042 57.2867C46.2521 56.9107 46.7613 56.714 48.0057 56.714H58.1315V54.3789H48.0057Z" fill="url(#paint9_linear_298_7599)"/>
<path d="M67.8938 56.859H47.0583L0 -30H20.8334L67.8938 56.859Z" fill="url(#paint10_linear_298_7599)"/>
<path opacity="0.4" d="M45.3223 53.6522L47.0579 56.8592H67.8933L66.1536 53.6522C59.2107 53.6481 52.2657 53.6522 45.3223 53.6522Z" fill="url(#paint11_linear_298_7599)"/>
<path opacity="0.6" d="M46.3467 55.5484L47.0587 56.8586H67.8942L67.1821 55.5484C60.2382 55.5464 53.2927 55.5464 46.3467 55.5484Z" fill="url(#paint12_linear_298_7599)"/>
<path d="M87.3177 87.6595C87.3177 103.864 74.1846 116.999 57.9855 116.999C41.7854 116.999 28.6533 103.864 28.6533 87.6595C28.6533 71.4525 41.7854 58.3154 57.9855 58.3154C74.1846 58.3154 87.3177 71.4525 87.3177 87.6595Z" fill="url(#paint13_linear_298_7599)"/>
<path d="M82.8986 87.659C82.8986 101.423 71.7431 112.581 57.9854 112.581C44.2258 112.581 33.0713 101.423 33.0713 87.659C33.0713 73.8932 44.2258 62.7354 57.9854 62.7354C71.7431 62.7354 82.8986 73.8932 82.8986 87.659Z" fill="#FFC722"/>
<path opacity="0.7" d="M57.9854 67.0254C69.3735 67.026 78.6101 76.2636 78.6104 87.6592C78.6104 99.0512 69.3738 108.288 57.9854 108.288C46.5948 108.288 37.3594 99.0513 37.3594 87.6592C37.3596 76.441 46.3087 67.3146 57.4531 67.0322L57.9854 67.0254Z" fill="#FECA34" stroke="#DEA500"/>
<path d="M57.9855 58.3154C41.7854 58.3154 28.6533 71.4525 28.6533 87.6595C28.6533 103.864 41.7854 116.999 57.9855 116.999C74.1846 116.999 87.3177 103.864 87.3177 87.6595C87.3177 71.4525 74.1846 58.3154 57.9855 58.3154ZM57.9855 116.564C42.0521 116.564 29.0889 103.598 29.0889 87.6595C29.0889 71.7197 42.0521 58.7511 57.9855 58.7511C73.9189 58.7511 86.8801 71.7192 86.8801 87.6595C86.8801 103.598 73.9189 116.564 57.9855 116.564Z" fill="#FEC92F"/>
<path d="M35.8084 75.3822C40.1363 67.5864 48.456 62.2977 57.9855 62.2977C71.964 62.2977 83.3368 73.6724 83.3368 87.6592C83.3368 89.2387 83.189 90.7838 82.9121 92.2825C83.6813 92.3989 84.4536 92.5075 85.2284 92.6141C85.5157 92.6543 85.804 92.6904 86.0924 92.729C86.3879 91.0835 86.5413 89.3855 86.5413 87.6592C86.5413 71.8801 73.7568 59.0928 57.9866 59.0928C47.4144 59.0928 38.1865 64.8373 33.249 73.3814C34.0666 74.0864 34.9234 74.7539 35.8084 75.3822Z" fill="#FEDA71"/>
<path opacity="0.8" d="M77.7594 103.51C73.1112 109.3 65.9732 113.014 57.9856 113.014C46.4759 113.014 36.7322 105.302 33.6507 94.7728C32.4315 94.3428 31.2211 93.8906 30.0127 93.4307C32.6812 106.439 44.1915 116.223 57.9851 116.223C67.8437 116.223 76.5335 111.221 81.6641 103.62C80.362 103.606 79.0589 103.568 77.7594 103.51Z" fill="url(#paint14_linear_298_7599)"/>
</g>
</g>
<defs>
<linearGradient id="paint0_linear_298_7599" x1="104.914" y1="-30.7384" x2="58.1275" y2="55.8132" gradientUnits="userSpaceOnUse">
<stop offset="0.1774" stop-color="#6710D9"/>
<stop offset="0.6452" stop-color="#9747FF"/>
</linearGradient>
<linearGradient id="paint1_linear_298_7599" x1="64.8327" y1="53.5046" x2="64.8327" y2="62.8429" gradientUnits="userSpaceOnUse">
<stop stop-color="#D9D9D9"/>
<stop offset="0.0806" stop-color="white"/>
<stop offset="0.1935" stop-color="#D7D7D7"/>
<stop offset="0.2642" stop-color="#B4B4B4"/>
<stop offset="0.3149" stop-color="#9D9D9D"/>
<stop offset="0.3617" stop-color="#8C8C8C"/>
<stop offset="0.3685" stop-color="#8B8B8B"/>
<stop offset="0.4708" stop-color="#878787"/>
<stop offset="0.5185" stop-color="#949494"/>
<stop offset="0.5587" stop-color="#A3A3A3"/>
<stop offset="0.6761" stop-color="#D3D3D3"/>
<stop offset="0.7018" stop-color="#D0D0D0"/>
<stop offset="0.7227" stop-color="#C6C6C6"/>
<stop offset="0.742" stop-color="#B5B5B5"/>
<stop offset="0.7603" stop-color="#9C9C9C"/>
<stop offset="0.7777" stop-color="#7E7E7E"/>
<stop offset="0.7852" stop-color="#6E6E6E"/>
<stop offset="0.8092" stop-color="#767676"/>
<stop offset="0.8464" stop-color="#8C8C8C"/>
<stop offset="0.8921" stop-color="#AFAFAF"/>
<stop offset="0.9377" stop-color="#DADADA"/>
</linearGradient>
<radialGradient id="paint2_radial_298_7599" cx="0" cy="0" r="1" gradientUnits="userSpaceOnUse" gradientTransform="translate(72.0206 55.885) scale(6.07269 6.07451)">
<stop offset="0.2562" stop-color="white"/>
<stop offset="0.3646" stop-color="#E0E0E0"/>
<stop offset="0.5353" stop-color="#B4B4B4"/>
<stop offset="0.6219" stop-color="#A3A3A3"/>
<stop offset="0.7691" stop-color="#6E6E6E"/>
<stop offset="0.817" stop-color="#666666"/>
<stop offset="0.8913" stop-color="#505050"/>
<stop offset="0.9823" stop-color="#2D2D2D"/>
<stop offset="1" stop-color="#252525"/>
</radialGradient>
<radialGradient id="paint3_radial_298_7599" cx="0" cy="0" r="1" gradientUnits="userSpaceOnUse" gradientTransform="translate(71.348 56.0801) scale(4.45309 4.45442)">
<stop offset="0.0217" stop-color="white"/>
<stop offset="0.2049" stop-color="#DADADA"/>
<stop offset="0.3976" stop-color="#D3D3D3"/>
<stop offset="0.4317" stop-color="#B4B4B4"/>
<stop offset="0.4976" stop-color="#7E7E7E"/>
<stop offset="0.5619" stop-color="#515151"/>
<stop offset="0.6233" stop-color="#2E2E2E"/>
<stop offset="0.6809" stop-color="#141414"/>
<stop offset="0.7332" stop-color="#050505"/>
<stop offset="0.7756"/>
</radialGradient>
<linearGradient id="paint4_linear_298_7599" x1="67.825" y1="58.737" x2="71.9619" y2="58.737" gradientUnits="userSpaceOnUse">
<stop stop-color="white"/>
<stop offset="0.0776" stop-color="#E0E0E0"/>
<stop offset="0.1997" stop-color="#B4B4B4"/>
<stop offset="0.2617" stop-color="#A3A3A3"/>
<stop offset="0.6615" stop-color="#6E6E6E"/>
<stop offset="0.7318" stop-color="#666666"/>
<stop offset="0.8407" stop-color="#505050"/>
<stop offset="0.974" stop-color="#2D2D2D"/>
<stop offset="1" stop-color="#252525"/>
</linearGradient>
<linearGradient id="paint5_linear_298_7599" x1="50.8469" y1="53.5046" x2="50.8469" y2="62.8429" gradientUnits="userSpaceOnUse">
<stop stop-color="#D9D9D9"/>
<stop offset="0.0806" stop-color="white"/>
<stop offset="0.1935" stop-color="#D7D7D7"/>
<stop offset="0.2642" stop-color="#B4B4B4"/>
<stop offset="0.3149" stop-color="#9D9D9D"/>
<stop offset="0.3617" stop-color="#8C8C8C"/>
<stop offset="0.3685" stop-color="#8B8B8B"/>
<stop offset="0.4708" stop-color="#878787"/>
<stop offset="0.5185" stop-color="#949494"/>
<stop offset="0.5587" stop-color="#A3A3A3"/>
<stop offset="0.6761" stop-color="#D3D3D3"/>
<stop offset="0.7018" stop-color="#D0D0D0"/>
<stop offset="0.7227" stop-color="#C6C6C6"/>
<stop offset="0.742" stop-color="#B5B5B5"/>
<stop offset="0.7603" stop-color="#9C9C9C"/>
<stop offset="0.7777" stop-color="#7E7E7E"/>
<stop offset="0.7852" stop-color="#6E6E6E"/>
<stop offset="0.8092" stop-color="#767676"/>
<stop offset="0.8464" stop-color="#8C8C8C"/>
<stop offset="0.8921" stop-color="#AFAFAF"/>
<stop offset="0.9377" stop-color="#DADADA"/>
</linearGradient>
<radialGradient id="paint6_radial_298_7599" cx="0" cy="0" r="1" gradientUnits="userSpaceOnUse" gradientTransform="translate(43.6596 55.885) rotate(180) scale(6.07269 6.07451)">
<stop offset="0.2562" stop-color="white"/>
<stop offset="0.3646" stop-color="#E0E0E0"/>
<stop offset="0.5353" stop-color="#B4B4B4"/>
<stop offset="0.6219" stop-color="#A3A3A3"/>
<stop offset="0.7691" stop-color="#6E6E6E"/>
<stop offset="0.817" stop-color="#666666"/>
<stop offset="0.8913" stop-color="#505050"/>
<stop offset="0.9823" stop-color="#2D2D2D"/>
<stop offset="1" stop-color="#252525"/>
</radialGradient>
<radialGradient id="paint7_radial_298_7599" cx="0" cy="0" r="1" gradientUnits="userSpaceOnUse" gradientTransform="translate(44.3314 56.0801) rotate(180) scale(4.45309 4.45442)">
<stop offset="0.0217" stop-color="white"/>
<stop offset="0.2049" stop-color="#DADADA"/>
<stop offset="0.3976" stop-color="#D3D3D3"/>
<stop offset="0.4317" stop-color="#B4B4B4"/>
<stop offset="0.4976" stop-color="#7E7E7E"/>
<stop offset="0.5619" stop-color="#515151"/>
<stop offset="0.6233" stop-color="#2E2E2E"/>
<stop offset="0.6809" stop-color="#141414"/>
<stop offset="0.7332" stop-color="#050505"/>
<stop offset="0.7756"/>
</radialGradient>
<linearGradient id="paint8_linear_298_7599" x1="47.8553" y1="58.737" x2="43.7164" y2="58.737" gradientUnits="userSpaceOnUse">
<stop stop-color="white"/>
<stop offset="0.0776" stop-color="#E0E0E0"/>
<stop offset="0.1997" stop-color="#B4B4B4"/>
<stop offset="0.2617" stop-color="#A3A3A3"/>
<stop offset="0.6615" stop-color="#6E6E6E"/>
<stop offset="0.7318" stop-color="#666666"/>
<stop offset="0.8407" stop-color="#505050"/>
<stop offset="0.974" stop-color="#2D2D2D"/>
<stop offset="1" stop-color="#252525"/>
</linearGradient>
<linearGradient id="paint9_linear_298_7599" x1="46.9897" y1="58.5108" x2="47.6273" y2="58.1466" gradientUnits="userSpaceOnUse">
<stop stop-color="white"/>
<stop offset="0.0776" stop-color="#E0E0E0"/>
<stop offset="0.1997" stop-color="#B4B4B4"/>
<stop offset="0.2617" stop-color="#A3A3A3"/>
<stop offset="0.6615" stop-color="#6E6E6E"/>
<stop offset="0.7318" stop-color="#666666"/>
<stop offset="0.8407" stop-color="#505050"/>
<stop offset="0.974" stop-color="#2D2D2D"/>
<stop offset="1" stop-color="#252525"/>
</linearGradient>
<linearGradient id="paint10_linear_298_7599" x1="58.0163" y1="58.1215" x2="0.787553" y2="-48.0773" gradientUnits="userSpaceOnUse">
<stop offset="0.047" stop-color="#660ED7"/>
<stop offset="0.6237" stop-color="#9747FF"/>
</linearGradient>
<linearGradient id="paint11_linear_298_7599" x1="56.6078" y1="56.8956" x2="56.6078" y2="53.7251" gradientUnits="userSpaceOnUse">
<stop offset="0.046"/>
<stop offset="0.0686" stop-color="#050100"/>
<stop offset="0.0965" stop-color="#140300"/>
<stop offset="0.1272" stop-color="#2E0600"/>
<stop offset="0.1599" stop-color="#510B00"/>
<stop offset="0.1938" stop-color="#7D1200"/>
<stop offset="0.2184" stop-color="#A21700"/>
<stop offset="0.5057" stop-color="white"/>
<stop offset="0.7356" stop-color="#A21700"/>
<stop offset="1"/>
</linearGradient>
<linearGradient id="paint12_linear_298_7599" x1="57.1205" y1="56.8767" x2="57.1205" y2="55.4921" gradientUnits="userSpaceOnUse">
<stop offset="0.0131" stop-color="#851300"/>
<stop offset="0.2234"/>
<stop offset="0.5519" stop-color="#A21700"/>
<stop offset="0.8621" stop-color="white"/>
</linearGradient>
<linearGradient id="paint13_linear_298_7599" x1="57.7354" y1="85.8259" x2="55.1991" y2="114.161" gradientUnits="userSpaceOnUse">
<stop offset="1" stop-color="#FEDA71"/>
</linearGradient>
<linearGradient id="paint14_linear_298_7599" x1="55.6182" y1="104.115" x2="55.1809" y2="115.191" gradientUnits="userSpaceOnUse">
<stop offset="1" stop-color="#FEDA71"/>
</linearGradient>
<clipPath id="clip0_298_7599">
<rect width="115" height="117" fill="white"/>
</clipPath>
<clipPath id="clip1_298_7599">
<rect width="115" height="147" fill="white" transform="translate(0 -30)"/>
</clipPath>
</defs>
</svg>
