<svg width="409" height="100" viewBox="0 0 409 100" fill="none" xmlns="http://www.w3.org/2000/svg">
<g clip-path="url(#clip0_298_8143)">
<path d="M5.66699 0L11.0142 0.757731C16.3614 1.51546 27.0559 3.03092 37.7503 12.2663C48.4448 21.5016 59.1392 38.4568 69.8337 46.6224C80.5281 54.7879 91.2225 54.1638 101.917 50.0388C112.611 45.9138 123.306 38.2879 134 30.2582C144.695 22.2285 155.389 13.7949 166.084 14.4553C176.778 15.1157 187.473 24.8701 198.167 28.7555C208.861 32.6409 219.556 30.6573 230.25 33.182C240.945 35.7067 251.639 42.7397 262.334 41.6908C273.028 40.6419 283.723 31.5113 294.417 22.0055C305.111 12.4997 315.806 2.61887 326.5 1.22727C337.195 -0.16432 347.889 6.93335 358.584 10.2883C369.278 13.6433 379.973 13.2556 385.32 13.0617L390.667 12.8678" stroke="#2C8C53"/>
<g clip-path="url(#clip1_298_8143)">
<path d="M13.2194 0.75746L7.97667 0L-52.333 14.4501L-42.0362 62.3271L122.712 83L517.667 78.6803C504.428 65.7212 477.215 39.4327 474.273 37.9517C471.332 36.4706 413.832 20.609 385.45 12.8632L380.207 13.057C374.964 13.2508 364.479 13.6384 353.994 10.2846C343.508 6.93088 333.023 -0.164262 322.537 1.22684C312.052 2.61793 301.567 12.4953 291.081 21.9976C280.596 31.5 270.111 40.6274 259.625 41.6759C249.14 42.7244 238.655 35.694 228.169 33.1702C217.684 30.6464 207.199 32.6292 196.713 28.7452C186.228 24.8612 175.742 15.1103 165.257 14.4501C154.772 13.79 144.286 22.2205 133.801 30.2474C123.316 38.2742 112.83 45.8974 102.345 50.0209C91.8596 54.1444 81.3742 54.7684 70.8888 46.6057C60.4035 38.4431 49.9181 21.4939 39.4327 12.2619C28.9474 3.02984 18.462 1.51492 13.2194 0.75746Z" fill="url(#paint0_linear_298_8143)"/>
</g>
</g>
<path d="M4.47884 96.8184V96.2324C4.84798 96.3906 5.24056 96.5078 5.69759 96.5078C6.764 96.5078 7.21517 95.8633 7.21517 94.791V88.4219H7.93587V94.8027C7.93587 96.25 7.21517 97.0938 5.76204 97.0938C5.31087 97.0938 4.86556 97.0117 4.47884 96.8184ZM13.8011 97V96.0391C13.3265 96.8125 12.4886 97.1055 11.6214 97.1055C10.473 97.1055 9.46517 96.5898 9.46517 95.3008C9.46517 93.5254 11.3695 93.4082 12.8109 93.4082H13.4378L13.7835 93.4023C13.7835 92.0781 13.5843 91.1348 12.0316 91.1348C11.1468 91.1348 10.5023 91.5977 10.2445 92.4531L9.72884 92.2363C10.0745 91.1406 10.9417 90.6133 12.0609 90.6133C13.7601 90.6133 14.4339 91.5508 14.4339 93.1738V97H13.8011ZM13.7835 93.8652H12.3597C11.3577 93.8652 10.1156 94.0117 10.1156 95.2891C10.1156 96.2793 10.8656 96.6016 11.7327 96.6016C12.6351 96.6016 13.7835 96.0801 13.7835 95.043V93.8652ZM16.3206 97V90.7246H16.971V92.0195C17.346 91.0996 18.3363 90.6133 19.2855 90.6133C20.8265 90.6133 21.5531 91.6211 21.5531 93.0859V97H20.9027V93.1738C20.9027 91.9668 20.346 91.2051 19.0863 91.2051C17.8968 91.2051 16.971 92.0605 16.971 93.2676V97H16.3206Z" fill="#626F86"/>
<path d="M37.3646 97.0117V88.4219H42.4447V88.9961H38.0853V92.3945H41.5658V92.9688H38.0853V97.0117H37.3646ZM47.9935 95.2598L48.474 95.4648C48.0228 96.6133 47.0091 97.1055 45.8548 97.1055C43.9271 97.1055 42.8314 95.7285 42.8314 93.9297C42.8314 92.1602 43.8919 90.6133 45.8138 90.6133C47.6068 90.6133 48.5208 91.9668 48.5208 93.7012V93.9062H43.5052C43.5169 95.4004 44.2025 96.5781 45.8314 96.5781C46.7689 96.5781 47.6536 96.1914 47.9935 95.2598ZM43.5169 93.4375H47.8822C47.8529 92.1074 47.179 91.1172 45.8021 91.1172C44.4017 91.1172 43.5931 92.1484 43.5169 93.4375ZM50.0033 97V87.7598H50.6478V92.2598C51.0755 91.2637 52.1361 90.6133 53.2552 90.6133C54.9779 90.6133 56.0267 92.166 56.0267 93.8125C56.0267 95.5352 55.0892 97.1055 53.2259 97.1055C52.1126 97.1055 51.0697 96.543 50.6478 95.4941V97H50.0033ZM53.0618 96.5605C54.5853 96.5605 55.3646 95.3066 55.3646 93.877C55.3646 92.4824 54.6204 91.1582 53.0794 91.1582C51.5677 91.1582 50.6478 92.4297 50.6478 93.8711C50.6478 95.2715 51.515 96.5605 53.0618 96.5605Z" fill="#626F86"/>
<path d="M70.0208 97V88.4219H71.0286L74.1868 96.0039L77.4036 88.4219H78.388V97H77.6673V89.3066L74.4036 97H73.9115L70.6829 89.3066V97H70.0208ZM84.4642 97V96.0391C83.9896 96.8125 83.1517 97.1055 82.2845 97.1055C81.1361 97.1055 80.1283 96.5898 80.1283 95.3008C80.1283 93.5254 82.0326 93.4082 83.474 93.4082H84.1009L84.4466 93.4023C84.4466 92.0781 84.2474 91.1348 82.6947 91.1348C81.8099 91.1348 81.1654 91.5977 80.9076 92.4531L80.3919 92.2363C80.7376 91.1406 81.6048 90.6133 82.724 90.6133C84.4232 90.6133 85.097 91.5508 85.097 93.1738V97H84.4642ZM84.4466 93.8652H83.0228C82.0208 93.8652 80.7786 94.0117 80.7786 95.2891C80.7786 96.2793 81.5286 96.6016 82.3958 96.6016C83.2982 96.6016 84.4466 96.0801 84.4466 95.043V93.8652ZM86.9837 97V90.7246H87.6283V92.1426C88.0091 91.1992 88.7767 90.6836 89.7904 90.666V91.2637C88.4193 91.3105 87.6283 92.2129 87.6283 93.5664V97H86.9837Z" fill="#626F86"/>
<path d="M103.235 97L106.34 88.4219H107.289L110.418 97H109.674L108.825 94.6504H104.758L103.903 97H103.235ZM104.934 94.1055H108.643L106.785 88.9961L104.934 94.1055ZM111.854 99.3379V90.7246H112.498V92.2246C112.95 91.252 113.993 90.6133 115.1 90.6133C116.828 90.6133 117.877 92.166 117.877 93.8125C117.877 95.5352 116.94 97.1055 115.082 97.1055C113.981 97.1055 112.932 96.5547 112.498 95.5293V99.3379H111.854ZM114.907 96.5605C116.436 96.5605 117.215 95.3066 117.215 93.877C117.215 92.4824 116.471 91.1582 114.93 91.1582C113.418 91.1582 112.498 92.4297 112.498 93.877C112.498 95.2773 113.354 96.5605 114.907 96.5605ZM119.377 97V90.7246H120.022V92.1426C120.403 91.1992 121.17 90.6836 122.184 90.666V91.2637C120.813 91.3105 120.022 92.2129 120.022 93.5664V97H119.377Z" fill="#626F86"/>
<path d="M135.47 97V88.4219H136.478L139.636 96.0039L142.853 88.4219H143.837V97H143.117V89.3066L139.853 97H139.361L136.132 89.3066V97H135.47ZM149.913 97V96.0391C149.439 96.8125 148.601 97.1055 147.734 97.1055C146.585 97.1055 145.577 96.5898 145.577 95.3008C145.577 93.5254 147.482 93.4082 148.923 93.4082H149.55L149.896 93.4023C149.896 92.0781 149.697 91.1348 148.144 91.1348C147.259 91.1348 146.615 91.5977 146.357 92.4531L145.841 92.2363C146.187 91.1406 147.054 90.6133 148.173 90.6133C149.872 90.6133 150.546 91.5508 150.546 93.1738V97H149.913ZM149.896 93.8652H148.472C147.47 93.8652 146.228 94.0117 146.228 95.2891C146.228 96.2793 146.978 96.6016 147.845 96.6016C148.747 96.6016 149.896 96.0801 149.896 95.043V93.8652ZM152.913 99.3379L154.091 96.4961L151.689 90.7246H152.398L154.425 95.7754L156.464 90.7246H157.126L153.564 99.3379H152.913Z" fill="#626F86"/>
<path d="M170.001 96.8184V96.2324C170.37 96.3906 170.763 96.5078 171.22 96.5078C172.286 96.5078 172.738 95.8633 172.738 94.791V88.4219H173.458V94.8027C173.458 96.25 172.738 97.0938 171.285 97.0938C170.833 97.0938 170.388 97.0117 170.001 96.8184ZM179.874 97V95.7871C179.499 96.6836 178.538 97.1055 177.613 97.1055C176.077 97.1055 175.339 96.2031 175.339 94.709V90.7246H175.995V94.6387C175.995 95.8398 176.564 96.5547 177.8 96.5547C178.984 96.5547 179.874 95.7168 179.874 94.5156V90.7246H180.531V97H179.874ZM182.464 97V90.7246H183.115V92.0195C183.49 91.0996 184.48 90.6133 185.429 90.6133C186.97 90.6133 187.697 91.6211 187.697 93.0859V97H187.046V93.1738C187.046 91.9668 186.49 91.2051 185.23 91.2051C184.04 91.2051 183.115 92.0605 183.115 93.2676V97H182.464Z" fill="#626F86"/>
<path d="M204.856 95.7988C205.035 95.8652 205.217 95.9219 205.401 95.9688C205.588 96.0156 205.782 96.0391 205.981 96.0391C206.223 96.0391 206.428 96 206.596 95.9219C206.764 95.8438 206.901 95.7363 207.006 95.5996C207.112 95.4629 207.188 95.2988 207.235 95.1074C207.282 94.916 207.305 94.707 207.305 94.4805V88.4219H208.659V94.5273C208.659 95.3633 208.448 96.0039 208.026 96.4492C207.604 96.8945 206.967 97.1172 206.116 97.1172C205.901 97.1172 205.686 97.0996 205.471 97.0645C205.26 97.0293 205.055 96.9629 204.856 96.8652V95.7988ZM214.705 96.0039C214.518 96.3867 214.243 96.668 213.879 96.8477C213.52 97.0273 213.119 97.1172 212.678 97.1172C212.315 97.1172 211.994 97.0605 211.717 96.9473C211.44 96.834 211.205 96.6738 211.014 96.4668C210.826 96.2559 210.684 96.0039 210.586 95.7109C210.493 95.4141 210.446 95.084 210.446 94.7207V90.7246H211.676V94.6094C211.676 95.0938 211.793 95.4609 212.028 95.7109C212.262 95.9609 212.612 96.0859 213.076 96.0859C213.334 96.0859 213.563 96.0488 213.762 95.9746C213.965 95.8965 214.135 95.7871 214.272 95.6465C214.412 95.5059 214.52 95.3379 214.594 95.1426C214.668 94.9473 214.705 94.7305 214.705 94.4922V90.7246H215.936V97H214.705V96.0039ZM217.811 88.3223L219.059 87.7715V97H217.811V88.3223Z" fill="#2C8C53"/>
<path d="M234.495 97L237.601 88.4219H238.55L241.679 97H240.935L240.085 94.6504H236.019L235.163 97H234.495ZM236.195 94.1055H239.904L238.046 88.9961L236.195 94.1055ZM247.591 97V95.7871C247.216 96.6836 246.255 97.1055 245.329 97.1055C243.794 97.1055 243.056 96.2031 243.056 94.709V90.7246H243.712V94.6387C243.712 95.8398 244.281 96.5547 245.517 96.5547C246.701 96.5547 247.591 95.7168 247.591 94.5156V90.7246H248.247V97H247.591ZM249.882 97.6738L250.41 97.457C250.767 98.459 251.81 98.834 252.777 98.834C254.236 98.834 255.074 97.9785 255.074 96.543V95.2363C254.693 96.2207 253.579 96.7129 252.531 96.7129C250.855 96.7129 249.712 95.4531 249.712 93.748C249.712 92.0371 250.867 90.6133 252.654 90.6133C253.72 90.6133 254.617 91.0234 255.074 92.0312V90.7246H255.724V96.5781C255.724 98.4004 254.576 99.3496 252.794 99.3496C251.599 99.3496 250.304 98.9219 249.882 97.6738ZM252.665 96.1973C254.118 96.1973 255.126 95.1426 255.126 93.7363C255.126 92.3008 254.294 91.1582 252.794 91.1582C251.324 91.1582 250.386 92.2598 250.386 93.6777C250.386 95.1133 251.195 96.1973 252.665 96.1973Z" fill="#626F86"/>
<path d="M268.329 94.8789L268.88 94.6211C269.296 95.9219 270.175 96.5312 271.535 96.5312C272.642 96.5312 273.743 95.9453 273.743 94.6738C273.743 93.3496 272.548 93.0625 271.318 92.7695C270.011 92.4531 268.663 92.1309 268.663 90.5371C268.663 88.9258 270.046 88.3223 271.388 88.3223C272.712 88.3223 273.755 88.9082 274.148 90.1914L273.609 90.4199C273.292 89.3418 272.513 88.8848 271.411 88.8848C270.351 88.8848 269.361 89.3125 269.361 90.5312C269.361 91.6914 270.468 91.9434 271.652 92.2129C272.999 92.5176 274.441 92.8516 274.441 94.5801C274.441 96.2676 273.064 97.0938 271.535 97.0938C269.947 97.0938 268.845 96.4141 268.329 94.8789ZM280.728 95.2598L281.208 95.4648C280.757 96.6133 279.743 97.1055 278.589 97.1055C276.661 97.1055 275.566 95.7285 275.566 93.9297C275.566 92.1602 276.626 90.6133 278.548 90.6133C280.341 90.6133 281.255 91.9668 281.255 93.7012V93.9062H276.24C276.251 95.4004 276.937 96.5781 278.566 96.5781C279.503 96.5781 280.388 96.1914 280.728 95.2598ZM276.251 93.4375H280.617C280.587 92.1074 279.913 91.1172 278.536 91.1172C277.136 91.1172 276.327 92.1484 276.251 93.4375ZM282.738 99.3379V90.7246H283.382V92.2246C283.833 91.252 284.876 90.6133 285.984 90.6133C287.712 90.6133 288.761 92.166 288.761 93.8125C288.761 95.5352 287.824 97.1055 285.966 97.1055C284.865 97.1055 283.816 96.5547 283.382 95.5293V99.3379H282.738ZM285.79 96.5605C287.32 96.5605 288.099 95.3066 288.099 93.877C288.099 92.4824 287.355 91.1582 285.814 91.1582C284.302 91.1582 283.382 92.4297 283.382 93.877C283.382 95.2773 284.238 96.5605 285.79 96.5605Z" fill="#626F86"/>
<path d="M306.336 97.0938C303.887 97.0938 302.1 95.166 302.1 92.7285C302.1 90.332 303.823 88.3223 306.325 88.3223C308.768 88.3223 310.526 90.2324 310.526 92.6758C310.526 95.0664 308.838 97.0938 306.336 97.0938ZM306.325 96.4961C308.463 96.4961 309.782 94.7383 309.782 92.6875C309.782 90.6602 308.487 88.9199 306.336 88.9199C304.186 88.9199 302.844 90.6543 302.844 92.6934C302.844 94.7324 304.18 96.4961 306.325 96.4961ZM316.866 94.8438L317.369 95.0723C316.994 96.3496 315.987 97.1055 314.657 97.1055C312.823 97.1055 311.657 95.6699 311.657 93.8711C311.657 92.1074 312.776 90.6133 314.668 90.6133C315.922 90.6133 316.883 91.2695 317.287 92.4648L316.743 92.7051C316.479 91.6914 315.729 91.1582 314.715 91.1582C313.162 91.1582 312.319 92.4004 312.319 93.8535C312.319 95.2656 313.11 96.5605 314.662 96.5605C315.776 96.5605 316.59 95.8984 316.866 94.8438ZM321.477 96.4141V96.9531C321.201 97.0469 320.909 97.0938 320.616 97.0938C319.555 97.0938 319.069 96.4609 319.069 95.4414L319.08 91.2285H318.155V90.7246H319.08V89.3125L319.725 89.0312V90.7246H321.407V91.2285H319.725V95.3945C319.725 96.0508 319.994 96.543 320.744 96.543C320.973 96.543 321.231 96.4961 321.477 96.4141Z" fill="#626F86"/>
<path d="M334.986 97V88.4219H335.911L340.88 95.9922V88.4219H341.554V97H340.763L335.66 89.2363V97H334.986ZM346.253 97.1055C344.431 97.1055 343.183 95.6641 343.183 93.8711C343.183 92.1074 344.396 90.6309 346.259 90.6309C348.076 90.6309 349.288 92.043 349.288 93.8418C349.288 95.6172 348.105 97.1055 346.253 97.1055ZM346.242 96.5664C347.765 96.5664 348.62 95.3242 348.62 93.8535C348.62 92.4414 347.829 91.1582 346.259 91.1582C344.736 91.1582 343.851 92.3828 343.851 93.8477C343.851 95.2656 344.677 96.5664 346.242 96.5664ZM352.435 97L350.033 90.7246H350.742L352.868 96.3379L354.966 90.7246H355.617L353.238 97H352.435Z" fill="#626F86"/>
<path d="M368.181 97V88.4219H370.765C373.384 88.4219 375.036 90.0215 375.036 92.6523C375.036 95.3535 373.466 97 370.742 97H368.181ZM368.902 96.4141H370.706C373.021 96.4141 374.292 94.9902 374.292 92.6758C374.292 90.4023 373.062 89.0078 370.689 89.0078H368.902V96.4141ZM381.318 95.2598L381.798 95.4648C381.347 96.6133 380.333 97.1055 379.179 97.1055C377.251 97.1055 376.156 95.7285 376.156 93.9297C376.156 92.1602 377.216 90.6133 379.138 90.6133C380.931 90.6133 381.845 91.9668 381.845 93.7012V93.9062H376.829C376.841 95.4004 377.527 96.5781 379.156 96.5781C380.093 96.5781 380.978 96.1914 381.318 95.2598ZM376.841 93.4375H381.206C381.177 92.1074 380.503 91.1172 379.126 91.1172C377.726 91.1172 376.917 92.1484 376.841 93.4375ZM388.091 94.8438L388.595 95.0723C388.22 96.3496 387.212 97.1055 385.882 97.1055C384.048 97.1055 382.882 95.6699 382.882 93.8711C382.882 92.1074 384.001 90.6133 385.894 90.6133C387.148 90.6133 388.109 91.2695 388.513 92.4648L387.968 92.7051C387.704 91.6914 386.954 91.1582 385.941 91.1582C384.388 91.1582 383.544 92.4004 383.544 93.8535C383.544 95.2656 384.335 96.5605 385.888 96.5605C387.001 96.5605 387.816 95.8984 388.091 94.8438Z" fill="#626F86"/>
<defs>
<linearGradient id="paint0_linear_298_8143" x1="255.835" y1="-106.052" x2="250.242" y2="67.5749" gradientUnits="userSpaceOnUse">
<stop stop-color="#2C8C53" stop-opacity="0.5"/>
<stop offset="1" stop-color="#2C8C53" stop-opacity="0"/>
</linearGradient>
<clipPath id="clip0_298_8143">
<rect width="408" height="74" fill="white" transform="translate(0.666992)"/>
</clipPath>
<clipPath id="clip1_298_8143">
<rect width="431" height="83" fill="white" transform="translate(-40.333)"/>
</clipPath>
</defs>
</svg>
