<svg width="142" height="141" viewBox="0 0 142 141" fill="none" xmlns="http://www.w3.org/2000/svg">
<path d="M86.4081 135.23C86.9144 137.38 89.0725 138.724 91.1907 138.097C106.193 133.653 119.332 124.329 128.486 111.546C138.418 97.6763 142.984 80.6758 141.338 63.6963C139.692 46.7168 131.945 30.9102 119.533 19.2069C108.094 8.42074 93.4082 1.79438 77.8316 0.315652C75.6324 0.10687 73.7726 1.84028 73.6888 4.04783L73.2097 16.6736C73.1259 18.8811 74.8513 20.7221 77.0451 20.9824C87.6287 22.2385 97.5713 26.8602 105.377 34.22C114.155 42.4978 119.635 53.678 120.799 65.6877C121.964 77.6974 118.734 89.722 111.709 99.5321C105.463 108.254 96.5937 114.7 86.4484 117.966C84.3456 118.643 83.006 120.781 83.5123 122.931L86.4081 135.23Z" fill="#5FDAA4"/>
<path d="M4.8371 65.7467C2.63361 65.5887 0.707409 67.2476 0.674707 69.4565C0.535303 78.8725 2.28378 88.2353 5.83197 96.9874C9.88187 106.977 16.1686 115.905 24.2087 123.085C32.2489 130.265 41.8284 135.505 52.2108 138.404C61.307 140.943 70.8072 141.625 80.1475 140.426C82.3386 140.144 83.7699 138.043 83.3647 135.872L81.0471 123.451C80.6419 121.28 78.5532 119.865 76.356 120.094C70.1257 120.746 63.8158 120.22 57.7591 118.529C50.4156 116.479 43.6399 112.772 37.9531 107.694C32.2662 102.615 27.8196 96.3005 24.9551 89.2348C22.5925 83.4072 21.3581 77.1969 21.3037 70.9327C21.2845 68.7237 19.6431 66.8077 17.4396 66.6498L4.8371 65.7467Z" fill="#FF6666"/>
<path d="M71.167 4.00001C71.167 1.79087 69.3743 -0.0118319 67.1687 0.113395C51.3064 1.01402 36.1677 7.25277 24.2505 17.8778C12.3333 28.5029 4.40554 42.8295 1.69829 58.485C1.32185 60.6619 2.90789 62.6488 5.10256 62.9013L17.6546 64.345C19.8493 64.5974 21.8169 63.0179 22.2443 60.8505C24.3394 50.2272 29.8465 40.5339 37.9826 33.28C46.1188 26.026 56.3778 21.6626 67.171 20.7951C69.373 20.6182 71.167 18.844 71.167 16.6349V4.00001Z" fill="#5B9EE9"/>
</svg>
