<svg width="56" height="56" viewBox="0 0 56 56" fill="none" xmlns="http://www.w3.org/2000/svg">
<path d="M8.51925 46.3801C7.81883 46.3801 7.25098 45.8123 7.25098 45.1119V14.9752L8.09649 11.0739C8.09649 10.3735 8.66434 9.80566 9.36477 9.80566L46.572 10.0668C47.2725 10.0668 48.4277 10.6346 48.4277 11.0003V43.3517C48.4277 44.3868 47.1722 46.1301 46.4717 46.1301L45.7046 46.3801H8.51925Z" fill="#F9F7F8"/>
<path d="M48.94 11.1094V14.6975L46.6881 14.9672L7.25098 14.9756V10.8034C7.25098 10.1025 7.81916 9.53516 8.51925 9.53516H45.4787L47.4536 9.62292C48.1536 9.62292 48.94 10.4085 48.94 11.1094Z" fill="#8ABBD5"/>
<path d="M48.2374 14.2354L49.2727 14.9676V45.1126C49.2727 45.813 48.7048 46.3808 48.0044 46.3808H45.7041L45.9715 46.2226C46.1896 46.0934 46.3704 45.9096 46.496 45.6893C46.6216 45.469 46.6877 45.2198 46.6877 44.9662V14.9676L48.2374 14.2354Z" fill="#EFEDEF"/>
<path d="M49.273 10.8034V14.9672H46.6879V11.179C46.6879 10.8794 46.6069 10.5854 46.4535 10.3282C46.3 10.0709 46.0798 9.85989 45.8162 9.71753L45.4785 9.53516H48.0048C48.7048 9.53516 49.273 10.1025 49.273 10.8034Z" fill="#6CABCA"/>
<path d="M23.0849 23.8074H25.941C26.0353 23.8074 26.1128 23.7301 26.1101 23.6359C26.0209 20.5025 23.4972 17.9788 20.3639 17.8897C20.2697 17.887 20.1924 17.9645 20.1924 18.0588V20.9149C20.1924 21.0038 20.2614 21.078 20.3502 21.0831C21.0409 21.1225 21.6629 21.4187 22.1219 21.8779C22.5811 22.337 22.8773 22.9588 22.9167 23.6496C22.9193 23.6924 22.9382 23.7325 22.9695 23.7619C23.0007 23.7912 23.042 23.8075 23.0849 23.8074Z" fill="#FEA3CE"/>
<path d="M23.5738 26.5156C23.5765 26.4212 23.4989 26.3438 23.4045 26.3438H20.5486C20.5056 26.3437 20.4642 26.3602 20.4329 26.3897C20.4016 26.4192 20.3828 26.4596 20.3804 26.5025C20.2981 27.9357 19.1098 29.0716 17.6561 29.0717L17.1953 30.5631L17.6561 32.2619C20.868 32.2618 23.4828 29.7056 23.5738 26.5156Z" fill="#8ABBD5"/>
<path d="M17.4626 29.0666C16.117 28.9738 15.0269 27.8836 14.934 26.538C14.9299 26.4736 14.9279 26.409 14.9282 26.3445L13.2859 25.9004L11.738 26.3445C11.738 26.3921 11.7366 26.4393 11.7377 26.4872C11.8116 29.6277 14.373 32.189 17.5135 32.263C17.5613 32.2641 17.6087 32.2627 17.6563 32.2627V29.0725C17.5917 29.0727 17.5271 29.0708 17.4626 29.0666Z" fill="#BBEC6C"/>
<path d="M17.4968 23.6193C17.5398 23.6168 17.5801 23.598 17.6097 23.5667C17.6392 23.5354 17.6556 23.494 17.6556 23.451V20.5952C17.6556 20.5008 17.5781 20.4231 17.4837 20.4258C14.2937 20.5168 11.7376 23.1317 11.7373 26.3436H14.9275C14.9277 24.8899 16.0637 23.7016 17.4968 23.6193Z" fill="#FCE459"/>
<path d="M35.3937 30.0611L30.1104 29.3521V22.5146C30.1104 22.4024 30.1549 22.2949 30.2342 22.2156C30.3135 22.1363 30.421 22.0918 30.5331 22.0918H33.1765L35.3937 30.0611Z" fill="#FEA3CE"/>
<path d="M35.3929 30.0602L34.2751 22.0908H33.1758V29.7625L35.3929 30.0602Z" fill="#FE7AB6"/>
<path d="M39.5634 30.3101L34.2754 29.3517V20.412C34.2754 20.2999 34.3199 20.1924 34.3992 20.1131C34.4785 20.0338 34.586 19.9893 34.6981 19.9893H37.0033L39.5634 30.3101Z" fill="#FCE459"/>
<path d="M38.6941 19.9893H37.0029V29.3517L39.8167 30.3101L38.6941 19.9893Z" fill="#F9D608"/>
<path d="M42.3369 30.0606L38.4404 29.3515V18.3095C38.4404 18.1974 38.485 18.0898 38.5643 18.0105C38.6435 17.9313 38.7511 17.8867 38.8632 17.8867H40.5583L41.9113 18.0558C42.0506 18.0558 42.1843 18.1112 42.2829 18.2097C42.3814 18.3083 42.4368 18.4419 42.4368 18.5813L42.3369 30.0606Z" fill="#BBEC6C"/>
<path d="M42.0799 17.8867H40.3887C40.528 17.8867 40.6617 17.9421 40.7602 18.0407C40.8588 18.1392 40.9141 18.2728 40.9142 18.4122V29.3514L42.6054 30.0605V18.4123C42.6054 18.3433 42.5918 18.2749 42.5654 18.2112C42.539 18.1474 42.5003 18.0895 42.4515 18.0407C42.4027 17.9919 42.3448 17.9531 42.281 17.9267C42.2172 17.9003 42.1489 17.8867 42.0799 17.8867Z" fill="#A2E62E"/>
<path d="M44.3659 32.0943L42.8438 32.2634H28.1815C28.0694 32.2634 27.9619 32.2189 27.8826 32.1396C27.8033 32.0603 27.7588 31.9528 27.7588 31.8407V29.7704C27.7588 29.6583 27.8033 29.5508 27.8826 29.4715C27.9619 29.3922 28.0694 29.3477 28.1815 29.3477H42.8438L44.3659 29.5168C44.4781 29.5168 44.5856 29.5613 44.6649 29.6406C44.7442 29.7199 44.7887 29.8274 44.7887 29.9395V31.6716C44.7887 31.7837 44.7442 31.8912 44.6649 31.9705C44.5856 32.0498 44.4781 32.0943 44.3659 32.0943Z" fill="#918291"/>
<path d="M44.5351 29.3477H42.6748C42.7869 29.3477 42.8945 29.3922 42.9737 29.4715C43.053 29.5508 43.0976 29.6583 43.0976 29.7704V31.8407C43.0976 31.9529 43.053 32.0604 42.9737 32.1397C42.8945 32.219 42.7869 32.2635 42.6748 32.2635H44.5351C44.6472 32.2635 44.7548 32.219 44.834 32.1397C44.9133 32.0604 44.9579 31.9529 44.9579 31.8407V29.7704C44.9579 29.6583 44.9133 29.5508 44.834 29.4715C44.7548 29.3922 44.6472 29.3477 44.5351 29.3477Z" fill="#7A6D79"/>
<path d="M28.9385 43.0724C29.5901 43.0724 30.1183 42.5442 30.1183 41.8926C30.1183 41.2411 29.5901 40.7129 28.9385 40.7129C28.287 40.7129 27.7588 41.2411 27.7588 41.8926C27.7588 42.5442 28.287 43.0724 28.9385 43.0724Z" fill="#BBEC6C"/>
<path d="M33.8848 38.1251C34.5364 38.1251 35.0646 37.5969 35.0646 36.9454C35.0646 36.2938 34.5364 35.7656 33.8848 35.7656C33.2333 35.7656 32.7051 36.2938 32.7051 36.9454C32.7051 37.5969 33.2333 38.1251 33.8848 38.1251Z" fill="#BBEC6C"/>
<path d="M38.8311 43.0724C39.4827 43.0724 40.0109 42.5442 40.0109 41.8926C40.0109 41.2411 39.4827 40.7129 38.8311 40.7129C38.1796 40.7129 37.6514 41.2411 37.6514 41.8926C37.6514 42.5442 38.1796 43.0724 38.8311 43.0724Z" fill="#BBEC6C"/>
<path d="M43.7774 38.1251C44.429 38.1251 44.9572 37.5969 44.9572 36.9454C44.9572 36.2938 44.429 35.7656 43.7774 35.7656C43.1258 35.7656 42.5977 36.2938 42.5977 36.9454C42.5977 37.5969 43.1258 38.1251 43.7774 38.1251Z" fill="#BBEC6C"/>
<path d="M43.2387 9.53613H47.8942C48.656 9.53613 49.2732 10.1534 49.2732 10.9152V44.9997C49.2732 45.7615 48.656 46.3787 47.8942 46.3787H22.105M7.25098 21.036V10.9152C7.25098 10.1534 7.8682 9.53613 8.63002 9.53613H40.2794M7.25098 23.9953V44.9997C7.25098 45.7615 7.8682 46.3787 8.63002 46.3787H19.1457M49.0439 14.9174H7.48028M14.8425 26.3436H12.0336M17.656 29.157V31.9287M30.1099 29.157V22.5137C30.1099 22.4016 30.1544 22.2941 30.2337 22.2148C30.313 22.1355 30.4205 22.091 30.5326 22.091H34.09M20.3848 26.3436C20.3848 27.8506 19.1631 29.0724 17.656 29.0724C16.149 29.0724 14.9272 27.8506 14.9272 26.3436C14.9272 24.8364 16.149 23.6148 17.656 23.6148V20.4234C14.3864 20.4234 11.7359 23.074 11.7359 26.3436C11.7359 29.6132 14.3864 32.2637 17.656 32.2637C20.9256 32.2637 23.5761 29.6132 23.5761 26.3436H20.3848ZM22.9216 23.8068H26.113C26.113 20.5372 23.4624 17.8866 20.1928 17.8866V21.078C21.6999 21.078 22.9216 22.2996 22.9216 23.8068Z" stroke="black" stroke-width="1.08035" stroke-miterlimit="10" stroke-linecap="round" stroke-linejoin="round"/>
<path d="M34.2754 29.0552V20.4118C34.2754 20.2996 34.3199 20.1921 34.3992 20.1128C34.4785 20.0336 34.586 19.989 34.6981 19.989H38.2416M42.6063 29.3514H38.4408V18.3095C38.4408 18.1974 38.4854 18.0898 38.5647 18.0105C38.6439 17.9313 38.7515 17.8867 38.8636 17.8867H42.0808C42.2202 17.8867 42.3538 17.9421 42.4524 18.0406C42.5509 18.1392 42.6063 18.2728 42.6063 18.4122V29.3514Z" stroke="black" stroke-width="1.08035" stroke-miterlimit="10" stroke-linecap="round" stroke-linejoin="round"/>
<path d="M34.7967 32.264H44.5346C44.7679 32.264 44.9573 32.0746 44.9573 31.8412V29.7714C44.9573 29.5372 44.7679 29.3486 44.5346 29.3486H28.1806C27.9472 29.3486 27.7578 29.5372 27.7578 29.7714V31.8412C27.7578 32.0746 27.9472 32.264 28.1806 32.264H31.8374" stroke="black" stroke-width="1.08035" stroke-miterlimit="10" stroke-linecap="round" stroke-linejoin="round"/>
<path d="M28.9385 43.0724C29.5901 43.0724 30.1183 42.5442 30.1183 41.8926C30.1183 41.2411 29.5901 40.7129 28.9385 40.7129C28.287 40.7129 27.7588 41.2411 27.7588 41.8926C27.7588 42.5442 28.287 43.0724 28.9385 43.0724Z" stroke="black" stroke-width="1.08035" stroke-miterlimit="10" stroke-linecap="round" stroke-linejoin="round"/>
<path d="M33.8848 38.1251C34.5364 38.1251 35.0646 37.5969 35.0646 36.9454C35.0646 36.2938 34.5364 35.7656 33.8848 35.7656C33.2333 35.7656 32.7051 36.2938 32.7051 36.9454C32.7051 37.5969 33.2333 38.1251 33.8848 38.1251Z" stroke="black" stroke-width="1.08035" stroke-miterlimit="10" stroke-linecap="round" stroke-linejoin="round"/>
<path d="M38.8311 43.0724C39.4827 43.0724 40.0109 42.5442 40.0109 41.8926C40.0109 41.2411 39.4827 40.7129 38.8311 40.7129C38.1796 40.7129 37.6514 41.2411 37.6514 41.8926C37.6514 42.5442 38.1796 43.0724 38.8311 43.0724Z" stroke="black" stroke-width="1.08035" stroke-miterlimit="10" stroke-linecap="round" stroke-linejoin="round"/>
<path d="M43.7774 38.1251C44.429 38.1251 44.9572 37.5969 44.9572 36.9454C44.9572 36.2938 44.429 35.7656 43.7774 35.7656C43.1258 35.7656 42.5977 36.2938 42.5977 36.9454C42.5977 37.5969 43.1258 38.1251 43.7774 38.1251Z" stroke="black" stroke-width="1.08035" stroke-miterlimit="10" stroke-linecap="round" stroke-linejoin="round"/>
<path d="M32.8952 37.9345L29.9271 40.9027M34.8735 37.9345L37.8416 40.9027M42.7881 37.9345L39.8201 40.9027M11.7354 35.7656H13.4377M11.7354 39.4186H13.4377M11.7354 43.0717H13.4377M16.3973 35.7656H28.3697M16.3973 39.4186H22.3165M16.3973 43.0717H24.8533" stroke="black" stroke-width="1.08035" stroke-miterlimit="10" stroke-linecap="round" stroke-linejoin="round"/>
</svg>
