<svg width="56" height="56" viewBox="0 0 56 56" fill="none" xmlns="http://www.w3.org/2000/svg">
<path d="M15.9177 7.51953L7.44876 8.0596C6.11816 8.1457 5.10455 9.29628 5.19065 10.6269L7.29222 43.5867C7.37832 44.9173 8.5289 45.9309 9.8595 45.8448L18.3284 45.3048L15.9177 7.51953Z" fill="#003ED3"/>
<path d="M8.85394 45.8908C8.83046 45.8908 8.80698 45.8868 8.7835 45.879C8.31377 45.7007 7.90511 45.3913 7.60611 44.9875C7.3071 44.5838 7.13031 44.1026 7.09676 43.6013L5.68789 21.5055C5.6882 21.4556 5.70746 21.4078 5.74175 21.3716C5.77604 21.3354 5.82281 21.3136 5.87257 21.3106C5.92234 21.3076 5.97138 21.3237 6.00975 21.3555C6.04813 21.3873 6.07297 21.4326 6.07924 21.482L7.48811 43.5779C7.51605 44.0041 7.66591 44.4133 7.91986 44.7568C8.17381 45.1002 8.52114 45.3634 8.92047 45.5151C9.02222 45.5542 9.0731 45.6677 9.03396 45.7694C9.00657 45.8438 8.93221 45.8908 8.85394 45.8908ZM5.52352 16.0265C5.42176 16.0265 5.33567 15.9483 5.32784 15.8426L4.99519 10.6415C4.95327 10.0213 5.1346 9.40663 5.50639 8.90851C5.87819 8.41038 6.41593 8.06171 7.0224 7.9255C7.07201 7.91728 7.12288 7.92835 7.16458 7.95645C7.20628 7.98454 7.23565 8.02753 7.24666 8.07659C7.25768 8.12565 7.2495 8.17706 7.22381 8.22028C7.19812 8.26351 7.15686 8.29526 7.1085 8.30903C6.0401 8.55167 5.3161 9.52223 5.38263 10.618L5.71919 15.8191C5.72702 15.9287 5.64484 16.0187 5.53526 16.0265H5.52352Z" fill="black"/>
<path d="M39.2549 8.45462L41.3564 41.4145C41.4425 42.7451 40.4289 43.8956 39.0983 43.9817L12.5958 45.6724C11.2652 45.7585 10.1146 44.7449 10.0285 43.4143L7.92698 10.4544C7.84088 9.12384 8.85449 7.97326 10.1851 7.88716L36.6876 6.19651C38.0182 6.11041 39.1688 7.12402 39.2549 8.45462Z" fill="#158ED8"/>
<path d="M39.2548 8.45461L41.3563 41.4144C41.4424 42.745 40.4288 43.8956 39.0982 43.9817L12.5957 45.6724C12.0048 45.7115 11.4491 45.5315 11.0068 45.2067L38.2059 6.61133C38.5093 6.81871 38.7614 7.09248 38.9432 7.41188C39.1249 7.73127 39.2315 8.08787 39.2548 8.45461Z" fill="#015ED4"/>
<path d="M12.4387 45.8715C11.8047 45.8715 11.1981 45.6445 10.7168 45.2179C10.4583 44.9918 10.2473 44.7165 10.0962 44.4082C9.94499 44.0998 9.85663 43.7644 9.83623 43.4216L7.73466 10.4617C7.69161 9.76514 7.91859 9.09201 8.38039 8.5676C8.84219 8.04318 9.4801 7.7301 10.1767 7.68705L36.6792 5.9964C38.1233 5.90639 39.3639 6.99827 39.4539 8.43845L41.5555 41.3983C41.6455 42.8385 40.5497 44.083 39.1134 44.173L12.6109 45.8636C12.5483 45.8715 12.4935 45.8715 12.4387 45.8715ZM36.8436 6.38384C36.7966 6.38384 36.7497 6.38384 36.6988 6.38775L10.1963 8.0784C9.60533 8.11754 9.06135 8.38366 8.66999 8.8298C8.27864 9.27595 8.08296 9.84732 8.11818 10.4383L10.2198 43.3981C10.2589 43.9891 10.525 44.533 10.9712 44.9244C11.4173 45.3157 11.9887 45.5114 12.5796 45.4762L39.0821 43.7856C40.3071 43.7073 41.2385 42.6506 41.1602 41.4257L39.0586 8.46584C38.9843 7.29178 38.0059 6.38384 36.8436 6.38384Z" fill="black"/>
<path d="M36.9096 8.53613L39.0323 41.6369L12.3874 43.3455L10.2646 10.2448L36.9096 8.53613Z" fill="white"/>
<path d="M10.2637 10.2325L11.6733 10.1425L13.796 43.2432L12.3864 43.3332L10.2637 10.2325ZM35.4234 8.61579L36.8335 8.52539L38.9562 41.6261L37.5461 41.7165L35.4234 8.61579Z" fill="#FADFCB"/>
<path d="M12.3759 43.5315C12.3265 43.532 12.2788 43.5136 12.2425 43.4802C12.2062 43.4467 12.1839 43.4007 12.1802 43.3515L10.0669 10.2508C10.063 10.1999 10.0826 10.149 10.1139 10.1099C10.1491 10.0707 10.196 10.0473 10.2469 10.0433L36.8903 8.34487C37.0038 8.34095 37.0899 8.41922 37.0977 8.5288L39.211 41.6295C39.215 41.6804 39.1954 41.7313 39.1641 41.7704C39.1289 41.8096 39.0819 41.833 39.031 41.837L12.3876 43.5354C12.3837 43.5315 12.3798 43.5315 12.3759 43.5315ZM10.47 10.4151L12.5559 43.1245L38.8079 41.4495L36.722 8.74013L10.47 10.4151Z" fill="black"/>
<path d="M29.3451 10.4192L18.1993 11.1315C17.491 11.1785 16.9274 10.5445 17.0527 9.85177L17.534 7.16316C17.5776 6.92257 17.7001 6.70339 17.8823 6.54034C18.0645 6.37729 18.2959 6.27971 18.5398 6.26305L20.1444 6.1613C20.5553 6.1339 20.9271 5.88344 21.0797 5.50382C21.3771 4.75242 22.2655 4.17713 23.3496 4.10669C24.4336 4.03624 25.3846 4.49804 25.7799 5.20248C25.9795 5.56253 26.3786 5.76212 26.7896 5.73863L28.3941 5.63688C28.895 5.60557 29.3529 5.92257 29.5056 6.40002L30.3235 9.00253C30.5309 9.67957 30.0534 10.3762 29.3451 10.4192Z" fill="#FFC378"/>
<path d="M18.0271 9.78849C17.9019 10.4812 18.4694 11.1152 19.1738 11.0682L18.1993 11.1308C17.491 11.1778 16.9274 10.5438 17.0527 9.8511L17.534 7.1625C17.5761 6.92194 17.6977 6.70247 17.8794 6.53926C18.061 6.37605 18.2922 6.27855 18.5359 6.26239L19.5104 6.19977C19.2667 6.21593 19.0355 6.31343 18.8538 6.47664C18.6722 6.63985 18.5506 6.85932 18.5085 7.09988L18.0271 9.78849ZM23.8348 4.10994C22.9817 4.29388 22.3046 4.80655 22.0542 5.44054C21.8976 5.82798 21.5298 6.07454 21.1149 6.10193L20.1405 6.16455C20.5553 6.13715 20.9232 5.8906 21.0797 5.50316C21.3771 4.75567 22.2655 4.17647 23.3456 4.10603C23.5139 4.09428 23.6744 4.09428 23.8348 4.10994Z" fill="#FFAB41"/>
<path d="M18.1255 11.3309C17.937 11.3313 17.7507 11.2903 17.5799 11.2108C17.409 11.1312 17.2578 11.0151 17.1368 10.8706C17.0158 10.7261 16.9281 10.5567 16.8798 10.3745C16.8315 10.1924 16.8239 10.0018 16.8575 9.81634L17.3388 7.12774C17.4445 6.54071 17.9298 6.1063 18.5246 6.06717L20.1292 5.96542C20.4736 5.94194 20.7749 5.73452 20.8962 5.42926C21.2289 4.59176 22.2073 3.98125 23.3344 3.91081C24.4576 3.83645 25.5103 4.32173 25.9447 5.10835C26.1052 5.39404 26.4339 5.56624 26.7744 5.54275L28.3789 5.441C28.9738 5.40187 29.5099 5.77365 29.69 6.34112L30.5079 8.94362C30.6253 9.32324 30.5666 9.72633 30.3396 10.0551C30.1126 10.3838 29.7565 10.5873 29.3573 10.6147L27.2205 10.7517C27.1109 10.7517 27.0209 10.6773 27.0131 10.5677C27.0053 10.4582 27.0875 10.3682 27.197 10.3603L29.3338 10.2233C29.6117 10.2038 29.8622 10.0629 30.0187 9.83591C30.1752 9.60892 30.2183 9.32715 30.1361 9.06103L29.3182 6.45852C29.1929 6.06326 28.8172 5.80105 28.4063 5.83236L26.8018 5.93411C26.3087 5.96542 25.839 5.71495 25.6081 5.30011C25.2442 4.64264 24.3441 4.23954 23.3618 4.30216C22.3834 4.36478 21.5381 4.87745 21.2602 5.57798C21.0841 6.02021 20.6497 6.32938 20.1566 6.36068L18.552 6.46244C18.1411 6.48983 17.8006 6.79117 17.7263 7.2021L17.2449 9.8907C17.1979 10.1607 17.2762 10.4386 17.4601 10.6421C17.6441 10.8495 17.9102 10.9591 18.1881 10.9395L24.7824 10.5208C24.888 10.5169 24.982 10.5951 24.9898 10.7047C24.9976 10.8143 24.9154 10.9043 24.8059 10.9121L18.2115 11.3309C18.1842 11.327 18.1528 11.3309 18.1255 11.3309Z" fill="black"/>
<path d="M20.6415 8.395C20.5398 8.395 20.4537 8.31673 20.4458 8.21106C20.438 8.10148 20.5202 8.01147 20.6298 8.00364L26.6684 7.62012C26.7182 7.62043 26.7661 7.63969 26.8023 7.67398C26.8384 7.70827 26.8602 7.75504 26.8632 7.80481C26.8662 7.85457 26.8502 7.90361 26.8183 7.94198C26.7865 7.98036 26.7413 8.0052 26.6918 8.01147L20.6532 8.395H20.6415ZM22.2969 15.2476C22.1952 15.2476 22.1091 15.1693 22.1013 15.0637C22.0934 14.9541 22.1756 14.8641 22.2852 14.8563L34.2098 14.0931C34.3193 14.0892 34.4093 14.1675 34.4172 14.277C34.425 14.3866 34.3428 14.4766 34.2332 14.4845L22.3126 15.2437C22.3087 15.2437 22.3048 15.2476 22.2969 15.2476ZM22.43 17.3296C22.3282 17.3296 22.2421 17.2513 22.2343 17.1457C22.2265 17.0361 22.3087 16.9461 22.4183 16.9383L34.3428 16.179C34.4563 16.1712 34.5424 16.2534 34.5502 16.363C34.5581 16.4725 34.4759 16.5626 34.3663 16.5704L22.4456 17.3296H22.43ZM22.5631 19.4116C22.4613 19.4116 22.3752 19.3333 22.3674 19.2277C22.3595 19.1181 22.4417 19.0281 22.5513 19.0203L29.9205 18.5506C30.0379 18.5467 30.1201 18.625 30.1279 18.7346C30.1358 18.8442 30.0536 18.9342 29.944 18.942L22.5748 19.4116H22.5631ZM22.8683 24.1509C22.7666 24.1509 22.6805 24.0726 22.6726 23.967C22.6648 23.8574 22.747 23.7674 22.8566 23.7596L32.5348 23.1412C32.6522 23.1334 32.7343 23.2156 32.7422 23.3252C32.75 23.4347 32.6678 23.5247 32.5582 23.5326L22.88 24.1509H22.8683ZM23.0014 26.2329C22.8996 26.2329 22.8135 26.1546 22.8057 26.049C22.7979 25.9394 22.8801 25.8494 22.9896 25.8416L32.6678 25.2232C32.7852 25.2154 32.8674 25.2976 32.8752 25.4072C32.8831 25.5167 32.8009 25.6067 32.6913 25.6146L23.0131 26.2329H23.0014ZM23.1344 28.3188C23.0327 28.3188 22.9466 28.2406 22.9388 28.1349C22.9309 28.0253 23.0131 27.9353 23.1227 27.9275L30.4919 27.4579C30.6093 27.45 30.6915 27.5322 30.6993 27.6418C30.7071 27.7514 30.6249 27.8414 30.5154 27.8492L23.1462 28.3188C23.1423 28.3149 23.1383 28.3188 23.1344 28.3188ZM23.4358 33.0542C23.334 33.0542 23.2479 32.9759 23.2401 32.8703C23.2323 32.7607 23.3145 32.6707 23.424 32.6629L35.3486 31.9036C35.466 31.8997 35.5482 31.978 35.556 32.0876C35.5638 32.1972 35.4817 32.2872 35.3721 32.295L23.4475 33.0542H23.4358ZM23.5688 35.1401C23.4671 35.1401 23.381 35.0619 23.3732 34.9562C23.3653 34.8466 23.4475 34.7566 23.5571 34.7488L35.4817 33.9896C35.5991 33.9856 35.6812 34.0639 35.6891 34.1735C35.6969 34.2831 35.6147 34.3731 35.5051 34.3809L23.5806 35.1401H23.5688ZM23.7019 37.2221C23.6001 37.2221 23.514 37.1439 23.5062 37.0382C23.4984 36.9286 23.5806 36.8386 23.6902 36.8308L31.0594 36.3612C31.1807 36.3572 31.2589 36.4355 31.2668 36.5451C31.2746 36.6547 31.1924 36.7447 31.0828 36.7525L23.7136 37.2221H23.7019Z" fill="black"/>
<path d="M19.4512 17.3225C19.502 18.1052 19.2281 18.8292 18.7467 19.381C18.5012 19.6603 18.2031 19.8884 17.8693 20.0522C17.5356 20.2161 17.1728 20.3125 16.8017 20.3359C15.2363 20.4377 13.89 19.248 13.7883 17.6864C13.7374 16.9037 14.0113 16.1797 14.4888 15.6318C14.9861 15.0677 15.6872 14.7242 16.4377 14.6769C17.2204 14.6261 17.9444 14.9 18.4884 15.3775C18.7701 15.6214 19.0003 15.9191 19.1657 16.253C19.331 16.587 19.428 16.9506 19.4512 17.3225Z" fill="#FF7D83"/>
<path d="M19.4529 17.3225C19.5037 18.1052 19.2298 18.8292 18.7484 19.381C18.503 19.6603 18.2048 19.8884 17.871 20.0522C17.5373 20.2161 17.1745 20.3125 16.8034 20.3359C16.1064 20.3827 15.4171 20.1678 14.8701 19.7332L18.1144 15.0957C18.2475 15.1779 18.3766 15.2718 18.4941 15.3736C18.7746 15.619 19.0038 15.9176 19.1684 16.2522C19.3329 16.5867 19.4296 16.9504 19.4529 17.3225Z" fill="#FF5671"/>
<path d="M16.6143 20.5389C15.8747 20.5389 15.1741 20.2728 14.6145 19.7836C14.0079 19.2475 13.6439 18.5078 13.5931 17.7016C13.5422 16.8954 13.8083 16.1166 14.3406 15.5022C14.6036 15.2026 14.9233 14.9581 15.2813 14.7828C15.6394 14.6075 16.0286 14.5048 16.4265 14.4808C17.2327 14.4299 18.0115 14.696 18.622 15.2282C18.9227 15.4905 19.1683 15.81 19.3443 16.1681C19.5204 16.5262 19.6234 16.9158 19.6473 17.3142C19.6982 18.1204 19.4321 18.9031 18.8959 19.5136C18.6337 19.8131 18.3146 20.0576 17.9572 20.2329C17.5999 20.4082 17.2113 20.5109 16.8139 20.535C16.7474 20.535 16.6808 20.5389 16.6143 20.5389ZM16.6221 14.8643C16.5634 14.8643 16.5087 14.8643 16.4499 14.8682C16.1036 14.8894 15.7648 14.9788 15.4531 15.1312C15.1414 15.2837 14.8628 15.4961 14.6334 15.7565C14.404 16.0168 14.2282 16.3199 14.1161 16.6483C14.0041 16.9767 13.958 17.324 13.9805 17.6703C14.0236 18.3747 14.3406 19.0205 14.8689 19.4862C15.3972 19.9519 16.0782 20.1828 16.7826 20.1397C17.487 20.0967 18.1289 19.7797 18.5946 19.2514C19.0642 18.7191 19.2951 18.0382 19.252 17.3376C19.209 16.6332 18.8881 15.9914 18.3598 15.5218C17.8818 15.0953 17.2627 14.8611 16.6221 14.8643Z" fill="black"/>
<path d="M16.2384 18.4763C16.1914 18.4763 16.1445 18.4607 16.1093 18.4294L15.4322 17.8345C15.4126 17.8175 15.3966 17.7968 15.3851 17.7735C15.3737 17.7502 15.367 17.7248 15.3655 17.6989C15.3641 17.673 15.3678 17.647 15.3766 17.6226C15.3854 17.5981 15.399 17.5757 15.4166 17.5566C15.487 17.4745 15.6122 17.4666 15.6944 17.541L16.2228 18.0067L17.4947 16.5626C17.5651 16.4804 17.6903 16.4726 17.7725 16.543C17.8547 16.6135 17.8625 16.7387 17.7921 16.8209L16.391 18.4137C16.3558 18.4528 16.3089 18.4763 16.258 18.4802C16.2462 18.4763 16.2423 18.4763 16.2384 18.4763Z" fill="black"/>
<path d="M20.0195 26.2297C20.0704 27.0124 19.7964 27.7364 19.3151 28.2882C19.0696 28.5675 18.7715 28.7956 18.4377 28.9595C18.1039 29.1233 17.7411 29.2197 17.37 29.2431C15.8046 29.3449 14.4584 28.1552 14.3566 26.5937C14.3057 25.811 14.5797 25.087 15.0571 24.5391C15.5545 23.9749 16.2555 23.6314 17.0061 23.5842C17.7888 23.5333 18.5128 23.8072 19.0568 24.2847C19.3388 24.5283 19.5693 24.8259 19.7346 25.16C19.8999 25.494 19.9968 25.8577 20.0195 26.2297Z" fill="#FF7D83"/>
<path d="M20.0193 26.2258C20.0702 27.0085 19.7962 27.7325 19.3148 28.2844C19.0694 28.5636 18.7712 28.7917 18.4375 28.9556C18.1037 29.1194 17.7409 29.2158 17.3698 29.2393C16.6728 29.286 15.9835 29.0711 15.4365 28.6366L18.6808 23.999C18.8139 24.0812 18.9431 24.1751 19.0605 24.2769C19.3414 24.5221 19.5708 24.8206 19.7354 25.1552C19.8999 25.4897 19.9965 25.8537 20.0193 26.2258Z" fill="#FF5671"/>
<path d="M17.1807 29.4422C16.4411 29.4422 15.7405 29.1761 15.1809 28.6869C14.5743 28.1508 14.2103 27.4111 14.1595 26.6049C14.1086 25.7987 14.3747 25.0199 14.907 24.4055C15.17 24.106 15.4897 23.8615 15.8477 23.6861C16.2058 23.5108 16.595 23.4082 16.9929 23.3841C17.7991 23.3332 18.5818 23.5993 19.1884 24.1316C19.4891 24.3938 19.7347 24.7133 19.9107 25.0714C20.0868 25.4296 20.1898 25.8192 20.2137 26.2175C20.2646 27.0237 19.9985 27.8064 19.4623 28.4169C19.1996 28.7155 18.8804 28.9592 18.5231 29.1338C18.1657 29.3085 17.7773 29.4106 17.3803 29.4344C17.3138 29.4383 17.2473 29.4422 17.1807 29.4422ZM17.1886 23.7676C17.1298 23.7676 17.0751 23.7676 17.0164 23.7715C16.67 23.7927 16.3312 23.8821 16.0195 24.0346C15.7078 24.187 15.4292 24.3995 15.1998 24.6598C14.9704 24.9201 14.7946 25.2232 14.6826 25.5516C14.5705 25.88 14.5244 26.2273 14.5469 26.5736C14.59 27.2781 14.907 27.9199 15.4353 28.3895C15.6948 28.6202 15.9977 28.7969 16.3263 28.9091C16.6549 29.0213 17.0026 29.0669 17.349 29.0431C18.0534 29 18.6953 28.683 19.161 28.1547C19.6306 27.6224 19.8615 26.9415 19.8184 26.241C19.7754 25.5365 19.4545 24.8947 18.9262 24.4251C18.4472 24.0002 17.8288 23.7662 17.1886 23.7676Z" fill="black"/>
<path d="M16.8058 27.3796C16.7588 27.3796 16.7119 27.364 16.6766 27.3327L15.9996 26.7378C15.98 26.7208 15.9639 26.7001 15.9525 26.6768C15.941 26.6535 15.9344 26.6281 15.9329 26.6022C15.9315 26.5763 15.9352 26.5503 15.944 26.5259C15.9528 26.5015 15.9663 26.479 15.9839 26.46C16.0544 26.3778 16.1796 26.3699 16.2618 26.4443L16.7901 26.91L18.062 25.4659C18.1325 25.3837 18.2577 25.3759 18.3399 25.4463C18.4221 25.5168 18.4299 25.642 18.3595 25.7242L16.9584 27.317C16.9232 27.3562 16.8762 27.3796 16.8254 27.3836C16.8136 27.3796 16.8097 27.3796 16.8058 27.3796Z" fill="black"/>
<path d="M20.5869 35.133C20.6378 35.9157 20.3638 36.6397 19.8825 37.1916C19.637 37.4708 19.3388 37.6989 19.0051 37.8628C18.6713 38.0266 18.3085 38.123 17.9374 38.1465C16.372 38.2482 15.0258 37.0585 14.924 35.497C14.8731 34.7143 15.1471 33.9903 15.6245 33.4424C16.1219 32.8782 16.8229 32.5348 17.5735 32.4875C18.3562 32.4366 19.0802 32.7106 19.6242 33.188C19.9065 33.4314 20.1372 33.7289 20.3026 34.063C20.4679 34.3971 20.5646 34.7609 20.5869 35.133Z" fill="#FF7D83"/>
<path d="M20.5857 35.1331C20.6366 35.9158 20.3626 36.6398 19.8812 37.1916C19.6358 37.4708 19.3376 37.6989 19.0039 37.8628C18.6701 38.0266 18.3073 38.1231 17.9362 38.1465C17.2392 38.1932 16.5499 37.9783 16.0029 37.5438L19.2473 32.9062C19.6332 33.1422 19.9565 33.4678 20.1895 33.8555C20.4225 34.2433 20.5585 34.6815 20.5857 35.1331Z" fill="#FF5671"/>
<path d="M17.753 38.3456C16.168 38.3456 14.8296 37.1089 14.7278 35.5043C14.677 34.6981 14.9431 33.9194 15.4753 33.3049C15.7383 33.0054 16.0581 32.7609 16.4161 32.5856C16.7741 32.4102 17.1633 32.3076 17.5612 32.2835C18.3674 32.2326 19.1501 32.4987 19.7567 33.031C20.0575 33.2932 20.3031 33.6127 20.4791 33.9709C20.6551 34.329 20.7581 34.7186 20.7821 35.1169C20.833 35.9231 20.5668 36.7058 20.0307 37.3163C19.7684 37.6158 19.4494 37.8603 19.092 38.0356C18.7346 38.211 18.346 38.3136 17.9487 38.3377C17.8821 38.3456 17.8195 38.3456 17.753 38.3456ZM17.7608 32.6709C17.7021 32.6709 17.6473 32.6709 17.5886 32.6748C17.2423 32.6961 16.9035 32.7855 16.5918 32.9379C16.2801 33.0903 16.0015 33.3028 15.7721 33.5631C15.5426 33.8235 15.3669 34.1265 15.2548 34.4549C15.1428 34.7834 15.0967 35.1307 15.1192 35.4769C15.2131 36.9289 16.4733 38.0403 17.9252 37.9464C18.6296 37.9033 19.2715 37.5863 19.7372 37.058C20.2068 36.5258 20.4377 35.8448 20.3946 35.1443C20.3516 34.4399 20.0307 33.798 19.5023 33.3284C19.0212 32.9046 18.402 32.6709 17.7608 32.6709Z" fill="black"/>
<path d="M17.3742 36.2878C17.3272 36.2878 17.2802 36.2722 17.245 36.2409L16.568 35.646C16.5483 35.629 16.5323 35.6083 16.5209 35.585C16.5094 35.5617 16.5027 35.5363 16.5013 35.5104C16.4998 35.4845 16.5036 35.4585 16.5124 35.4341C16.5211 35.4097 16.5347 35.3872 16.5523 35.3682C16.6228 35.286 16.748 35.2781 16.8302 35.3525L17.3585 35.8182L18.6304 34.3741C18.7008 34.2919 18.8261 34.2841 18.9083 34.3546C18.9904 34.425 18.9983 34.5502 18.9278 34.6324L17.5268 36.2252C17.4916 36.2644 17.4446 36.2878 17.3937 36.2918C17.382 36.2878 17.3781 36.2878 17.3742 36.2878Z" fill="black"/>
<path d="M35.5781 22.1211L42.5431 9.72656L48.2556 12.9368L41.2907 25.331L35.5781 22.1211Z" fill="#FF7D83"/>
<path d="M35.5762 22.1217L42.5411 9.72754L43.5203 10.2778L36.5553 22.672L35.5762 22.1217ZM40.3163 24.7837L47.2812 12.3895L48.2604 12.9398L41.2958 25.334L40.3163 24.7837Z" fill="#FF5671"/>
<path d="M50.5295 8.91212L49.3398 11.0254L43.6221 7.81242L44.8118 5.6991C45.0735 5.23539 45.5084 4.8943 46.0211 4.75053C46.5339 4.60676 47.0827 4.67203 47.5474 4.93205L49.7663 6.18047C50.2297 6.44162 50.5703 6.87606 50.7134 7.3883C50.8565 7.90055 50.7904 8.44865 50.5295 8.91212Z" fill="#158ED8"/>
<path d="M46.701 4.6863C45.9536 4.63542 45.2061 5.00329 44.8147 5.6999L43.625 7.81322L44.6269 8.37677L46.701 4.6863ZM50.4111 6.77221C50.8416 7.38664 50.9198 8.21631 50.5285 8.91292L49.3388 11.0262L48.3369 10.4627L50.4111 6.77221Z" fill="#015ED4"/>
<path d="M42.5332 9.72821L43.6188 7.79688L49.3416 11.0126L48.2564 12.9444L42.5332 9.72821Z" fill="#FADFCB"/>
<path d="M43.5107 10.2765L44.596 8.34473L48.3635 10.462L47.2779 12.3933L43.5107 10.2765Z" fill="white"/>
<path d="M41.2887 25.3449L35.1797 29.5167L35.575 22.1279L41.2887 25.3449Z" fill="#FFC378"/>
<path d="M36.0054 28.9571L35.1797 29.5167L35.575 22.1279L36.342 22.5584L36.0054 28.9571Z" fill="#FFAB41"/>
<path d="M41.2856 25.5405C41.2543 25.5405 41.219 25.5326 41.1877 25.517L35.4779 22.3079C35.4309 22.2844 35.3996 22.2413 35.384 22.1905C35.3683 22.1396 35.3761 22.0887 35.4035 22.0418L42.3696 9.65148C42.4205 9.55756 42.5418 9.52234 42.6357 9.57713L48.3456 12.7862C48.4395 12.841 48.4747 12.9584 48.42 13.0524L46.3693 16.7037C46.3145 16.7976 46.1971 16.8328 46.1031 16.778C46.0092 16.7233 45.974 16.6058 46.0288 16.5119L47.9856 13.0328L42.6162 10.0154L35.8418 22.0574L41.2112 25.0787L44.6943 18.8835C44.7451 18.7896 44.8665 18.7544 44.9604 18.8092C45.0543 18.864 45.0895 18.9814 45.0347 19.0753L41.4578 25.4387C41.4225 25.5013 41.356 25.5405 41.2856 25.5405ZM49.3396 11.2208C49.3083 11.2208 49.2731 11.213 49.2418 11.1973L43.528 7.98431C43.4811 7.95692 43.4498 7.91778 43.4341 7.86691C43.4185 7.81603 43.4263 7.76516 43.4537 7.71819L44.6434 5.60488C44.933 5.09221 45.4026 4.72042 45.9701 4.56388C46.5375 4.40734 47.1324 4.47778 47.6451 4.76347L49.8641 6.00798C50.373 6.2941 50.7475 6.77058 50.9053 7.3327C51.063 7.89482 50.9912 8.49659 50.7055 9.00575L49.5157 11.1191C49.4727 11.1856 49.4101 11.2208 49.3396 11.2208ZM43.892 7.73776L49.2653 10.759L50.3572 8.81399C50.8464 7.94518 50.5372 6.83765 49.6645 6.34845L47.4455 5.10395C47.2385 4.98597 47.0099 4.91065 46.7733 4.88242C46.5367 4.85419 46.2969 4.87362 46.0679 4.93958C45.8383 5.00307 45.6235 5.11152 45.4361 5.25864C45.2486 5.40577 45.0923 5.58863 44.976 5.79664L43.892 7.73776Z" fill="black"/>
<path d="M48.2597 13.155C48.2284 13.155 48.1932 13.1472 48.1619 13.1315L42.4403 9.91459C42.3933 9.88719 42.362 9.84806 42.3463 9.79718C42.3307 9.74631 42.3385 9.69543 42.3659 9.64847L43.45 7.71909C43.4734 7.67213 43.5165 7.64082 43.5674 7.62517C43.6182 7.60951 43.6691 7.61734 43.7161 7.64473L49.4377 10.8617C49.5316 10.9165 49.5668 11.0339 49.512 11.1278L48.428 13.0572C48.4045 13.1041 48.3615 13.1354 48.3106 13.1511C48.2949 13.1511 48.2754 13.155 48.2597 13.155ZM42.8042 9.66803L48.1853 12.6932L49.0776 11.1043L43.6965 8.07914L42.8042 9.66803ZM35.1807 29.7132C35.154 29.7143 35.1274 29.7097 35.1026 29.6997C35.0779 29.6898 35.0555 29.6747 35.037 29.6555C35.0185 29.6362 35.0043 29.6133 34.9954 29.5882C34.9864 29.563 34.9828 29.5363 34.985 29.5097L35.3763 22.1209C35.3802 22.0544 35.4194 21.9918 35.4781 21.9605C35.5368 21.9292 35.6111 21.9292 35.6698 21.9605L41.3875 25.1735C41.4462 25.2048 41.4854 25.2674 41.4854 25.3339C41.4868 25.367 41.4796 25.3999 41.4645 25.4294C41.4494 25.4589 41.4269 25.484 41.3993 25.5022L35.2902 29.6819C35.2589 29.7015 35.2198 29.7132 35.1807 29.7132ZM35.752 22.4536L35.3959 29.134L40.9179 25.3613L35.752 22.4536Z" fill="black"/>
<path d="M38.4318 23.9325C38.4005 23.9325 38.3653 23.9247 38.334 23.9091C38.3116 23.8966 38.2918 23.8797 38.2759 23.8596C38.26 23.8394 38.2483 23.8162 38.2414 23.7915C38.2344 23.7668 38.2325 23.7409 38.2356 23.7154C38.2388 23.6899 38.2469 23.6653 38.2596 23.6429L45.2257 11.2527C45.2766 11.1587 45.3979 11.1235 45.4919 11.1783C45.5858 11.2331 45.621 11.3505 45.5662 11.4444L38.6001 23.8347C38.5649 23.8973 38.4984 23.9325 38.4318 23.9325ZM35.3715 25.8932L35.1797 29.5172L38.1775 27.4704L35.3715 25.8932Z" fill="black"/>
<path d="M35.1807 29.7125C35.154 29.7136 35.1274 29.709 35.1026 29.6991C35.0779 29.6891 35.0555 29.674 35.037 29.6548C35.0185 29.6356 35.0043 29.6126 34.9954 29.5875C34.9864 29.5624 34.9828 29.5356 34.985 29.509L35.1767 25.8851C35.1807 25.8186 35.2198 25.756 35.2785 25.7247C35.3372 25.6933 35.4115 25.6933 35.4703 25.7247L38.2723 27.3018C38.3311 27.3331 38.3702 27.3957 38.3702 27.4623C38.3716 27.4954 38.3644 27.5283 38.3493 27.5578C38.3342 27.5872 38.3118 27.6123 38.2841 27.6305L35.2863 29.6773C35.2589 29.7008 35.2198 29.7125 35.1807 29.7125ZM35.5524 26.2178L35.3959 29.1333L37.8066 27.4857L35.5524 26.2178Z" fill="black"/>
<path d="M44.3311 34.5886L45.4628 31.4902L47.3296 32.1724L46.1978 35.2703L44.3311 34.5886Z" fill="white"/>
<path d="M46.2156 35.4613C46.1921 35.4613 46.1686 35.4573 46.1491 35.4495L44.2823 34.7686C44.2342 34.7501 44.1951 34.7137 44.1732 34.667C44.1513 34.6203 44.1483 34.5669 44.1649 34.5181L45.2959 31.4186C45.3311 31.3168 45.4446 31.2659 45.5464 31.3012L47.4131 31.9821C47.4613 32.0006 47.5004 32.037 47.5223 32.0837C47.5441 32.1304 47.5471 32.1838 47.5305 32.2326L46.3995 35.3321C46.3721 35.4143 46.2939 35.4613 46.2156 35.4613ZM44.5993 34.4672L46.0982 35.0151L47.0961 32.2835L45.5972 31.7356L44.5993 34.4672Z" fill="black"/>
<path d="M42.5058 51.9139C47.6931 51.9139 51.8983 47.7087 51.8983 42.5214C51.8983 37.3341 47.6931 33.1289 42.5058 33.1289C37.3184 33.1289 33.1133 37.3341 33.1133 42.5214C33.1133 47.7087 37.3184 51.9139 42.5058 51.9139Z" fill="#FFC378"/>
<path d="M48.7321 44.7991C47.4759 48.2351 43.668 50.0041 40.2319 48.7478C38.6613 48.1775 37.3659 47.0318 36.608 45.5426C36.1902 44.7307 35.9453 43.8409 35.8887 42.9296C35.8321 42.0182 35.9651 41.105 36.2792 40.2476C37.5355 36.8076 41.3434 35.0387 44.7834 36.2949C46.4466 36.9015 47.7146 38.1069 48.4464 39.5745C49.2252 41.1477 49.3818 43.0223 48.7321 44.7991Z" fill="white"/>
<path d="M51.3269 45.7462C49.5463 50.6147 44.1534 53.1233 39.2811 51.3426C37.0509 50.5298 35.2128 48.9001 34.1387 46.7833L50.9121 38.3301C52.0196 40.5647 52.2466 43.2259 51.3269 45.7462Z" fill="#FFAB41"/>
<path d="M42.4949 52.1097C41.403 52.1097 40.2955 51.9219 39.2154 51.5266C34.4017 49.7655 31.8266 44.5566 33.3529 39.6686C33.3842 39.5668 33.4938 39.5081 33.5994 39.5394C33.7012 39.5707 33.7599 39.6803 33.7286 39.786C32.2649 44.4744 34.7344 49.472 39.3523 51.1587C41.6613 52.004 44.1582 51.8945 46.385 50.8613C47.4819 50.3542 48.4675 49.6349 49.285 48.7449C50.1024 47.8549 50.7355 46.8118 51.1478 45.6759C51.9892 43.3669 51.8835 40.87 50.8503 38.6432C50.3433 37.5463 49.624 36.5607 48.734 35.7432C47.8439 34.9258 46.8009 34.2926 45.6649 33.8804C41.81 32.4716 37.4425 33.81 35.0474 37.1365C34.9848 37.2226 34.8596 37.2422 34.7735 37.1796C34.6874 37.1169 34.6639 36.9956 34.7305 36.9056C37.2273 33.4382 41.7827 32.0411 45.8019 33.5087C48.2087 34.3892 50.1263 36.1503 51.2065 38.4749C52.2866 40.7996 52.3962 43.4021 51.5156 45.805C50.0911 49.6951 46.4085 52.1097 42.4949 52.1097Z" fill="black"/>
<path d="M48.7325 44.7998C47.4763 48.2359 43.6684 50.0048 40.2323 48.7485C38.6617 48.1782 37.3664 47.0325 36.6084 45.5433L48.4469 39.5791C49.2257 41.1484 49.3822 43.023 48.7325 44.7998Z" fill="#FADFCB"/>
<path d="M42.5099 49.3507C41.7193 49.3507 40.9288 49.2099 40.1618 48.932C38.4476 48.3058 37.0818 47.0496 36.3147 45.3981C35.5477 43.7466 35.4694 41.8915 36.0956 40.1813C36.7218 38.4711 37.978 37.1053 39.6295 36.3343C40.4414 35.9547 41.3205 35.7399 42.2159 35.7023C43.1114 35.6646 44.0054 35.805 44.8463 36.1152C46.5604 36.7413 47.9262 37.9976 48.6933 39.6491C49.4603 41.3006 49.5386 43.1556 48.9124 44.8658C48.6071 45.7089 48.1376 46.4831 47.531 47.1434C46.9243 47.8038 46.1927 48.3372 45.3785 48.7128C44.48 49.1314 43.5011 49.3491 42.5099 49.3507ZM42.5021 36.0838C41.5785 36.0838 40.6588 36.2873 39.7939 36.6865C38.2363 37.4105 37.0544 38.6981 36.4635 40.3105C35.8725 41.9228 35.9469 43.6722 36.6709 45.2298C37.3949 46.7874 38.6824 47.9693 40.2948 48.5602C41.9072 49.1512 43.6565 49.0768 45.2141 48.3528C46.7717 47.6288 47.9536 46.3412 48.5446 44.7289C49.1355 43.1165 49.0611 41.3671 48.3371 39.8095C47.6131 38.2519 46.3256 37.0701 44.7132 36.4791C43.9931 36.2169 43.2456 36.0838 42.5021 36.0838Z" fill="black"/>
<path d="M44.518 37.2104C44.4866 37.2103 44.4557 37.2027 44.4279 37.1881C44.4001 37.1736 44.3761 37.1526 44.3581 37.1269C44.3401 37.1013 44.3285 37.0716 44.3243 37.0405C44.3201 37.0094 44.3235 36.9777 44.3341 36.9482L44.5963 36.2281C44.6163 36.1827 44.6529 36.1466 44.6986 36.1271C44.7442 36.1076 44.7956 36.1061 44.8423 36.123C44.889 36.1399 44.9275 36.1739 44.9501 36.2181C44.9728 36.2623 44.9778 36.3134 44.9641 36.3612L44.7019 37.0813C44.6745 37.1634 44.5963 37.2104 44.518 37.2104ZM40.2327 48.9432C40.2013 48.9431 40.1704 48.9355 40.1426 48.9209C40.1147 48.9064 40.0908 48.8854 40.0728 48.8597C40.0548 48.834 40.0432 48.8044 40.039 48.7733C40.0348 48.7422 40.0381 48.7105 40.0487 48.681L40.3109 47.9609C40.331 47.9155 40.3676 47.8794 40.4132 47.8599C40.4589 47.8404 40.5103 47.8389 40.557 47.8558C40.6036 47.8727 40.6422 47.9067 40.6648 47.9509C40.6874 47.9951 40.6924 48.0462 40.6788 48.094L40.4166 48.8141C40.3853 48.8923 40.3109 48.9432 40.2327 48.9432ZM37.0001 40.7052C36.9766 40.7052 36.9531 40.7013 36.9336 40.6935L36.2135 40.4313C36.1681 40.4112 36.1319 40.3746 36.1124 40.329C36.0929 40.2833 36.0915 40.2319 36.1084 40.1852C36.1253 40.1386 36.1592 40.1 36.2034 40.0774C36.2476 40.0548 36.2988 40.0498 36.3465 40.0634L37.0666 40.3256C37.1094 40.3417 37.1453 40.3722 37.1679 40.4119C37.1906 40.4516 37.1987 40.498 37.1908 40.543C37.1829 40.588 37.1596 40.6289 37.1247 40.6585C37.0899 40.6881 37.0458 40.7046 37.0001 40.7052ZM48.7329 44.9905C48.7094 44.9905 48.6859 44.9866 48.6664 44.9788L47.9463 44.7166C47.9008 44.6965 47.8647 44.6599 47.8452 44.6143C47.8257 44.5686 47.8243 44.5173 47.8412 44.4706C47.8581 44.4239 47.892 44.3853 47.9362 44.3627C47.9804 44.3401 48.0316 44.3351 48.0793 44.3487L48.7994 44.6109C48.8422 44.627 48.8781 44.6575 48.9007 44.6972C48.9234 44.7369 48.9315 44.7833 48.9236 44.8283C48.9157 44.8734 48.8923 44.9142 48.8575 44.9438C48.8227 44.9735 48.7786 44.99 48.7329 44.9905ZM40.037 37.4022C39.9626 37.4022 39.8922 37.3591 39.8609 37.2887L39.5361 36.5921C39.5249 36.569 39.5185 36.5439 39.5172 36.5184C39.5159 36.4928 39.5197 36.4672 39.5285 36.4431C39.5373 36.419 39.5507 36.3969 39.5682 36.3782C39.5856 36.3594 39.6066 36.3443 39.63 36.3338C39.6531 36.3226 39.6781 36.3162 39.7037 36.3149C39.7293 36.3136 39.7549 36.3175 39.779 36.3262C39.803 36.335 39.8251 36.3485 39.8439 36.3659C39.8627 36.3833 39.8778 36.4043 39.8883 36.4277L40.2131 37.1243C40.2601 37.2222 40.217 37.3396 40.1192 37.3826C40.0918 37.3943 40.0644 37.4022 40.037 37.4022ZM45.3007 48.728C45.2263 48.728 45.1559 48.6849 45.1246 48.6145L44.7998 47.9179C44.7528 47.82 44.7959 47.7026 44.8937 47.6596C44.9915 47.6165 45.1089 47.6557 45.152 47.7535L45.4768 48.4501C45.5238 48.5479 45.4807 48.6653 45.3829 48.7084C45.3555 48.724 45.3281 48.728 45.3007 48.728ZM36.4952 45.511C36.4209 45.511 36.3504 45.468 36.3191 45.3975C36.308 45.3745 36.3016 45.3494 36.3003 45.3238C36.299 45.2982 36.3028 45.2726 36.3116 45.2486C36.3203 45.2245 36.3338 45.2024 36.3512 45.1836C36.3687 45.1649 36.3897 45.1498 36.4131 45.1392L37.1097 44.8144C37.2075 44.7714 37.3249 44.8105 37.368 44.9083C37.4149 45.0062 37.3719 45.1236 37.274 45.1666L36.5774 45.4915C36.55 45.5032 36.5226 45.511 36.4952 45.511ZM47.821 40.2473C47.7467 40.2473 47.6762 40.2043 47.6449 40.1338C47.6338 40.1108 47.6274 40.0857 47.6261 40.0601C47.6248 40.0345 47.6286 40.0089 47.6374 39.9849C47.6461 39.9608 47.6596 39.9387 47.677 39.9199C47.6945 39.9011 47.7155 39.8861 47.7388 39.8755L48.4355 39.5507C48.5333 39.5077 48.6507 39.5468 48.6937 39.6446C48.7407 39.7425 48.6977 39.8599 48.5998 39.9029L47.9032 40.2278C47.8758 40.2395 47.8484 40.2473 47.821 40.2473Z" fill="black"/>
<path d="M48.6278 32.3699V32.3738C48.5451 32.5984 48.3766 32.7809 48.1595 32.8814C47.9423 32.982 47.6941 32.9922 47.4694 32.91L44.9099 31.9747C44.7983 31.9349 44.6956 31.8733 44.6079 31.7936C44.5201 31.7139 44.4491 31.6175 44.3989 31.5102C44.3487 31.4028 44.3202 31.2865 44.3152 31.1681C44.3103 31.0496 44.3288 30.9314 44.3699 30.8202V30.8163C44.4528 30.5908 44.6217 30.4075 44.8395 30.3063C45.0574 30.205 45.3064 30.1942 45.5322 30.2762L48.0916 31.2115C48.5613 31.3837 48.8 31.9042 48.6278 32.3699Z" fill="#FF7D83"/>
<path d="M45.7934 32.299L44.9089 31.9741C44.7975 31.934 44.6952 31.8722 44.6077 31.7924C44.5202 31.7126 44.4494 31.6163 44.3992 31.509C44.349 31.4017 44.3205 31.2856 44.3153 31.1673C44.3101 31.0491 44.3283 30.9309 44.3689 30.8196V30.8157C44.5411 30.3461 45.0576 30.0995 45.5312 30.2717L46.4156 30.5966C45.9421 30.4244 45.4216 30.667 45.2494 31.1366V31.1405C45.0811 31.6102 45.3199 32.1268 45.7934 32.299Z" fill="#FF5671"/>
<path d="M47.7809 33.164C47.6518 33.164 47.5226 33.1405 47.4013 33.0974L44.8419 32.1621C44.5679 32.0624 44.3448 31.858 44.2215 31.5938C44.0982 31.3296 44.0848 31.0273 44.1844 30.7532C44.2861 30.4715 44.4896 30.2523 44.7558 30.131C45.0219 30.0058 45.3193 29.994 45.5972 30.0958L48.1566 31.0311C48.728 31.2385 49.0215 31.8725 48.8141 32.4439V32.4478C48.7124 32.7257 48.5128 32.9448 48.2466 33.0661C48.094 33.1288 47.9375 33.164 47.7809 33.164ZM45.2176 30.4167C45.0723 30.4168 44.9306 30.4616 44.8116 30.5449C44.6927 30.6282 44.6021 30.746 44.5523 30.8824C44.4192 31.2503 44.607 31.6573 44.9749 31.7903L47.5344 32.7257C47.7144 32.7922 47.9062 32.7844 48.0784 32.7061C48.2506 32.6278 48.3797 32.4869 48.4423 32.3108V32.3069C48.5066 32.1305 48.4982 31.9357 48.419 31.7654C48.3397 31.5952 48.1961 31.4634 48.0197 31.399L45.4602 30.4636C45.3819 30.4323 45.2997 30.4167 45.2176 30.4167ZM44.1609 46.2822C44.0865 46.2822 44.0161 46.2391 43.9848 46.1687L42.3294 42.6034C42.3073 42.5568 42.3045 42.5034 42.3215 42.4547L43.8361 38.3064C43.8562 38.261 43.8927 38.2249 43.9384 38.2054C43.984 38.1858 44.0354 38.1844 44.0821 38.2013C44.1288 38.2182 44.1673 38.2521 44.19 38.2963C44.2126 38.3405 44.2176 38.3917 44.204 38.4394L42.7168 42.5095L44.3409 46.0004C44.3879 46.0982 44.3448 46.2156 44.247 46.2587C44.2196 46.2783 44.1883 46.2822 44.1609 46.2822Z" fill="black"/>
<path d="M42.5065 43.3978C42.9907 43.3978 43.3832 43.0053 43.3832 42.5212C43.3832 42.037 42.9907 41.6445 42.5065 41.6445C42.0224 41.6445 41.6299 42.037 41.6299 42.5212C41.6299 43.0053 42.0224 43.3978 42.5065 43.3978Z" fill="black"/>
<path d="M37.1211 43.1988C37.0194 43.1988 36.9372 43.1205 36.9255 43.0188C36.9176 42.9131 36.9959 42.8153 37.1016 42.8075L42.4866 42.3261C42.5923 42.3183 42.6901 42.3965 42.6979 42.5022C42.7058 42.6079 42.6275 42.7057 42.5218 42.7135L37.1368 43.1949C37.1329 43.1988 37.129 43.1988 37.1211 43.1988ZM47.2298 25.6192C46.7054 25.58 46.3101 25.1222 46.3493 24.6017C46.3884 24.0812 46.8424 23.6898 47.3668 23.725C47.8912 23.7642 48.2865 24.2181 48.2473 24.7386C48.2121 25.2631 47.7542 25.6544 47.2298 25.6192ZM47.3355 24.1633C47.0537 24.1438 46.8072 24.3512 46.7876 24.633C46.7844 24.7646 46.832 24.8924 46.9205 24.9899C47.009 25.0874 47.1316 25.1471 47.2629 25.1566C47.3942 25.1662 47.5242 25.1249 47.6258 25.0412C47.7275 24.9576 47.7931 24.838 47.809 24.7073C47.8138 24.6405 47.8054 24.5734 47.7841 24.5098C47.7629 24.4462 47.7293 24.3875 47.6853 24.3369C47.6413 24.2864 47.5877 24.245 47.5277 24.2152C47.4677 24.1855 47.4024 24.1678 47.3355 24.1633ZM52.4466 27.529C52.4231 27.8303 52.1648 28.0534 51.8635 28.0338C51.566 28.0104 51.339 27.7521 51.3586 27.4507C51.3821 27.1572 51.6443 26.9302 51.9417 26.9498C52.2431 26.9733 52.4701 27.2355 52.4466 27.529ZM52.02 33.9589C51.9965 34.2603 51.7382 34.4834 51.4369 34.4638C51.1395 34.4403 50.9125 34.182 50.932 33.8807C50.9555 33.5872 51.2177 33.3602 51.5152 33.3797C51.8204 33.3993 52.0435 33.6615 52.02 33.9589ZM50.1102 20.2811C49.5858 20.242 49.1905 19.7841 49.2296 19.2636C49.2688 18.7431 49.7227 18.3517 50.2472 18.387C50.7716 18.4261 51.1668 18.8801 51.1277 19.4006C51.1191 19.5253 51.0859 19.6472 51.03 19.759C50.9741 19.8709 50.8967 19.9706 50.8021 20.0525C50.7075 20.1343 50.5977 20.1966 50.479 20.2359C50.3602 20.2751 50.2349 20.2905 50.1102 20.2811ZM50.2159 18.8253C49.9341 18.8057 49.6875 19.0131 49.668 19.2949C49.6648 19.4265 49.7124 19.5543 49.8009 19.6518C49.8894 19.7493 50.012 19.809 50.1433 19.8186C50.2746 19.8281 50.4045 19.7868 50.5062 19.7032C50.6079 19.6195 50.6735 19.5 50.6894 19.3693C50.709 19.0914 50.4976 18.8488 50.2159 18.8253ZM50.932 13.5381C50.9086 13.8394 50.6503 14.0625 50.3489 14.0429C50.0515 14.0194 49.8245 13.7612 49.8441 13.4598C49.8675 13.1663 50.1298 12.9393 50.4272 12.9589C50.5705 12.9699 50.7037 13.0368 50.7981 13.1452C50.8926 13.2535 50.9407 13.3946 50.932 13.5381ZM4.03216 47.5546C3.94117 47.4688 3.86798 47.3659 3.81677 47.2518C3.76556 47.1377 3.73733 47.0146 3.7337 46.8896C3.73006 46.7645 3.75109 46.64 3.79559 46.5231C3.84009 46.4063 3.90718 46.2993 3.99303 46.2083C4.35307 45.8287 4.95184 45.8131 5.33537 46.1731C5.7189 46.5331 5.73455 47.1358 5.37842 47.5154C5.01837 47.8951 4.41569 47.9146 4.03216 47.5546ZM5.03403 46.4901C4.83052 46.2983 4.5057 46.3062 4.31394 46.5097C4.12217 46.7132 4.13 47.038 4.3335 47.2337C4.53701 47.4254 4.86183 47.4176 5.05751 47.2102C5.24927 47.0067 5.23753 46.6858 5.03403 46.4901ZM8.204 52.2313C7.99658 52.4504 7.65219 52.4622 7.43303 52.2547C7.21387 52.0512 7.20213 51.7029 7.40955 51.4838C7.61305 51.2685 7.96136 51.2568 8.1766 51.4642C8.39967 51.6677 8.4075 52.0121 8.204 52.2313ZM9.29196 3.34331C9.75767 3.10067 10.333 3.28069 10.5756 3.7464C10.8182 4.2082 10.6343 4.78349 10.1725 5.02613C9.7068 5.26877 9.1315 5.08875 8.88886 4.62695C8.64622 4.16515 8.82625 3.58595 9.29196 3.34331ZM9.969 4.63869C10.2195 4.50955 10.3173 4.20038 10.1882 3.95382C10.059 3.70336 9.74984 3.60552 9.49938 3.73858C9.24891 3.87164 9.15107 4.18081 9.28413 4.42736C9.40937 4.67391 9.71854 4.76784 9.969 4.63869ZM3.51166 5.75797C3.37077 5.48793 3.47253 5.16311 3.73865 5.02222C4.00477 4.88525 4.3335 4.98308 4.47439 5.25312C4.61137 5.51533 4.50961 5.84798 4.24349 5.98495C3.97737 6.12584 3.64863 6.02017 3.51166 5.75797Z" fill="black"/>
</svg>
