<svg width="56" height="56" viewBox="0 0 56 56" fill="none" xmlns="http://www.w3.org/2000/svg">
<path d="M9.01711 42.3845C7.95406 42.0907 7.32438 40.9844 7.61064 39.9135L16.2668 7.52896C16.5531 6.458 17.6469 5.82798 18.7099 6.12174L43.8001 13.0551C44.8631 13.3489 45.4928 14.4552 45.2066 15.5261L36.5504 47.9107C36.2641 48.9816 35.1703 49.6116 34.1073 49.3179L9.01711 42.3845Z" fill="#0593FC"/>
<path d="M43.8001 13.0551L41.1006 12.3092L33.1713 41.9741C32.8851 43.045 31.7913 43.6751 30.7282 43.3813L8.33758 37.1939L7.61064 39.9135C7.32438 40.9844 7.95406 42.0907 9.01711 42.3845L34.1073 49.3179C35.1703 49.6116 36.2641 48.9816 36.5504 47.9107L45.2066 15.5261C45.4928 14.4552 44.8631 13.3489 43.8001 13.0551Z" fill="#0182FC"/>
<path d="M33.9588 46.7807L10.4092 40.2721C10.3071 40.2439 10.2201 40.176 10.1674 40.0833C10.1146 39.9906 10.1004 39.8807 10.1279 39.7778L18.369 8.94062C18.3965 8.83775 18.4634 8.7503 18.555 8.69751C18.6467 8.64472 18.7555 8.63091 18.8576 8.65913L42.4072 15.1677C42.5093 15.1959 42.5963 15.2638 42.6491 15.3565C42.7019 15.4492 42.716 15.5591 42.6885 15.6619L34.4475 46.4992C34.42 46.602 34.353 46.6895 34.2614 46.7423C34.1698 46.7951 34.0609 46.8089 33.9588 46.7807Z" fill="white"/>
<path d="M42.4072 15.1677L40.4777 14.6344L33.1708 41.976C32.8846 43.0471 31.7908 43.6772 30.7278 43.3834L10.6475 37.8337L10.1279 39.7778C10.1004 39.8807 10.1146 39.9906 10.1674 40.0833C10.2201 40.176 10.3071 40.2439 10.4092 40.2721L33.9588 46.7807C34.0609 46.8089 34.1698 46.7951 34.2614 46.7423C34.353 46.6895 34.42 46.602 34.4475 46.4992L42.6886 15.6619C42.7022 15.6109 42.7057 15.5577 42.6989 15.5053C42.6922 15.4529 42.6752 15.4023 42.6491 15.3564C42.623 15.3106 42.5882 15.2703 42.5467 15.2379C42.5052 15.2055 42.4578 15.1816 42.4072 15.1677Z" fill="#F5F8F9"/>
<path d="M33.4851 10.0422C33.8155 8.80975 33.0871 7.53696 31.858 7.19937C30.629 6.8618 29.3647 7.58719 29.0343 8.8197C29.0214 8.8675 28.9724 8.89564 28.9247 8.88255L25.1489 7.84547L24.4758 10.3557C24.3326 10.8898 24.6482 11.4412 25.1808 11.5875L35.4273 14.4018C35.9599 14.5481 36.5076 14.2338 36.6508 13.6998L37.3239 11.1895L33.5481 10.1524C33.5252 10.1461 33.5058 10.1309 33.4939 10.1103C33.4821 10.0896 33.4789 10.0651 33.4851 10.0422Z" fill="#FFE177"/>
<path d="M35.0113 10.5615L34.8185 11.2807C34.6756 11.8138 34.1279 12.1278 33.5952 11.9821L24.6959 9.54773L24.4756 10.3693C24.3327 10.9024 24.6486 11.4526 25.1813 11.5983L35.4309 14.402C35.9636 14.5478 36.5113 14.2338 36.6542 13.7006L37.326 11.1947L35.0113 10.5615Z" fill="#FFD15B"/>
<path d="M39.5586 43.2045C43.086 41.179 44.3099 36.637 42.2923 33.0598C40.2746 29.4826 35.7795 28.2248 32.2521 30.2504C28.7247 32.2759 27.5008 36.8179 29.5185 40.3951C31.5361 43.9723 36.0312 45.2301 39.5586 43.2045Z" fill="#FE646F"/>
<path d="M39.4644 30.2603C40.3255 31.8725 40.6017 33.8042 40.0932 35.7057C39.0386 39.6497 35.0088 41.9699 31.0926 40.888C30.5052 40.7258 29.9542 40.4958 29.4446 40.2095C30.3695 41.941 31.9692 43.3038 33.9973 43.8641C37.9135 44.9459 41.9433 42.6257 42.9979 38.6818C43.8944 35.3293 42.3523 31.8831 39.4644 30.2603Z" fill="#FD4755"/>
<path d="M40.4245 39.1554C41.7422 36.6437 40.7875 33.5204 38.2921 32.1793C35.7966 30.8382 32.7055 31.7871 31.3878 34.2988C30.0701 36.8105 31.0249 39.9339 33.5203 41.275C36.0157 42.6161 39.1069 41.6672 40.4245 39.1554Z" fill="white"/>
<path d="M40.3373 34.1736C40.3093 34.6907 40.2278 35.2031 40.0942 35.7026C39.2398 38.9001 36.4324 41.0307 33.3148 41.1485C33.7108 41.3859 34.1365 41.5684 34.5803 41.6912C37.3043 42.4441 40.1072 40.829 40.8407 38.0838C41.207 36.7128 40.9877 35.3191 40.3373 34.1736Z" fill="#F5F8F9"/>
<path d="M18.4867 19.2169L18.7374 18.28C18.7679 18.1657 18.8337 18.0643 18.9251 17.9903C19.0166 17.9163 19.1291 17.8735 19.2465 17.868L19.8831 17.8381C20.0593 17.8299 20.2235 17.7407 20.3213 17.593C20.4455 17.4055 20.5824 17.2269 20.7312 17.0586C20.8465 16.9281 20.8903 16.7483 20.8544 16.5768L20.7217 15.9428C20.6973 15.8267 20.7101 15.7061 20.758 15.5981C20.806 15.4902 20.8867 15.4005 20.9886 15.3419L21.8241 14.8611C21.9259 14.8025 22.0438 14.7779 22.1607 14.791C22.2776 14.8041 22.3876 14.8541 22.4748 14.934L22.9517 15.3699C23.0807 15.4879 23.2572 15.541 23.4276 15.5071C23.6473 15.4634 23.8699 15.435 24.0936 15.4223C24.2698 15.4123 24.4295 15.3152 24.5259 15.1666L24.8737 14.63C24.9378 14.531 25.0315 14.4552 25.1414 14.4134C25.2512 14.3716 25.3715 14.366 25.485 14.3973L26.4159 14.6543C26.5294 14.6856 26.6304 14.7523 26.7043 14.8449C26.7781 14.9374 26.8212 15.051 26.8272 15.1693L26.8597 15.8109C26.8687 15.9886 26.958 16.1544 27.1051 16.2536C27.2928 16.3805 27.4705 16.5194 27.6372 16.6692C27.7673 16.7861 27.9459 16.831 28.116 16.7957L28.7445 16.6648C28.8596 16.6409 28.9793 16.6543 29.0867 16.7031C29.194 16.7519 29.2834 16.8337 29.3421 16.9366L29.8231 17.7808C29.8817 17.8838 29.9066 18.0026 29.8942 18.1204C29.8817 18.2381 29.8326 18.3487 29.7538 18.4363L29.3234 18.9148C29.2069 19.0443 29.155 19.2218 29.1895 19.3937C29.2339 19.6154 29.2631 19.8398 29.2768 20.0653C29.2875 20.2429 29.3846 20.4043 29.5325 20.5021L30.0666 20.8551C30.1651 20.9202 30.2408 21.015 30.2828 21.1259C30.3248 21.2367 30.331 21.358 30.3004 21.4722L30.0497 22.4091C30.0191 22.5234 29.9534 22.6248 29.8619 22.6988C29.7705 22.7728 29.658 22.8157 29.5405 22.8212L28.904 22.851C28.7277 22.8592 28.5636 22.9485 28.4658 23.0962C28.3416 23.2836 28.2046 23.4622 28.0559 23.6305C27.9406 23.761 27.8968 23.9408 27.9327 24.1124L28.0654 24.7464C28.0897 24.8624 28.077 24.983 28.029 25.091C27.9811 25.1989 27.9004 25.2886 27.7985 25.3473L26.963 25.828C26.8611 25.8867 26.7433 25.9112 26.6264 25.8981C26.5095 25.885 26.3995 25.835 26.3122 25.7552L25.8354 25.3192C25.7063 25.2012 25.5299 25.1481 25.3595 25.182C25.1397 25.2258 24.9172 25.2541 24.6934 25.2669C24.5172 25.2769 24.3576 25.3739 24.2612 25.5225L23.9134 26.0591C23.8492 26.1581 23.7555 26.2339 23.6457 26.2757C23.5359 26.3175 23.4156 26.3232 23.3021 26.2918L22.3712 26.0348C22.2576 26.0035 22.1567 25.9368 22.0828 25.8443C22.0089 25.7517 21.9659 25.6382 21.9599 25.5198L21.9273 24.8782C21.9184 24.7005 21.829 24.5347 21.682 24.4355C21.4954 24.3094 21.3175 24.1706 21.1498 24.0199C21.0197 23.9031 20.8411 23.8581 20.6711 23.8935L20.0425 24.0243C19.9275 24.0482 19.8077 24.0348 19.7004 23.986C19.5931 23.9372 19.5036 23.8555 19.445 23.7525L18.964 22.9083C18.9054 22.8054 18.8805 22.6865 18.8929 22.5687C18.9053 22.451 18.9545 22.3404 19.0333 22.2528L19.4637 21.7743C19.5801 21.6448 19.632 21.4673 19.5976 21.2954C19.5532 21.0737 19.524 20.8493 19.5103 20.6238C19.4995 20.4462 19.4025 20.2849 19.2546 20.187L18.7205 19.834C18.6219 19.7689 18.5462 19.6741 18.5043 19.5633C18.4623 19.4524 18.4561 19.3312 18.4867 19.2169Z" fill="#C5D3DD"/>
<path d="M26.1602 21.2925C26.6749 20.3114 26.302 19.0913 25.3272 18.5674C24.3524 18.0436 23.1449 18.4142 22.6302 19.3954C22.1155 20.3765 22.4885 21.5966 23.4632 22.1204C24.438 22.6443 25.6455 22.2736 26.1602 21.2925Z" fill="#9FACBA"/>
<path d="M25.3368 18.5752C25.4342 18.924 25.4361 19.2925 25.3423 19.6414C25.0557 20.7128 23.9606 21.3431 22.8963 21.0492C22.7458 21.0077 22.6043 20.9494 22.4726 20.8777C22.6568 21.5385 23.1708 22.0892 23.8752 22.2837C24.9394 22.5776 26.0346 21.9473 26.3212 20.8759C26.5672 19.9559 26.1369 19.0104 25.3368 18.5752Z" fill="#8D9CA8"/>
<path d="M30.0688 20.8463L29.5348 20.4929C29.3869 20.3951 29.2899 20.2335 29.2791 20.0556C29.2654 19.8298 29.2363 19.6052 29.1918 19.3833C29.1575 19.2112 29.2093 19.0334 29.3257 18.9038L29.756 18.4247C29.8347 18.337 29.8838 18.2263 29.8963 18.1084C29.9087 17.9905 29.8838 17.8715 29.8251 17.7684L29.3442 16.9233C29.2856 16.8202 29.1962 16.7384 29.0889 16.6895C28.9816 16.6406 28.8618 16.6272 28.7468 16.6512L28.3152 16.7412C28.5848 17.771 28.5819 18.853 28.3066 19.8787C27.4904 22.934 24.5094 24.8063 21.4761 24.2794C21.5449 24.3315 21.6148 24.3824 21.6866 24.4309C21.8335 24.5303 21.9228 24.6963 21.9319 24.8742L21.9645 25.5165C21.9705 25.635 22.0135 25.7487 22.0874 25.8413C22.1612 25.9339 22.2622 26.0007 22.3757 26.0321L23.3063 26.2894C23.4198 26.3208 23.5401 26.3151 23.6499 26.2733C23.7597 26.2314 23.8533 26.1555 23.9175 26.0564L24.2652 25.5192C24.3614 25.3704 24.521 25.2732 24.6973 25.2632C24.921 25.2504 25.1435 25.222 25.3631 25.1783C25.5335 25.1444 25.7099 25.1975 25.8389 25.3155L26.3157 25.752C26.4029 25.8319 26.5128 25.882 26.6297 25.8951C26.7466 25.9082 26.8644 25.8836 26.9663 25.8249L27.8015 25.3436C27.9034 25.2849 27.9841 25.1951 28.032 25.087C28.0799 24.9789 28.0927 24.8582 28.0684 24.742L27.9357 24.1073C27.8998 23.9355 27.9435 23.7555 28.0588 23.6249C28.2075 23.4563 28.3445 23.2776 28.4687 23.0899C28.5664 22.9421 28.7305 22.8527 28.9067 22.8444L29.5431 22.8145C29.6605 22.809 29.773 22.7661 29.8644 22.692C29.9558 22.6179 30.0215 22.5164 30.0521 22.402L30.3027 21.464C30.3332 21.3496 30.327 21.2283 30.285 21.1173C30.2429 21.0063 30.1673 20.9115 30.0688 20.8463Z" fill="#B6C4CF"/>
<path d="M17.1535 27.8272L18.1466 29.5729L20.8232 28.0301M30.2492 31.9615L23.0831 29.9803M16.0025 32.1366L16.9956 33.8822L19.6723 32.3394M33.172 20.8705L37.5866 22.091M32.2383 24.3663L36.6528 25.5868M14.8515 36.4459L15.8446 38.1915L18.5213 36.6487M36.6621 33.8295L35.8846 36.7404L38.0494 37.3389M21.9321 34.2897L28.5641 36.1232M20.7811 38.599L30.0024 41.1484M33.499 10.0829C33.8296 8.84512 33.1022 7.56649 31.8743 7.22701C30.6464 6.88755 29.383 7.61571 29.0524 8.85353C29.0396 8.90154 28.9906 8.92979 28.9429 8.91662L25.1707 7.87373L24.4974 10.3948C24.3541 10.9311 24.6693 11.4851 25.2013 11.6322L35.4381 14.4623C35.9701 14.6094 36.5175 14.2939 36.6607 13.7576L37.3341 11.2365L33.5619 10.1936C33.5391 10.1873 33.5196 10.172 33.5078 10.1513C33.496 10.1305 33.4928 10.1059 33.499 10.0829ZM18.4991 19.1946L18.7497 18.2565C18.7802 18.1421 18.8459 18.0405 18.9374 17.9664C19.0288 17.8923 19.1413 17.8494 19.2587 17.8439L19.895 17.814C20.0712 17.8058 20.2353 17.7164 20.3331 17.5685C20.4572 17.3807 20.5941 17.202 20.7428 17.0334C20.8581 16.9027 20.9019 16.7227 20.866 16.5509L20.7333 15.9161C20.709 15.7999 20.7217 15.6791 20.7696 15.5711C20.8175 15.463 20.8982 15.3731 21.0001 15.3144L21.8353 14.833C21.9371 14.7743 22.0549 14.7497 22.1718 14.7628C22.2887 14.7759 22.3986 14.826 22.4859 14.9059L22.9626 15.3425C23.0916 15.4605 23.268 15.5137 23.4384 15.4797C23.658 15.436 23.8805 15.4076 24.1042 15.3948C24.2804 15.3848 24.44 15.2876 24.5363 15.1388L24.884 14.6015C24.9481 14.5024 25.0418 14.4265 25.1516 14.3846C25.2614 14.3427 25.3816 14.3371 25.4951 14.3685L26.4258 14.6257C26.5393 14.6571 26.6402 14.7239 26.714 14.8165C26.7879 14.9092 26.8309 15.0229 26.8369 15.1414L26.8695 15.7838C26.8785 15.9618 26.9678 16.1278 27.1148 16.2271C27.3025 16.3541 27.4801 16.4932 27.6468 16.6432C27.7769 16.7602 27.9554 16.8052 28.1254 16.7698L28.7538 16.6388C28.8688 16.6148 28.9885 16.6282 29.0958 16.6771C29.2031 16.726 29.2925 16.8078 29.3512 16.9109L29.832 17.7562C29.8907 17.8592 29.9156 17.9783 29.9031 18.0962C29.8907 18.2141 29.8416 18.3248 29.7628 18.4125L29.3325 18.8917C29.2162 19.0213 29.1643 19.1991 29.1987 19.3712C29.2431 19.5931 29.2723 19.8178 29.286 20.0437C29.2968 20.2215 29.3938 20.3831 29.5417 20.481L30.0756 20.8344C30.1741 20.8996 30.2498 20.9945 30.2918 21.1055C30.3338 21.2165 30.3399 21.338 30.3094 21.4524L30.0588 22.3905C30.0283 22.5049 29.9626 22.6064 29.8711 22.6806C29.7797 22.7547 29.6672 22.7976 29.5498 22.8031L28.9135 22.833C28.7373 22.8412 28.5732 22.9306 28.4754 23.0785C28.3513 23.2662 28.2144 23.445 28.0656 23.6135C27.9504 23.7443 27.9066 23.9243 27.9425 24.096L28.0752 24.7309C28.0995 24.847 28.0868 24.9678 28.0389 25.0759C27.991 25.184 27.9103 25.2738 27.8084 25.3326L26.9732 25.814C26.8714 25.8727 26.7535 25.8972 26.6367 25.8841C26.5198 25.871 26.4099 25.821 26.3226 25.741L25.8459 25.3045C25.7169 25.1864 25.5405 25.1332 25.3701 25.1672C25.1504 25.211 24.928 25.2394 24.7043 25.2522C24.5281 25.2622 24.3685 25.3594 24.2722 25.5082L23.9245 26.0455C23.8604 26.1446 23.7667 26.2205 23.6569 26.2624C23.5471 26.3042 23.4269 26.3099 23.3134 26.2785L22.3827 26.0212C22.2692 25.9899 22.1683 25.9231 22.0945 25.8304C22.0206 25.7378 21.9776 25.6241 21.9716 25.5056L21.939 24.8631C21.93 24.6852 21.8407 24.5192 21.6937 24.4198C21.5071 24.2936 21.3293 24.1546 21.1617 24.0037C21.0316 23.8868 20.8531 23.8417 20.6831 23.8772L20.0547 24.0082C19.9397 24.0322 19.82 24.0188 19.7127 23.9699C19.6054 23.921 19.516 23.8392 19.4573 23.7361L18.9765 22.8908C18.9178 22.7877 18.8929 22.6687 18.9054 22.5508C18.9178 22.4329 18.9669 22.3222 19.0457 22.2345L19.4759 21.7553C19.5923 21.6257 19.6442 21.4479 19.6097 21.2758C19.5654 21.0538 19.5362 20.8291 19.5225 20.6033C19.5117 20.4255 19.4147 20.2639 19.2668 20.166L18.7328 19.8126C18.6343 19.7474 18.5587 19.6525 18.5167 19.5414C18.4747 19.4304 18.4685 19.309 18.4991 19.1946Z" stroke="black" stroke-width="0.866926" stroke-miterlimit="10" stroke-linecap="round" stroke-linejoin="round"/>
<path d="M26.1602 21.2925C26.6749 20.3114 26.302 19.0913 25.3272 18.5674C24.3524 18.0436 23.1449 18.4142 22.6302 19.3954C22.1155 20.3765 22.4885 21.5966 23.4632 22.1204C24.438 22.6443 25.6455 22.2736 26.1602 21.2925Z" stroke="black" stroke-width="0.866926" stroke-miterlimit="10" stroke-linecap="round" stroke-linejoin="round"/>
<path d="M39.5586 43.2045C43.086 41.179 44.3099 36.637 42.2923 33.0598C40.2746 29.4826 35.7795 28.2248 32.2521 30.2504C28.7247 32.2759 27.5008 36.8179 29.5185 40.3951C31.5361 43.9723 36.0312 45.2301 39.5586 43.2045Z" stroke="black" stroke-width="0.866926" stroke-miterlimit="10" stroke-linecap="round" stroke-linejoin="round"/>
<path d="M24.5517 10.2321L18.8586 8.65918C18.7565 8.63097 18.6476 8.64477 18.556 8.69754C18.4644 8.75031 18.3974 8.83773 18.3699 8.94057L16.272 16.7874M38.859 29.9933L42.6912 15.66C42.7187 15.5572 42.7045 15.4473 42.6518 15.3547C42.599 15.262 42.512 15.1941 42.4099 15.1659L36.7168 13.593M15.5455 19.5044L10.1278 39.7677C10.1003 39.8706 10.1145 39.9804 10.1673 40.0731C10.22 40.1657 10.307 40.2337 10.4091 40.2619L33.9604 46.7686C34.0625 46.7968 34.1714 46.783 34.263 46.7303C34.3546 46.6775 34.4216 46.5901 34.4491 46.4872L35.0843 44.1114M40.9585 31.4183L43.5691 21.6539" stroke="black" stroke-width="0.866926" stroke-miterlimit="10" stroke-linecap="round" stroke-linejoin="round"/>
<path d="M25.1727 7.90765L18.7099 6.12174C17.6469 5.82798 16.5531 6.458 16.2668 7.52896L7.61064 39.9135C7.32438 40.9844 7.95406 42.0907 9.01711 42.3845L34.1073 49.3179C35.1703 49.6116 36.2641 48.9816 36.5504 47.9107L37.6032 43.9718M44.2938 18.9409L45.2066 15.5261C45.4928 14.4552 44.8631 13.3489 43.8001 13.0551L37.3373 11.2692" stroke="black" stroke-width="0.866926" stroke-miterlimit="10" stroke-linecap="round" stroke-linejoin="round"/>
<path d="M30.8127 37.1344C30.9881 39.2349 32.4408 41.1028 34.5764 41.6924C37.301 42.4446 40.1046 40.8313 40.8384 38.089C41.5721 35.3466 39.9581 32.5137 37.2335 31.7614C34.8586 31.1058 32.4244 32.2476 31.3524 34.3673" stroke="black" stroke-width="0.866926" stroke-miterlimit="10" stroke-linecap="round" stroke-linejoin="round"/>
</svg>
