<svg width="56" height="56" viewBox="0 0 56 56" fill="none" xmlns="http://www.w3.org/2000/svg">
<path d="M35.8408 15.2686L44.7373 39.4902C45.0899 40.4502 44.5976 41.5146 43.6377 41.8672L20.1777 50.4844C19.2179 50.8369 18.1535 50.3444 17.8008 49.3848L6.59863 18.8857C6.24619 17.9259 6.73857 16.8615 7.69824 16.5088L24.9229 10.1826C28.5625 11.873 32.1978 13.5711 35.8408 15.2686Z" fill="#F4DC3F" stroke="black" stroke-width="0.870044"/>
<path d="M36.1866 14.9492L45.1463 39.3432C45.5814 40.5279 44.9744 41.8396 43.7896 42.2747L20.3261 50.8926C19.1414 51.3277 17.8297 50.7208 17.3946 49.536L16.7578 47.8022C19.036 47.8443 21.3603 47.4761 23.6316 46.6419C33.4504 43.0355 38.4855 32.1547 34.8812 22.3417C32.7182 16.4527 27.9408 12.2848 22.3369 10.6702L24.9433 9.71289C28.6908 11.4518 32.4368 13.2044 36.1866 14.9492Z" fill="black" fill-opacity="0.0627451"/>
<path d="M36.1881 14.9511L30.0663 17.1995C28.9116 17.6237 27.6317 17.0314 27.2076 15.8766L24.9434 9.71191C28.6923 11.4527 32.4366 13.2032 36.1881 14.9511Z" fill="#554E56"/>
<path d="M36.1858 14.9492C33.705 15.8603 30.9582 15.2306 29.0269 13.4268C28.014 12.4814 26.8203 11.7508 25.5176 11.279L24.9424 9.71289C28.6899 11.4518 32.436 13.2044 36.1858 14.9492Z" fill="black" fill-opacity="0.0627451"/>
<path d="M22.2627 4.37012H40.6113C43.4455 7.21201 46.2725 10.0602 49.1074 12.9102V38.7129C49.1074 39.7354 48.2783 40.5642 47.2559 40.5645H22.2627C21.24 40.5645 20.4102 39.7356 20.4102 38.7129V6.22266C20.4102 5.19995 21.24 4.37012 22.2627 4.37012Z" fill="#ECF7FE" stroke="black" stroke-width="0.870044"/>
<path d="M49.5399 12.7273V38.7145C49.5399 39.9766 48.5179 40.9986 47.2558 40.9986H22.2597C20.9976 40.9986 19.9756 39.9766 19.9756 38.7145V36.8675C22.0997 37.6925 24.4084 38.1481 26.828 38.1481C37.2881 38.1481 45.7659 29.6704 45.7659 19.2164C45.7659 12.9427 42.7184 7.38326 38.0146 3.93555H40.7913C43.7095 6.86005 46.6216 9.7967 49.5399 12.7273Z" fill="black" fill-opacity="0.0627451"/>
<path d="M49.542 12.7303H43.0203C41.7902 12.7303 40.793 11.7331 40.793 10.5029V3.93555C43.7118 6.86201 46.6231 9.79611 49.542 12.7303Z" fill="#554E56"/>
<path d="M49.5406 12.7272C46.8979 12.7272 44.5366 11.189 43.3455 8.82993C42.7207 7.59333 41.8521 6.49597 40.792 5.60395V3.93555C43.7102 6.85995 46.6223 9.7966 49.5406 12.7272Z" fill="black" fill-opacity="0.0627451"/>
<path d="M30.2468 10.251V15.2106C30.2467 15.4584 30.1483 15.6962 29.973 15.8714C29.7977 16.0467 29.56 16.1452 29.3121 16.1452H24.3526C24.1047 16.1452 23.867 16.0467 23.6917 15.8714C23.5165 15.6962 23.418 15.4584 23.418 15.2106V10.251C23.418 10.0032 23.5165 9.76545 23.6917 9.59018C23.867 9.41491 24.1047 9.31643 24.3526 9.31641H29.3121C29.56 9.31643 29.7977 9.41491 29.973 9.59018C30.1483 9.76545 30.2467 10.0032 30.2468 10.251Z" fill="#45E29D"/>
<path d="M30.2457 10.2532V15.2093C30.2457 15.3322 30.2216 15.4539 30.1746 15.5675C30.1275 15.681 30.0586 15.7842 29.9717 15.8711C29.8848 15.958 29.7816 16.027 29.6681 16.074C29.5545 16.121 29.4328 16.1452 29.3099 16.1451H24.3538C24.2309 16.1452 24.1092 16.121 23.9956 16.074C23.882 16.027 23.7789 15.958 23.6919 15.8711C23.605 15.7842 23.5361 15.681 23.4891 15.5675C23.4421 15.4539 23.4179 15.3322 23.418 15.2093V14.4027C23.7073 14.4581 24.009 14.4889 24.3168 14.4889C26.8473 14.4889 28.8974 12.4387 28.8974 9.9084C28.8974 9.70519 28.8851 9.50815 28.8543 9.31738H29.3099C29.4328 9.31732 29.5545 9.34148 29.6681 9.38849C29.7816 9.43549 29.8848 9.50442 29.9717 9.59133C30.0587 9.67824 30.1276 9.78143 30.1746 9.89499C30.2216 10.0086 30.2458 10.1303 30.2457 10.2532Z" fill="black" fill-opacity="0.0627451"/>
<path d="M30.2468 20.544V25.5035C30.2467 25.7514 30.1483 25.9891 29.973 26.1644C29.7977 26.3397 29.56 26.4381 29.3121 26.4382H24.3526C24.1047 26.4381 23.867 26.3397 23.6917 26.1644C23.5165 25.9891 23.418 25.7514 23.418 25.5035V20.544C23.418 20.2961 23.5165 20.0584 23.6917 19.8832C23.867 19.7079 24.1047 19.6094 24.3526 19.6094H29.3121C29.56 19.6094 29.7977 19.7078 29.973 19.8831C30.1483 20.0584 30.2468 20.2961 30.2468 20.544Z" fill="#C87848"/>
<path d="M30.2457 20.5452V25.5013C30.2457 25.6242 30.2216 25.7459 30.1746 25.8595C30.1275 25.973 30.0586 26.0762 29.9717 26.1631C29.8848 26.25 29.7816 26.319 29.6681 26.366C29.5545 26.413 29.4328 26.4371 29.3099 26.4371H24.3538C24.2309 26.4371 24.1092 26.413 23.9956 26.366C23.882 26.319 23.7789 26.25 23.6919 26.1631C23.605 26.0762 23.5361 25.973 23.4891 25.8595C23.4421 25.7459 23.4179 25.6242 23.418 25.5013V24.6947C23.7073 24.7501 24.009 24.7809 24.3168 24.7809C26.8473 24.7809 28.8974 22.7307 28.8974 20.2004C28.8974 19.9972 28.8851 19.8001 28.8543 19.6094H29.3099C29.4328 19.6093 29.5545 19.6335 29.6681 19.6805C29.7816 19.7275 29.8848 19.7964 29.9717 19.8834C30.0586 19.9703 30.1275 20.0734 30.1746 20.187C30.2216 20.3006 30.2457 20.4223 30.2457 20.5452Z" fill="black" fill-opacity="0.0627451"/>
<path d="M30.2468 30.836V35.7955C30.2467 36.0434 30.1483 36.2811 29.973 36.4564C29.7977 36.6317 29.56 36.7301 29.3121 36.7302H24.3526C24.1047 36.7301 23.867 36.6317 23.6917 36.4564C23.5165 36.2811 23.418 36.0434 23.418 35.7955V30.836C23.418 30.5881 23.5165 30.3504 23.6917 30.1751C23.867 29.9999 24.1047 29.9014 24.3526 29.9014H29.3121C29.56 29.9014 29.7977 29.9999 29.973 30.1751C30.1483 30.3504 30.2467 30.5881 30.2468 30.836Z" fill="#FE9C14"/>
<path d="M30.2457 30.8381V35.7943C30.2457 35.9172 30.2216 36.0389 30.1746 36.1524C30.1275 36.266 30.0586 36.3692 29.9717 36.4561C29.8848 36.543 29.7816 36.6119 29.6681 36.6589C29.5545 36.7059 29.4328 36.7301 29.3099 36.7301H24.3538C24.2309 36.7301 24.1092 36.7059 23.9956 36.6589C23.882 36.6119 23.7789 36.543 23.6919 36.4561C23.605 36.3692 23.5361 36.266 23.4891 36.1524C23.4421 36.0389 23.4179 35.9172 23.418 35.7943V34.9877C23.7073 35.043 24.009 35.0739 24.3168 35.0739C26.8473 35.0739 28.8974 33.0237 28.8974 30.4934C28.8974 30.2901 28.8851 30.0931 28.8543 29.9023H29.3099C29.4328 29.9023 29.5545 29.9265 29.6681 29.9735C29.7816 30.0205 29.8848 30.0894 29.9717 30.1763C30.0586 30.2632 30.1275 30.3664 30.1746 30.48C30.2216 30.5935 30.2457 30.7152 30.2457 30.8381Z" fill="black" fill-opacity="0.0627451"/>
<path d="M24.3529 16.6164H29.3124C30.0874 16.6164 30.718 15.9858 30.718 15.2108V10.2513C30.718 9.4763 30.0874 8.8457 29.3124 8.8457H24.3529C23.5779 8.8457 22.9473 9.4763 22.9473 10.2513V15.2109C22.9474 15.9858 23.5779 16.6164 24.3529 16.6164ZM23.8892 10.2513C23.8893 10.1284 23.9382 10.0105 24.0252 9.92359C24.1121 9.83667 24.2299 9.78778 24.3529 9.78768H29.3124C29.4354 9.78778 29.5532 9.83667 29.6402 9.92359C29.7271 10.0105 29.776 10.1284 29.7761 10.2513V15.2109C29.776 15.3338 29.7271 15.4517 29.6402 15.5386C29.5532 15.6255 29.4354 15.6744 29.3124 15.6745H24.3529C24.2299 15.6744 24.1121 15.6255 24.0252 15.5386C23.9382 15.4517 23.8893 15.3338 23.8892 15.2109V10.2513Z" fill="black"/>
<path d="M25.8091 13.7604C25.8531 13.8167 25.9093 13.8622 25.9735 13.8936C26.0378 13.9249 26.1083 13.9412 26.1797 13.9412C26.288 13.9413 26.393 13.9039 26.4768 13.8354L28.2935 12.3567C28.3415 12.3177 28.3814 12.2696 28.4108 12.2152C28.4402 12.1608 28.4586 12.1011 28.4649 12.0396C28.4712 11.9781 28.4653 11.9159 28.4476 11.8567C28.4299 11.7974 28.4007 11.7423 28.3616 11.6943C28.3226 11.6463 28.2746 11.6065 28.2202 11.5771C28.1658 11.5477 28.1061 11.5293 28.0446 11.523C27.9831 11.5167 27.9209 11.5225 27.8616 11.5402C27.8024 11.558 27.7472 11.5872 27.6993 11.6262L26.2546 12.8018L26.0393 12.5273C25.8788 12.3226 25.583 12.2853 25.3783 12.4468C25.3296 12.4849 25.2888 12.5322 25.2584 12.586C25.228 12.6399 25.2084 12.6992 25.201 12.7606C25.1935 12.822 25.1982 12.8843 25.2148 12.9439C25.2315 13.0034 25.2597 13.0591 25.2979 13.1078L25.8091 13.7604ZM24.3529 26.9091H29.3124C30.0874 26.9091 30.718 26.2785 30.718 25.5035V20.544C30.718 19.7689 30.0874 19.1383 29.3124 19.1383H24.3529C23.5779 19.1383 22.9473 19.7689 22.9473 20.544V25.5035C22.9474 26.2785 23.5779 26.9091 24.3529 26.9091ZM23.8892 20.5441C23.8893 20.4211 23.9382 20.3033 24.0252 20.2163C24.1121 20.1294 24.2299 20.0805 24.3529 20.0804H29.3124C29.4354 20.0805 29.5532 20.1294 29.6402 20.2163C29.7271 20.3033 29.776 20.4211 29.7761 20.5441V25.5036C29.776 25.6265 29.7271 25.7444 29.6402 25.8313C29.5532 25.9183 29.4354 25.9671 29.3124 25.9672H24.3529C24.2299 25.9671 24.1121 25.9183 24.0252 25.8313C23.9382 25.7444 23.8893 25.6265 23.8892 25.5036V20.5441Z" fill="black"/>
<path d="M25.8091 24.0524C25.8475 24.1018 25.8955 24.143 25.9501 24.1736C26.0047 24.2042 26.0649 24.2235 26.1271 24.2305C26.1894 24.2375 26.2523 24.232 26.3124 24.2143C26.3724 24.1965 26.4283 24.167 26.4768 24.1274L28.2935 22.6487C28.3415 22.6097 28.3814 22.5616 28.4108 22.5072C28.4402 22.4528 28.4586 22.3931 28.4649 22.3316C28.4712 22.2701 28.4653 22.2079 28.4476 22.1487C28.4299 22.0894 28.4007 22.0343 28.3616 21.9863C28.3226 21.9383 28.2746 21.8985 28.2202 21.8691C28.1658 21.8397 28.1061 21.8213 28.0446 21.815C27.9831 21.8086 27.9209 21.8145 27.8616 21.8322C27.8024 21.8499 27.7472 21.8792 27.6993 21.9182L26.2546 23.0938L26.0393 22.8188C26.0013 22.77 25.954 22.7292 25.9001 22.6987C25.8463 22.6682 25.787 22.6487 25.7256 22.6412C25.6641 22.6337 25.6019 22.6384 25.5423 22.6551C25.4827 22.6717 25.427 22.7 25.3783 22.7382C25.3296 22.7763 25.2889 22.8236 25.2585 22.8775C25.2281 22.9313 25.2086 22.9906 25.2011 23.052C25.1937 23.1134 25.1984 23.1757 25.215 23.2352C25.2316 23.2948 25.2598 23.3505 25.2979 23.3992L25.8091 24.0524ZM24.3529 37.2011H29.3124C30.0874 37.2011 30.718 36.5705 30.718 35.7955V30.836C30.718 30.0609 30.0874 29.4303 29.3124 29.4303H24.3529C23.5779 29.4303 22.9473 30.0609 22.9473 30.836V35.7955C22.9474 36.5705 23.5779 37.2011 24.3529 37.2011ZM23.8892 30.836C23.8893 30.7131 23.9382 30.5952 24.0252 30.5083C24.1121 30.4214 24.2299 30.3725 24.3529 30.3724H29.3124C29.4354 30.3725 29.5532 30.4214 29.6402 30.5083C29.7271 30.5952 29.776 30.7131 29.7761 30.836V35.7956C29.776 35.9185 29.7271 36.0364 29.6402 36.1233C29.5532 36.2102 29.4354 36.2591 29.3124 36.2592H24.3529C24.2299 36.2591 24.1121 36.2102 24.0252 36.1233C23.9382 36.0364 23.8893 35.9185 23.8892 35.7956V30.836Z" fill="black"/>
<path d="M25.8086 34.3458C25.8471 34.3952 25.8951 34.4364 25.9497 34.467C26.0043 34.4976 26.0645 34.5169 26.1267 34.5239C26.1889 34.5309 26.2519 34.5254 26.312 34.5077C26.372 34.49 26.4279 34.4604 26.4764 34.4208L28.2931 32.9421C28.3411 32.9031 28.3809 32.855 28.4103 32.8006C28.4398 32.7462 28.4581 32.6866 28.4645 32.625C28.4708 32.5635 28.4649 32.5014 28.4472 32.4421C28.4295 32.3829 28.4003 32.3277 28.3612 32.2798C28.3222 32.2318 28.2741 32.1919 28.2197 32.1625C28.1653 32.1331 28.1057 32.1147 28.0442 32.1084C27.9826 32.1021 27.9205 32.1079 27.8612 32.1257C27.802 32.1434 27.7468 32.1726 27.6989 32.2117L26.2542 33.3872L26.0389 33.1122C26.0008 33.0634 25.9535 33.0227 25.8997 32.9922C25.8458 32.9618 25.7865 32.9423 25.7251 32.9348C25.6637 32.9273 25.6014 32.932 25.5419 32.9486C25.4823 32.9653 25.4266 32.9935 25.3779 33.0316C25.3292 33.0697 25.2885 33.1171 25.2581 33.1709C25.2277 33.2248 25.2082 33.2841 25.2007 33.3455C25.1932 33.4068 25.1979 33.4691 25.2145 33.5287C25.2311 33.5882 25.2593 33.6439 25.2975 33.6926L25.8086 34.3458ZM34.9426 15.4869H39.6437C39.904 15.4869 40.1147 15.2762 40.1147 15.0159C40.1147 14.7556 39.904 14.5449 39.6437 14.5449H34.9426C34.8807 14.5449 34.8195 14.557 34.7623 14.5807C34.7052 14.6044 34.6532 14.639 34.6095 14.6828C34.5657 14.7265 34.531 14.7785 34.5074 14.8356C34.4837 14.8928 34.4716 14.954 34.4716 15.0159C34.4716 15.0778 34.4837 15.139 34.5074 15.1962C34.531 15.2534 34.5657 15.3053 34.6095 15.349C34.6532 15.3928 34.7052 15.4275 34.7623 15.4511C34.8195 15.4748 34.8807 15.4869 34.9426 15.4869ZM33.7937 31.4487H46.9217C47.182 31.4487 47.3927 31.238 47.3927 30.9777C47.3927 30.7174 47.182 30.5067 46.9217 30.5067H33.7937C33.5334 30.5067 33.3227 30.7174 33.3227 30.9777C33.3227 31.238 33.5334 31.4487 33.7937 31.4487ZM44.7668 35.0776H35.9485C35.6881 35.0776 35.4775 35.2882 35.4775 35.5486C35.4775 35.8089 35.6881 36.0195 35.9485 36.0195H44.7668C45.0272 36.0195 45.2378 35.8089 45.2378 35.5486C45.2378 35.2882 45.0272 35.0776 44.7668 35.0776ZM33.7937 21.2086H46.9217C47.182 21.2086 47.3927 20.998 47.3927 20.7376C47.3927 20.4773 47.182 20.2666 46.9217 20.2666H33.7937C33.5334 20.2666 33.3227 20.4773 33.3227 20.7376C33.3227 20.998 33.5334 21.2086 33.7937 21.2086ZM35.9485 24.838C35.6881 24.838 35.4775 25.0486 35.4775 25.309C35.4775 25.5693 35.6881 25.78 35.9485 25.78H44.7668C45.0272 25.78 45.2378 25.5693 45.2378 25.309C45.2378 25.0486 45.0272 24.838 44.7668 24.838H35.9485Z" fill="black"/>
</svg>
