<svg width="24" height="24" viewBox="0 0 24 24" fill="none" xmlns="http://www.w3.org/2000/svg">
<path d="M16.5657 20.0005V18.4505C15.4233 17.182 13.7632 16.3838 11.9156 16.3838C10.068 16.3838 8.40795 17.182 7.26562 18.4505V20.0005" stroke="#E7ECEE" stroke-width="1.5" stroke-linecap="square"/>
<path d="M11.9154 13.8005C13.3421 13.8005 14.4987 12.6439 14.4987 11.2171C14.4987 9.79039 13.3421 8.63379 11.9154 8.63379C10.4886 8.63379 9.33203 9.79039 9.33203 11.2171C9.33203 12.6439 10.4886 13.8005 11.9154 13.8005Z" stroke="#E7ECEE" stroke-width="1.5" stroke-linecap="square"/>
<path d="M17.5996 11.2168C19.242 11.2168 20.7176 12.015 21.733 13.2835V14.8335" stroke="#E7ECEE" stroke-width="1.5" stroke-linecap="square"/>
<path d="M17.5999 8.63335C18.7413 8.63335 19.6665 7.70807 19.6665 6.56667C19.6665 5.42528 18.7413 4.5 17.5999 4.5C16.4585 4.5 15.5332 5.42528 15.5332 6.56667C15.5332 7.70807 16.4585 8.63335 17.5999 8.63335Z" stroke="#E7ECEE" stroke-width="1.5" stroke-linecap="square"/>
<path d="M6.23296 11.2168C4.5906 11.2168 3.11501 12.015 2.09961 13.2835V14.8335" stroke="#E7ECEE" stroke-width="1.5" stroke-linecap="square"/>
<path d="M6.23269 8.63335C7.37408 8.63335 8.29936 7.70807 8.29936 6.56667C8.29936 5.42528 7.37408 4.5 6.23269 4.5C5.0913 4.5 4.16602 5.42528 4.16602 6.56667C4.16602 7.70807 5.0913 8.63335 6.23269 8.63335Z" stroke="#E7ECEE" stroke-width="1.5" stroke-linecap="square"/>
</svg>
