<svg width="24" height="24" viewBox="0 0 24 24" fill="none" xmlns="http://www.w3.org/2000/svg">
<path d="M4 12C4 8.22876 4 6.34314 5.17157 5.17157C6.34314 4 8.22876 4 12 4C15.7712 4 17.6568 4 18.8284 5.17157C20 6.34314 20 8.22876 20 12C20 15.7712 20 17.6568 18.8284 18.8284C17.6568 20 15.7712 20 12 20C8.22876 20 6.34314 20 5.17157 18.8284C4 17.6568 4 15.7712 4 12Z" fill="#2BBC7C" stroke="#2BBC7C" stroke-width="1.2"/>
<path d="M13.2638 12.8421L16.2111 9.47363M13.6848 14.5263C13.6848 15.4564 12.9307 16.2105 12.0006 16.2105C11.0704 16.2105 10.3164 15.4564 10.3164 14.5263C10.3164 13.5961 11.0704 12.8421 12.0006 12.8421C12.9307 12.8421 13.6848 13.5961 13.6848 14.5263Z" stroke="white" stroke-width="1.2" stroke-linecap="round"/>
<path d="M6.94727 11.9999C6.94727 9.2094 9.2094 6.94727 11.9999 6.94727C12.9202 6.94727 13.783 7.19331 14.5262 7.62321" stroke="white" stroke-width="1.2" stroke-linecap="round"/>
</svg>
