<svg width="24" height="24" viewBox="0 0 24 24" fill="none" xmlns="http://www.w3.org/2000/svg">
<path d="M17.7261 3H6.27656C5.28431 3 4.47656 3.80774 4.47656 4.8V19.2C4.47656 20.1923 5.28431 21 6.27656 21H17.7253C18.7176 21 19.5253 20.1923 19.5253 19.2V4.8C19.5261 3.80774 18.7184 3 17.7261 3ZM18.3261 19.2C18.3261 19.5308 18.0569 19.8 17.7261 19.8H6.27656C5.9458 19.8 5.67656 19.5308 5.67656 19.2V4.8C5.67656 4.46924 5.9458 4.2 6.27656 4.2H17.7253C18.0561 4.2 18.3253 4.46924 18.3253 4.8V19.2H18.3261Z" fill="#E7ECEE"/>
<path d="M10.6895 9.4019C10.7885 9.5279 10.934 9.60965 11.093 9.62766C11.1155 9.6299 11.1388 9.6314 11.1613 9.6314C11.2978 9.6314 11.4305 9.5849 11.5378 9.49865L14.3053 7.26896C14.5633 7.06047 14.6038 6.68321 14.396 6.42521C14.1875 6.16646 13.8095 6.12596 13.5523 6.33446L11.2588 8.18246L10.5463 7.27346C10.3416 7.0132 9.96436 6.96822 9.7041 7.17146C9.44384 7.37696 9.39809 7.75345 9.6021 8.01445L10.6895 9.4019Z" fill="#E7ECEE"/>
<path d="M15.7779 11.4727H8.22695C7.89545 11.4727 7.62695 11.7411 7.62695 12.0727C7.62695 12.4042 7.89545 12.6727 8.22695 12.6727H15.7764C16.1079 12.6727 16.3764 12.4042 16.3764 12.0727C16.3771 11.7411 16.1087 11.4727 15.7779 11.4727Z" fill="#E7ECEE"/>
<path d="M15.7779 14.0352H8.22695C7.89545 14.0352 7.62695 14.3036 7.62695 14.6352C7.62695 14.9667 7.89545 15.2352 8.22695 15.2352H15.7764C16.1079 15.2352 16.3764 14.9667 16.3764 14.6352C16.3771 14.3036 16.1087 14.0352 15.7779 14.0352Z" fill="#E7ECEE"/>
<path d="M10.813 16.5977H8.22695C7.89545 16.5977 7.62695 16.8661 7.62695 17.1977C7.62695 17.5292 7.89545 17.7977 8.22695 17.7977H10.8122C11.1437 17.7977 11.4122 17.5292 11.4122 17.1977C11.413 16.8669 11.1445 16.5977 10.813 16.5977Z" fill="#E7ECEE"/>
</svg>
