<svg width="24" height="24" viewBox="0 0 24 24" fill="none" xmlns="http://www.w3.org/2000/svg">
<path d="M4 12.4C4 9.57002 4 8.15502 4.84224 7.21032C4.97695 7.05922 5.12542 6.91948 5.28597 6.7927C6.2897 6 7.79314 6 10.8 6H13.2C16.2069 6 17.7103 6 18.714 6.7927C18.8746 6.91948 19.023 7.05922 19.1578 7.21032C20 8.15502 20 9.57002 20 12.4C20 15.23 20 16.645 19.1578 17.5897C19.023 17.7408 18.8746 17.8805 18.714 18.0073C17.7103 18.8 16.2069 18.8 13.2 18.8H10.8C7.79314 18.8 6.2897 18.8 5.28597 18.0073C5.12542 17.8805 4.97695 17.7408 4.84224 17.5897C4 16.645 4 15.23 4 12.4Z" stroke="#E7ECEE" stroke-width="1.5" stroke-linejoin="round"/>
<path d="M14.041 12.4004C14.041 13.505 13.1456 14.4004 12.041 14.4004C10.9365 14.4004 10.041 13.505 10.041 12.4004C10.041 11.2958 10.9365 10.4004 12.041 10.4004C13.1456 10.4004 14.041 11.2958 14.041 12.4004Z" stroke="#E7ECEE" stroke-width="1.5" stroke-linejoin="round"/>
<path d="M6.40039 12.4004H7.20039" stroke="#E7ECEE" stroke-width="1.5" stroke-linecap="round" stroke-linejoin="round"/>
<path d="M16.8008 12.4004H17.6008" stroke="#E7ECEE" stroke-width="1.5" stroke-linecap="round" stroke-linejoin="round"/>
</svg>
