<svg width="24" height="24" viewBox="0 0 24 24" fill="none" xmlns="http://www.w3.org/2000/svg">
<path d="M11.3002 18.3004H10.6002C7.96022 18.3004 6.64025 18.3004 5.82012 17.4802C5 16.6602 5 15.3401 5 12.7002V10.6002C5 7.96022 5 6.64025 5.82012 5.82012C6.64025 5 7.96022 5 10.6002 5H12.0002C14.6401 5 15.9601 5 16.7802 5.82012C17.6004 6.64025 17.6004 7.96022 17.6004 10.6002V10.9502" stroke="#E7ECEE" stroke-width="1.5" stroke-linecap="round" stroke-linejoin="round"/>
<path d="M15.7853 13.6829C15.9339 13.3062 16.467 13.3062 16.6156 13.6829L16.6413 13.7482C17.0042 14.6683 17.7326 15.3967 18.6527 15.7596L18.718 15.7853C19.0947 15.9339 19.0947 16.467 18.718 16.6156L18.6527 16.6413C17.7326 17.0042 17.0042 17.7326 16.6413 18.6527L16.6156 18.718C16.467 19.0947 15.9339 19.0947 15.7853 18.718L15.7596 18.6527C15.3967 17.7326 14.6683 17.0042 13.7482 16.6413L13.6829 16.6156C13.3062 16.467 13.3062 15.9339 13.6829 15.7853L13.7482 15.7596C14.6683 15.3967 15.3967 14.6683 15.7596 13.7482L15.7853 13.6829Z" stroke="#E7ECEE" stroke-width="1.5" stroke-linecap="round" stroke-linejoin="round"/>
<path d="M8.5 8.5H14.1002M8.5 11.6501H14.1002M8.5 14.8002H11.3001" stroke="#E7ECEE" stroke-width="1.5" stroke-linecap="round" stroke-linejoin="round"/>
</svg>
